<svg width="248" height="230" viewBox="0 0 248 230" fill="none" xmlns="http://www.w3.org/2000/svg">
<g filter="url(#filter0_f_8_23)">
<path d="M87.505 120.195C85.2636 119.097 85.2636 115.903 87.5051 114.805L104.688 106.395C105.539 105.978 106.144 105.183 106.318 104.251L109.694 86.1477C110.124 83.8436 112.911 82.9001 114.652 84.4696L129.138 97.5308C129.792 98.1202 130.671 98.3928 131.544 98.2764L151.298 95.641C153.716 95.3183 155.488 97.8638 154.345 100.02L145.825 116.095C145.359 116.974 145.359 118.026 145.825 118.905L154.345 134.98C155.488 137.136 153.716 139.682 151.298 139.359L131.544 136.724C130.671 136.607 129.792 136.88 129.138 137.469L114.652 150.53C112.911 152.1 110.124 151.156 109.694 148.852L106.318 130.749C106.144 129.817 105.539 129.022 104.688 128.605L87.505 120.195Z" fill="black" fill-opacity="0.8"/>
</g>
<path d="M-5.02681e-06 115L118.203 112.336C119.093 112.316 119.714 111.445 119.441 110.597L85.6819 5.62852L124.951 109.092C125.251 109.883 126.202 110.197 126.914 109.741L224.318 47.4047L130.493 113.914C129.744 114.444 129.744 115.556 130.493 116.086L224.318 182.595L126.914 120.259C126.202 119.803 125.251 120.118 124.951 120.908L85.6819 224.372L119.441 119.403C119.714 118.555 119.093 117.684 118.203 117.664L-5.02681e-06 115Z" fill="#D9D9D9"/>
<defs>
<filter id="filter0_f_8_23" x="60.8239" y="58.6949" width="118.876" height="117.61" filterUnits="userSpaceOnUse" color-interpolation-filters="sRGB">
<feFlood flood-opacity="0" result="BackgroundImageFix"/>
<feBlend mode="normal" in="SourceGraphic" in2="BackgroundImageFix" result="shape"/>
<feGaussianBlur stdDeviation="12.5" result="effect1_foregroundBlur_8_23"/>
</filter>
</defs>
</svg>
