<svg width="1614" height="1200" viewBox="0 0 1614 1200" fill="none" xmlns="http://www.w3.org/2000/svg">
<path d="M907.933 175.344L917.677 173.913C959.888 167.715 976.495 226.678 937.254 243.42C907.302 256.2 895.399 292.388 911.436 320.578C922.352 339.767 915.74 359.101 901.962 370.205C888.235 381.268 868.504 383.316 852.749 368.109L841.004 356.773C818.811 335.352 783.783 334.892 761.035 355.724L748.997 366.748C732.849 381.537 713.178 378.971 699.746 367.552C686.264 356.091 680.161 336.59 691.577 317.694C708.347 289.934 697.398 253.446 667.792 239.886C629.003 222.119 647.151 163.612 689.185 170.916L698.888 172.602C729.401 177.903 758.297 156.937 763.397 126.586C771.106 80.7001 838.151 81.5796 844.654 127.652C848.956 158.126 877.292 179.843 907.933 175.344Z" stroke="url(#paint0_linear_4_83)" stroke-width="18"/>
<path d="M775.937 175.814C781.217 144.028 827.512 144.635 831.957 176.548V176.548C834 191.216 847.64 201.592 862.288 199.412L867.146 198.689C897.238 194.212 909.21 236.2 881.282 248.266V248.266C867.121 254.383 861.432 271.521 868.988 284.969V284.969C884.167 311.984 849.422 339.623 827.258 317.969L821.452 312.295C810.784 301.872 793.815 301.65 782.878 311.789L776.924 317.308C754.2 338.374 720.192 309.833 736.074 283.226V283.226C743.981 269.98 738.743 252.699 724.747 246.212V246.212C697.145 233.418 710.215 191.758 740.179 197.024L745.017 197.874C759.602 200.437 773.51 190.422 775.937 175.814V175.814Z" fill="url(#paint1_linear_4_83)"/>
<path d="M1237.38 702.708L1239.13 712.398C1246.74 754.378 1188.37 772.949 1170.32 734.29C1156.54 704.783 1119.98 694.098 1092.34 711.069C1073.53 722.621 1053.98 716.659 1042.42 703.261C1030.91 689.912 1028.2 670.26 1042.87 654.005L1053.81 641.888C1074.48 618.99 1073.76 583.966 1052.18 561.928L1040.76 550.266C1025.44 534.622 1027.35 514.876 1038.31 501.069C1049.31 487.212 1068.6 480.46 1087.87 491.237C1116.17 507.069 1152.27 494.905 1164.83 464.861C1181.29 425.5 1240.37 441.68 1234.48 483.934L1233.12 493.688C1228.84 524.362 1250.77 552.54 1281.27 556.621C1327.39 562.791 1328.75 629.827 1282.92 637.868C1252.61 643.187 1231.85 672.234 1237.38 702.708Z" stroke="url(#paint2_linear_4_83)" stroke-width="18"/>
<path d="M1232.49 570.801C1264.43 575.015 1265.38 621.304 1233.63 626.815V626.815C1219.04 629.348 1209.13 643.327 1211.79 657.893L1212.68 662.725C1218.16 692.65 1176.6 706.021 1163.6 678.512V678.512C1157.01 664.564 1139.7 659.451 1126.51 667.453V667.453C1100.02 683.527 1071.23 649.727 1092.13 626.851L1097.61 620.858C1107.67 609.847 1107.32 592.881 1096.82 582.289L1091.11 576.523C1069.29 554.516 1096.68 519.573 1123.8 534.556V534.556C1137.31 542.015 1154.4 536.201 1160.42 521.996V521.996C1172.28 493.982 1214.35 505.65 1210.09 535.773L1209.41 540.637C1207.33 555.3 1217.81 568.864 1232.49 570.801V570.801Z" fill="url(#paint3_linear_4_83)"/>
<path d="M371.853 495.258L370.348 485.526C363.825 443.364 422.658 426.304 439.702 465.415C452.712 495.268 488.99 506.892 517.056 490.639C536.161 479.576 555.545 486.039 566.754 499.731C577.922 513.372 580.123 533.087 565.038 548.959L553.792 560.79C532.542 583.148 532.352 618.178 553.358 640.765L564.475 652.718C579.387 668.752 576.972 688.442 565.657 701.962C554.3 715.531 534.846 721.783 515.863 710.513C487.975 693.957 451.573 705.186 438.24 734.896C420.772 773.82 362.127 756.123 369.108 714.034L370.719 704.319C375.786 673.766 354.598 645.032 324.208 640.166C278.265 632.809 278.628 565.76 324.649 558.903C355.09 554.367 376.588 525.864 371.853 495.258Z" stroke="url(#paint4_linear_4_83)" stroke-width="18"/>
<path d="M373.338 627.247C341.513 622.211 341.764 575.913 373.642 571.223V571.223C388.293 569.067 398.564 555.348 396.272 540.718L395.512 535.864C390.803 505.808 432.698 493.513 444.978 521.348V521.348C451.204 535.461 468.385 541.019 481.775 533.359V533.359C508.672 517.973 536.578 552.504 515.094 574.834L509.465 580.684C499.125 591.432 499.033 608.401 509.256 619.261L514.821 625.172C536.061 647.733 507.782 681.959 481.054 666.282V666.282C467.748 658.478 450.508 663.849 444.128 677.894V677.894C431.547 705.593 389.788 692.845 394.823 662.841L395.636 657.997C398.086 643.392 387.965 629.562 373.338 627.247V627.247Z" fill="url(#paint5_linear_4_83)"/>
<path d="M683.615 1020.21L673.821 1021.24C631.392 1025.71 617.21 966.115 657.102 950.991C687.552 939.446 700.924 903.776 686.054 874.953C675.931 855.334 683.328 836.286 697.548 825.755C711.716 815.263 731.515 814.023 746.635 829.861L757.906 841.668C779.205 863.979 814.185 865.87 837.765 845.986L850.244 835.463C866.984 821.347 886.533 824.715 899.487 836.673C912.489 848.676 917.789 868.41 905.611 886.824C887.719 913.875 897.167 950.78 926.195 965.539C964.224 984.877 943.7 1042.59 901.999 1033.58L892.374 1031.5C862.103 1024.95 832.374 1044.72 826.038 1074.84C816.458 1120.37 749.506 1116.75 744.892 1070.45C741.84 1039.82 714.415 1016.97 683.615 1020.21Z" stroke="url(#paint6_linear_4_83)" stroke-width="18"/>
<path d="M815.521 1025.14C808.945 1056.68 762.714 1054.18 759.577 1022.11V1022.11C758.136 1007.37 744.931 996.448 730.207 998.027L725.323 998.551C695.073 1001.79 684.828 959.351 713.226 948.438V948.438C727.625 942.904 734.01 926.013 727.01 912.267V912.267C712.949 884.655 748.794 858.459 770.054 881.002L775.624 886.908C785.857 897.759 802.802 898.675 814.145 888.991L820.319 883.72C843.886 863.6 876.698 893.508 859.741 919.444V919.444C851.3 932.355 855.827 949.836 869.546 956.889V956.889C896.601 970.801 881.84 1011.89 852.116 1005.41L847.317 1004.36C832.848 1001.2 818.543 1010.64 815.521 1025.14V1025.14Z" fill="url(#paint7_linear_4_83)"/>
<defs>
<linearGradient id="paint0_linear_4_83" x1="802" y1="5.49999" x2="796.5" y2="469" gradientUnits="userSpaceOnUse">
<stop stop-color="#F04722" stop-opacity="0"/>
<stop offset="0.28143" stop-color="#FF2E00" stop-opacity="0.39"/>
<stop offset="1" stop-color="#FF5C00"/>
</linearGradient>
<linearGradient id="paint1_linear_4_83" x1="803" y1="127" x2="803" y2="382" gradientUnits="userSpaceOnUse">
<stop stop-color="#00FFE0"/>
<stop offset="1" stop-color="#22F0D7" stop-opacity="0"/>
</linearGradient>
<linearGradient id="paint2_linear_4_83" x1="1403.58" y1="591.15" x2="940.155" y2="601.164" gradientUnits="userSpaceOnUse">
<stop stop-color="#F04722" stop-opacity="0"/>
<stop offset="0.28143" stop-color="#FF2E00" stop-opacity="0.39"/>
<stop offset="1" stop-color="#FF5C00"/>
</linearGradient>
<linearGradient id="paint3_linear_4_83" x1="1282.18" y1="596.216" x2="1027.32" y2="604.749" gradientUnits="userSpaceOnUse">
<stop stop-color="#00FFE0"/>
<stop offset="1" stop-color="#22F0D7" stop-opacity="0"/>
</linearGradient>
<linearGradient id="paint4_linear_4_83" x1="202.829" y1="602.495" x2="666.358" y2="604.43" gradientUnits="userSpaceOnUse">
<stop stop-color="#F04722" stop-opacity="0"/>
<stop offset="0.28143" stop-color="#FF2E00" stop-opacity="0.39"/>
<stop offset="1" stop-color="#FF5C00"/>
</linearGradient>
<linearGradient id="paint5_linear_4_83" x1="324.318" y1="600.56" x2="579.31" y2="598.599" gradientUnits="userSpaceOnUse">
<stop stop-color="#00FFE0"/>
<stop offset="1" stop-color="#22F0D7" stop-opacity="0"/>
</linearGradient>
<linearGradient id="paint6_linear_4_83" x1="782.516" y1="1194.24" x2="806.961" y2="731.354" gradientUnits="userSpaceOnUse">
<stop stop-color="#F04722" stop-opacity="0"/>
<stop offset="0.28143" stop-color="#FF2E00" stop-opacity="0.39"/>
<stop offset="1" stop-color="#FF5C00"/>
</linearGradient>
<linearGradient id="paint7_linear_4_83" x1="786.484" y1="1072.8" x2="796.91" y2="818.016" gradientUnits="userSpaceOnUse">
<stop stop-color="#00FFE0"/>
<stop offset="1" stop-color="#22F0D7" stop-opacity="0"/>
</linearGradient>
</defs>
</svg>
