<svg width="494" height="485" viewBox="0 0 494 485" fill="none" xmlns="http://www.w3.org/2000/svg">
<path d="M276.639 62.2205L284.596 74.2903C296.915 92.978 319.408 102.233 341.312 97.6276L355.565 94.6308C380.762 89.3327 403.042 111.781 397.554 136.937L395.029 148.514C390.155 170.856 399.747 193.865 419.047 206.129L429.133 212.537C451.081 226.484 451.081 258.516 429.133 272.463L419.047 278.871C399.747 291.135 390.155 314.144 395.029 336.486L397.554 348.063C403.042 373.219 380.762 395.667 355.565 390.369L341.312 387.372C319.408 382.767 296.915 392.022 284.596 410.71L276.639 422.779C262.61 444.061 231.39 444.061 217.361 422.78L209.404 410.71C197.085 392.022 174.592 382.767 152.688 387.372L138.435 390.369C113.238 395.667 90.9581 373.219 96.4458 348.063L98.9712 336.486C103.845 314.144 94.253 291.135 74.9525 278.871L64.8669 272.463C42.9191 258.516 42.9191 226.484 64.8669 212.537L74.9525 206.129C94.253 193.865 103.845 170.856 98.9712 148.514L96.4458 136.937C90.9582 111.781 113.238 89.3327 138.435 94.6308L152.688 97.6276C174.592 102.233 197.085 92.978 209.404 74.2904L217.361 62.2205C231.39 40.9392 262.61 40.9392 276.639 62.2205Z" stroke="url(#paint0_radial_3_7)" stroke-width="19"/>
<path d="M312.039 150.621L313.524 150.31C330.166 146.823 344.874 161.663 341.237 178.281C337.423 195.705 344.913 213.66 359.985 223.204C374.511 232.404 374.511 253.596 359.985 262.796C344.913 272.34 337.423 290.295 341.237 307.719C344.874 324.337 330.166 339.177 313.524 335.69L312.039 335.379C294.615 331.728 276.726 339.085 266.906 353.93C257.236 368.55 235.764 368.55 226.094 353.93C216.274 339.085 198.385 331.728 180.961 335.379L179.476 335.69C162.834 339.177 148.126 324.337 151.763 307.719C155.577 290.295 148.087 272.34 133.015 262.796C118.489 253.596 118.489 232.404 133.015 223.204C148.087 213.66 155.577 195.705 151.763 178.281C148.126 161.663 162.834 146.823 179.476 150.31L180.961 150.621C198.385 154.272 216.274 146.915 226.094 132.07C235.764 117.45 257.236 117.45 266.906 132.07C276.726 146.915 294.615 154.272 312.039 150.621Z" stroke="url(#paint1_radial_3_7)" stroke-width="19"/>
<path d="M278.006 204.974L278.642 204.841C282.783 203.971 286.45 207.664 285.545 211.805C283.319 221.992 287.695 232.488 296.503 238.076C300.113 240.366 300.113 245.634 296.503 247.924C287.695 253.512 283.319 264.008 285.545 274.195C286.45 278.336 282.783 282.029 278.642 281.159L278.006 281.026C267.861 278.896 257.447 283.183 251.737 291.83C249.257 295.584 243.743 295.584 241.263 291.83C235.553 283.183 225.139 278.896 214.994 281.026L214.358 281.159C210.217 282.029 206.55 278.336 207.455 274.195C209.681 264.008 205.305 253.512 196.497 247.924C192.887 245.634 192.887 240.366 196.497 238.076C205.305 232.488 209.681 221.992 207.455 211.805C206.55 207.664 210.217 203.971 214.358 204.841L214.994 204.974C225.139 207.104 235.553 202.817 241.263 194.17C243.743 190.416 249.257 190.416 251.737 194.17C257.447 202.817 267.861 207.104 278.006 204.974Z" stroke="url(#paint2_radial_3_7)" stroke-width="19"/>
<path d="M278.006 204.974L278.642 204.841C282.783 203.971 286.45 207.664 285.545 211.805C283.319 221.992 287.695 232.488 296.503 238.076C300.113 240.366 300.113 245.634 296.503 247.924C287.695 253.512 283.319 264.008 285.545 274.195C286.45 278.336 282.783 282.029 278.642 281.159L278.006 281.026C267.861 278.896 257.447 283.183 251.737 291.83C249.257 295.584 243.743 295.584 241.263 291.83C235.553 283.183 225.139 278.896 214.994 281.026L214.358 281.159C210.217 282.029 206.55 278.336 207.455 274.195C209.681 264.008 205.305 253.512 196.497 247.924C192.887 245.634 192.887 240.366 196.497 238.076C205.305 232.488 209.681 221.992 207.455 211.805C206.55 207.664 210.217 203.971 214.358 204.841L214.994 204.974C225.139 207.104 235.553 202.817 241.263 194.17C243.743 190.416 249.257 190.416 251.737 194.17C257.447 202.817 267.861 207.104 278.006 204.974Z" stroke="black" stroke-opacity="0.2" stroke-width="19"/>
<defs>
<radialGradient id="paint0_radial_3_7" cx="0" cy="0" r="1" gradientUnits="userSpaceOnUse" gradientTransform="translate(248.25 241) rotate(90.2935) scale(244.003 248.531)">
<stop offset="0.615" stop-color="#F06C22" stop-opacity="0.12"/>
<stop offset="0.85" stop-color="#FF5C00"/>
</radialGradient>
<radialGradient id="paint1_radial_3_7" cx="0" cy="0" r="1" gradientUnits="userSpaceOnUse" gradientTransform="translate(246.5 243) rotate(90) scale(159 162.5)">
<stop offset="0.565" stop-color="#F09E22" stop-opacity="0.11"/>
<stop offset="0.86" stop-color="#FF9900"/>
</radialGradient>
<radialGradient id="paint2_radial_3_7" cx="0" cy="0" r="1" gradientUnits="userSpaceOnUse" gradientTransform="translate(246.5 243) rotate(90) scale(74 75.5)">
<stop offset="0.48" stop-color="#00FFA3" stop-opacity="0.27"/>
<stop offset="0.825" stop-color="#00FFA3"/>
</radialGradient>
</defs>
</svg>
