<svg width="1085" height="1363" viewBox="0 0 1085 1363" fill="none" xmlns="http://www.w3.org/2000/svg">
<path d="M535.02 0L578.744 144.796L677.581 30.3023L658.631 180.364L795.492 115.97L717.145 245.35L868.365 242.19L744.168 328.518L883.6 387.137L735.027 415.486L838.562 525.75L691.303 491.218L741.038 634.06L620.556 542.619L607.893 693.341L535.02 560.8L462.147 693.341L449.483 542.619L329.001 634.06L378.736 491.218L231.478 525.75L335.013 415.486L186.44 387.137L325.872 328.518L201.674 242.19L352.895 245.35L274.547 115.97L411.408 180.364L392.459 30.3023L491.296 144.796L535.02 0Z" fill="#D9D9D9"/>
<path d="M196.581 304.011L221.548 367.272L261.588 312.298L258.667 380.244L317.605 346.309L287.3 407.193L354.945 400.163L302.496 443.458L367.152 464.55L301.628 482.768L352.116 528.334L284.847 518.327L312.436 580.489L255.053 543.986L254.973 611.995L217.398 555.308L189.663 617.406L178.394 550.336L127.8 595.784L144.784 529.93L80.0783 550.87L122.38 497.617L54.7511 490.429L115.055 458.985L56.1972 424.912L124.077 420.714L84.1666 365.647L147.885 389.421L133.823 322.882L182.363 370.518L196.581 304.011Z" fill="#D9D9D9"/>
<path d="M967.977 578.375L909.685 543.343L911.334 611.332L872.33 555.619L846.183 618.401L833.212 551.64L783.789 598.359L799.094 532.094L734.942 554.672L775.876 500.361L708.086 494.895L767.572 461.928L707.867 429.362L775.618 423.44L734.32 369.405L798.623 391.552L782.874 325.391L832.609 371.778L845.131 304.932L871.699 367.537L910.328 311.563L909.135 379.562L967.191 344.139L938.444 405.774L1005.89 397.027L954.557 441.641L1019.73 461.082L954.689 480.961L1006.32 525.229L938.817 516.935L967.977 578.375Z" fill="#D9D9D9"/>
<path d="M697.516 980.853L728.804 920.468L661.054 926.399L714.198 883.961L649.893 861.824L715.704 844.67L665.962 798.291L733.06 809.388L706.483 746.787L763.266 784.216L764.449 716.217L801.099 773.506L829.837 711.866L840.018 779.11L891.342 734.488L873.292 800.059L938.329 780.171L895.169 832.731L962.672 841.015L901.866 871.476L960.164 906.5L892.225 909.596L931.237 965.304L867.912 940.498L880.893 1007.26L833.133 958.84L817.838 1025.11L793.899 961.45L752.973 1015.77L756.996 947.877L697.516 980.853Z" fill="#D9D9D9"/>
<path d="M51.392 761.464L119.35 764.11L85.1753 705.31L146.182 735.368L138.878 667.752L182.385 720.024L203.214 655.283L221.699 720.732L267.06 670.06L257.325 737.37L319.375 709.528L283.105 767.059L351.114 766.863L294.58 804.667L356.79 832.15L289.767 843.692L335.42 894.101L269.497 877.384L290.699 942.004L237.275 899.919L230.361 967.577L198.673 907.4L164.839 966.396L160.366 898.534L105.461 938.668L128.977 874.853L62.4946 889.185L109.933 840.453L43.3693 826.505L106.528 801.28L51.392 761.464Z" fill="#D9D9D9"/>
<path d="M364.941 513.429L495.349 626.097L565.01 462.368L615.754 626.056L759.186 513.295L716.67 684.143L895.441 652.565L771.057 784.795L937.265 842.86L764.341 901.04L873.451 1033.19L698.322 1001.73L721.098 1172.56L590.69 1059.89L521.03 1223.62L470.285 1059.93L326.853 1172.69L369.369 1001.84L190.598 1033.42L314.983 901.193L148.775 843.128L321.699 784.947L212.588 652.797L387.718 684.255L364.941 513.429Z" fill="#D9D9D9"/>
<mask id="path-7-outside-1_1_36" maskUnits="userSpaceOnUse" x="151.52" y="266" width="768" height="760" fill="black">
<rect fill="white" x="151.52" y="266" width="768" height="760"/>
<path d="M529.327 483.748C531.953 478.767 539.087 478.767 541.712 483.748L578.906 554.313C580.341 557.035 583.385 558.501 586.407 557.925L664.767 543.008C670.298 541.955 674.746 547.533 672.489 552.691L640.509 625.767C639.276 628.586 640.027 631.88 642.362 633.884L702.881 685.847C707.153 689.516 705.566 696.47 700.125 697.922L623.053 718.481C620.08 719.274 617.974 721.916 617.862 724.99L614.968 804.705C614.764 810.332 608.337 813.427 603.81 810.078L539.683 762.64C537.209 760.81 533.83 760.81 531.357 762.64L467.23 810.078C462.703 813.427 456.275 810.332 456.071 804.705L453.177 724.99C453.066 721.916 450.959 719.274 447.986 718.481L370.915 697.922C365.474 696.47 363.887 689.516 368.159 685.847L428.678 633.884C431.012 631.88 431.764 628.586 430.53 625.767L398.551 552.691C396.293 547.533 400.741 541.955 406.273 543.008L484.632 557.925C487.655 558.501 490.699 557.035 492.133 554.313L529.327 483.748Z"/>
</mask>
<path d="M529.327 483.748C531.953 478.767 539.087 478.767 541.712 483.748L578.906 554.313C580.341 557.035 583.385 558.501 586.407 557.925L664.767 543.008C670.298 541.955 674.746 547.533 672.489 552.691L640.509 625.767C639.276 628.586 640.027 631.88 642.362 633.884L702.881 685.847C707.153 689.516 705.566 696.47 700.125 697.922L623.053 718.481C620.08 719.274 617.974 721.916 617.862 724.99L614.968 804.705C614.764 810.332 608.337 813.427 603.81 810.078L539.683 762.64C537.209 760.81 533.83 760.81 531.357 762.64L467.23 810.078C462.703 813.427 456.275 810.332 456.071 804.705L453.177 724.99C453.066 721.916 450.959 719.274 447.986 718.481L370.915 697.922C365.474 696.47 363.887 689.516 368.159 685.847L428.678 633.884C431.012 631.88 431.764 628.586 430.53 625.767L398.551 552.691C396.293 547.533 400.741 541.955 406.273 543.008L484.632 557.925C487.655 558.501 490.699 557.035 492.133 554.313L529.327 483.748Z" fill="url(#paint0_linear_1_36)"/>
<path d="M430.53 625.767L626.579 539.971L430.53 625.767ZM370.915 697.922L426.071 491.152L370.915 697.922ZM368.159 685.847L507.567 848.209L368.159 685.847ZM453.177 724.99L239.318 732.754L453.177 724.99ZM447.986 718.481L503.143 511.711L447.986 718.481ZM467.23 810.078L594.499 982.12L467.23 810.078ZM456.071 804.705L242.212 812.468L456.071 804.705ZM539.683 762.64L412.413 934.682L539.683 762.64ZM531.357 762.64L658.626 934.682L531.357 762.64ZM603.81 810.078L731.079 638.036L603.81 810.078ZM623.053 718.481L567.896 511.711L623.053 718.481ZM617.862 724.99L404.003 717.227L617.862 724.99ZM700.125 697.922L755.282 904.692L700.125 697.922ZM640.509 625.767L444.46 539.971L640.509 625.767ZM642.362 633.884L502.953 796.246L642.362 633.884ZM664.767 543.008L704.786 753.233L664.767 543.008ZM672.489 552.691L868.537 638.487L672.489 552.691ZM578.906 554.313L389.594 654.097L578.906 554.313ZM529.327 483.748L340.015 383.964L529.327 483.748ZM352.4 583.533L389.594 654.097L768.218 454.528L731.024 383.964L352.4 583.533ZM626.427 768.15L704.786 753.233L624.747 332.784L546.388 347.701L626.427 768.15ZM476.44 466.896L444.46 539.971L836.558 711.562L868.537 638.487L476.44 466.896ZM502.953 796.246L563.472 848.209L842.289 523.486L781.77 471.523L502.953 796.246ZM644.968 491.152L567.896 511.711L678.21 925.251L755.282 904.692L644.968 491.152ZM404.003 717.227L401.109 796.941L828.827 812.468L831.721 732.754L404.003 717.227ZM731.079 638.036L666.952 590.598L412.413 934.682L476.54 982.12L731.079 638.036ZM404.087 590.598L339.96 638.036L594.499 982.12L658.626 934.682L404.087 590.598ZM669.93 796.941L667.037 717.227L239.318 732.754L242.212 812.468L669.93 796.941ZM503.143 511.711L426.071 491.152L315.758 904.692L392.83 925.251L503.143 511.711ZM507.567 848.209L568.086 796.246L289.269 471.523L228.75 523.486L507.567 848.209ZM626.579 539.971L594.599 466.896L202.502 638.487L234.482 711.562L626.579 539.971ZM366.253 753.233L444.612 768.15L524.652 347.701L446.292 332.784L366.253 753.233ZM681.446 654.097L718.639 583.533L340.015 383.964L302.821 454.528L681.446 654.097ZM444.612 768.15C540.043 786.317 636.148 740.035 681.446 654.097L302.821 454.528C345.249 374.034 435.266 330.685 524.652 347.701L444.612 768.15ZM594.599 466.896C661.358 619.443 529.832 784.373 366.253 753.233L446.292 332.784C271.65 299.538 131.228 475.622 202.502 638.487L594.599 466.896ZM568.086 796.246C641.79 732.961 665.526 628.967 626.579 539.971L234.482 711.562C198.002 628.204 220.234 530.798 289.269 471.523L568.086 796.246ZM426.071 491.152C586.961 534.07 633.903 739.733 507.567 848.209L228.75 523.486C93.8699 639.298 143.987 858.871 315.758 904.692L426.071 491.152ZM667.037 717.227C663.512 620.146 597.006 536.75 503.143 511.711L392.83 925.251C304.913 901.798 242.619 823.685 239.318 732.754L667.037 717.227ZM339.96 638.036C473.828 539.006 663.89 630.534 669.93 796.941L242.212 812.468C248.661 990.129 451.577 1087.85 594.499 982.12L339.96 638.036ZM666.952 590.598C588.854 532.824 482.186 532.824 404.087 590.598L658.626 934.682C585.475 988.796 485.564 988.796 412.413 934.682L666.952 590.598ZM401.109 796.941C407.15 630.535 597.211 539.006 731.079 638.036L476.54 982.12C619.463 1087.85 822.378 990.128 828.827 812.468L401.109 796.941ZM567.896 511.711C474.034 536.749 407.527 620.146 404.003 717.227L831.721 732.754C828.42 823.685 766.127 901.799 678.21 925.251L567.896 511.711ZM563.472 848.209C437.137 739.734 484.078 534.07 644.968 491.152L755.282 904.692C927.053 858.871 977.169 639.298 842.289 523.486L563.472 848.209ZM444.46 539.971C405.514 628.967 429.249 732.961 502.953 796.246L781.77 471.523C850.805 530.798 873.037 628.204 836.558 711.562L444.46 539.971ZM704.786 753.233C541.208 784.373 409.681 619.444 476.44 466.896L868.537 638.487C939.811 475.621 799.389 299.538 624.747 332.784L704.786 753.233ZM389.594 654.097C434.891 740.035 530.996 786.317 626.427 768.15L546.388 347.701C635.774 330.685 725.791 374.035 768.218 454.528L389.594 654.097ZM731.024 383.964C648.129 226.695 422.91 226.696 340.015 383.964L718.639 583.533C640.996 730.839 430.044 730.839 352.4 583.533L731.024 383.964Z" fill="url(#paint1_angular_1_36)" mask="url(#path-7-outside-1_1_36)"/>
<path d="M597.743 564.047L574.472 644.93L655.166 668.846L573.484 689.134L593.119 770.975L534.708 710.38L473.649 768.306L496.92 687.423L416.226 663.507L497.908 643.219L478.273 561.377L536.684 621.972L597.743 564.047Z" fill="url(#paint2_diamond_1_36)"/>
<g style="mix-blend-mode:color-dodge">
<path d="M534.02 631L538.354 663.257L567.362 682.75L534.02 669.985L500.678 682.75L529.685 663.257L534.02 631Z" fill="url(#paint3_linear_1_36)"/>
</g>
<path d="M317.063 764.519L357.301 816.107L385.036 756.852L382.7 822.235L442.035 794.671L398.218 843.255L461.389 860.28L396.594 869.333L434.042 922.98L378.587 888.265L372.791 953.433L352.624 891.194L306.295 937.389L330.852 876.748L265.669 882.356L323.46 851.688L269.921 814.085L333.905 827.739L317.063 764.519Z" fill="url(#paint4_linear_1_36)"/>
<path d="M360.512 351.428L414.936 387.738L422.622 322.767L440.973 385.565L488.624 340.735L462.316 400.637L527.635 396.924L468.978 425.901L521.401 465.044L457.841 449.537L472.839 513.219L434.117 460.484L404.672 518.909L408.906 453.621L348.796 479.45L394.006 432.159L331.356 413.307L396.387 406.139L360.512 351.428Z" fill="url(#paint5_linear_1_36)"/>
<path d="M755.063 619.519L795.301 671.107L823.036 611.852L820.7 677.235L880.035 649.671L836.218 698.255L899.389 715.28L834.594 724.333L872.042 777.98L816.587 743.265L810.791 808.433L790.624 746.194L744.295 792.389L768.852 731.748L703.669 737.356L761.46 706.688L707.921 669.085L771.905 682.739L755.063 619.519Z" fill="url(#paint6_linear_1_36)"/>
<path d="M351.743 524.047L328.472 604.93L409.166 628.846L327.484 649.134L347.119 730.975L288.708 670.38L227.649 728.306L250.92 647.423L170.226 623.507L251.908 603.219L232.273 521.377L290.684 581.972L351.743 524.047Z" fill="url(#paint7_radial_1_36)"/>
<path d="M753.688 814.141L692.855 872.304L750.53 933.599L669.743 909.998L645.497 990.594L625.543 908.829L543.622 928.13L604.456 869.967L546.78 808.671L627.567 832.273L651.813 751.677L671.767 833.442L753.688 814.141Z" fill="url(#paint8_radial_1_36)"/>
<path d="M779.883 377.061L777.191 461.182L861.288 464.546L787.091 504.275L826.227 578.786L754.722 534.395L709.76 605.543L712.453 521.422L628.356 518.058L702.553 478.329L663.417 403.818L734.922 448.21L779.883 377.061Z" fill="url(#paint9_radial_1_36)"/>
<defs>
<linearGradient id="paint0_linear_1_36" x1="535.52" y1="472" x2="535.52" y2="836" gradientUnits="userSpaceOnUse">
<stop offset="0.46978" stop-color="#EC2C2C"/>
<stop offset="1" stop-color="#A35757" stop-opacity="0"/>
</linearGradient>
<radialGradient id="paint1_angular_1_36" cx="0" cy="0" r="1" gradientUnits="userSpaceOnUse" gradientTransform="translate(535.52 654) rotate(90) scale(182)">
<stop offset="0.05" stop-color="#DBBABA"/>
<stop offset="0.235" stop-color="white"/>
<stop offset="0.42" stop-color="#DBBABA"/>
<stop offset="0.625" stop-color="white"/>
<stop offset="0.805" stop-color="#DBBABA"/>
<stop offset="1" stop-color="white" stop-opacity="0"/>
</radialGradient>
<radialGradient id="paint2_diamond_1_36" cx="0" cy="0" r="1" gradientUnits="userSpaceOnUse" gradientTransform="translate(535.696 666.176) rotate(15.2454) scale(212.295)">
<stop stop-color="#FFE2E2"/>
<stop offset="0.145" stop-color="#F7B5B5" stop-opacity="0.928321"/>
<stop offset="0.9998" stop-color="#F92727"/>
<stop offset="0.9999" stop-color="#FEDFDF" stop-opacity="0.0705741"/>
<stop offset="1" stop-color="#FFE2E2" stop-opacity="0"/>
</radialGradient>
<linearGradient id="paint3_linear_1_36" x1="534.02" y1="631" x2="534.02" y2="700" gradientUnits="userSpaceOnUse">
<stop stop-color="#F1A9A9"/>
<stop offset="1" stop-color="#CA5555" stop-opacity="0"/>
</linearGradient>
<linearGradient id="paint4_linear_1_36" x1="317.063" y1="764.519" x2="406.101" y2="943.606" gradientUnits="userSpaceOnUse">
<stop stop-color="#DFD0D0" stop-opacity="0.155"/>
<stop offset="0.545" stop-color="#FF9E9E"/>
<stop offset="1" stop-color="#FFFCFC" stop-opacity="0"/>
</linearGradient>
<linearGradient id="paint5_linear_1_36" x1="360.512" y1="351.428" x2="501.368" y2="493.413" gradientUnits="userSpaceOnUse">
<stop stop-color="#DFD0D0" stop-opacity="0.155"/>
<stop offset="0.545" stop-color="#FF9E9E"/>
<stop offset="1" stop-color="#FFFCFC" stop-opacity="0"/>
</linearGradient>
<linearGradient id="paint6_linear_1_36" x1="755.063" y1="619.519" x2="844.101" y2="798.606" gradientUnits="userSpaceOnUse">
<stop stop-color="#DFD0D0" stop-opacity="0.155"/>
<stop offset="0.545" stop-color="#FF9E9E"/>
<stop offset="1" stop-color="#FFFCFC" stop-opacity="0"/>
</linearGradient>
<radialGradient id="paint7_radial_1_36" cx="0" cy="0" r="1" gradientUnits="userSpaceOnUse" gradientTransform="translate(289.696 626.176) rotate(121.28) scale(119.5)">
<stop stop-color="#D9D9D9" stop-opacity="0"/>
<stop offset="0.765" stop-color="#D9D9D9"/>
</radialGradient>
<radialGradient id="paint8_radial_1_36" cx="0" cy="0" r="1" gradientUnits="userSpaceOnUse" gradientTransform="translate(648.655 871.135) rotate(149.83) scale(75.3416)">
<stop offset="0.214904" stop-color="#D9D9D9" stop-opacity="0"/>
<stop offset="1" stop-color="#D9D9D9"/>
</radialGradient>
<radialGradient id="paint9_radial_1_36" cx="0" cy="0" r="1" gradientUnits="userSpaceOnUse" gradientTransform="translate(744.822 491.302) rotate(107.062) scale(119.5)">
<stop offset="0.0232856" stop-color="#D9D9D9" stop-opacity="0"/>
<stop offset="0.950233" stop-color="#D9D9D9"/>
</radialGradient>
</defs>
</svg>
