<svg width="2005" height="2212" viewBox="0 0 2005 2212" fill="none" xmlns="http://www.w3.org/2000/svg">
<path d="M325.867 732.999L403.151 834.326L510.602 898.315L465.863 1019.42L466.932 1149.34L344.909 1169.12L238.527 1235.06L161.243 1133.73L53.7915 1069.74L98.5312 948.64L97.4615 818.712L219.485 798.938L325.867 732.999Z" fill="url(#paint0_linear_1_37)" fill-opacity="0.54"/>
<path d="M325.867 732.999L403.151 834.326L510.602 898.315L465.863 1019.42L466.932 1149.34L344.909 1169.12L238.527 1235.06L161.243 1133.73L53.7915 1069.74L98.5312 948.64L97.4615 818.712L219.485 798.938L325.867 732.999Z" stroke="url(#paint1_angular_1_37)"/>
<path d="M1053.46 8.22987L1144.17 96.3773L1259.45 142.892L1232.27 269.636L1251.64 397.961L1133.75 436.558L1037.84 518.368L947.131 430.221L831.85 383.706L859.029 256.962L839.661 128.637L957.548 90.0403L1053.46 8.22987Z" fill="url(#paint2_linear_1_37)" fill-opacity="0.54"/>
<path d="M1053.46 8.22987L1144.17 96.3773L1259.45 142.892L1232.27 269.636L1251.64 397.961L1133.75 436.558L1037.84 518.368L947.131 430.221L831.85 383.706L859.029 256.962L839.661 128.637L957.548 90.0403L1053.46 8.22987Z" stroke="url(#paint3_angular_1_37)"/>
<path d="M1554.39 214.308L1645.1 302.454L1760.38 348.966L1733.2 475.711L1752.57 604.035L1634.68 642.634L1538.76 724.447L1448.06 636.301L1332.78 589.789L1359.96 463.044L1340.59 334.72L1458.48 296.121L1554.39 214.308Z" fill="url(#paint4_linear_1_37)" fill-opacity="0.54"/>
<path d="M1554.39 214.308L1645.1 302.454L1760.38 348.966L1733.2 475.711L1752.57 604.035L1634.68 642.634L1538.76 724.447L1448.06 636.301L1332.78 589.789L1359.96 463.044L1340.59 334.72L1458.48 296.121L1554.39 214.308Z" stroke="url(#paint5_angular_1_37)"/>
<path d="M503.153 155.416L593.86 243.561L709.14 290.073L681.959 416.818L701.324 545.142L583.436 583.741L487.522 665.554L396.815 577.408L281.535 530.896L308.716 404.151L289.35 275.827L407.238 237.228L503.153 155.416Z" fill="url(#paint6_linear_1_37)" fill-opacity="0.54"/>
<path d="M503.153 155.416L593.86 243.561L709.14 290.073L681.959 416.818L701.324 545.142L583.436 583.741L487.522 665.554L396.815 577.408L281.535 530.896L308.716 404.151L289.35 275.827L407.238 237.228L503.153 155.416Z" stroke="url(#paint7_angular_1_37)"/>
<path d="M1013.45 1693.64L1104.16 1781.78L1219.44 1828.29L1192.26 1955.04L1211.62 2083.36L1093.73 2121.96L997.82 2203.78L907.113 2115.63L791.833 2069.12L819.014 1942.37L799.648 1814.05L917.536 1775.45L1013.45 1693.64Z" fill="url(#paint8_linear_1_37)" fill-opacity="0.54"/>
<path d="M1013.45 1693.64L1104.16 1781.78L1219.44 1828.29L1192.26 1955.04L1211.62 2083.36L1093.73 2121.96L997.82 2203.78L907.113 2115.63L791.833 2069.12L819.014 1942.37L799.648 1814.05L917.536 1775.45L1013.45 1693.64Z" stroke="url(#paint9_angular_1_37)"/>
<path d="M1464.34 1445.88L1579.69 1492.22L1703.13 1490.3L1722.67 1618.6L1785.97 1730.15L1690.17 1812.1L1630.02 1925.58L1514.68 1879.23L1391.23 1881.15L1371.7 1752.86L1308.39 1641.31L1404.2 1559.35L1464.34 1445.88Z" fill="url(#paint10_linear_1_37)" fill-opacity="0.54"/>
<path d="M1464.34 1445.88L1579.69 1492.22L1703.13 1490.3L1722.67 1618.6L1785.97 1730.15L1690.17 1812.1L1630.02 1925.58L1514.68 1879.23L1391.23 1881.15L1371.7 1752.86L1308.39 1641.31L1404.2 1559.35L1464.34 1445.88Z" stroke="url(#paint11_angular_1_37)"/>
<path d="M263.97 1424.57L387.402 1427.41L503.052 1381.93L562.431 1495.85L657.682 1578.52L593.628 1689.59L573.23 1817.74L449.798 1814.9L334.147 1860.38L274.769 1746.46L179.517 1663.8L243.571 1552.72L263.97 1424.57Z" fill="url(#paint12_linear_1_37)" fill-opacity="0.54"/>
<path d="M263.97 1424.57L387.402 1427.41L503.052 1381.93L562.431 1495.85L657.682 1578.52L593.628 1689.59L573.23 1817.74L449.798 1814.9L334.147 1860.38L274.769 1746.46L179.517 1663.8L243.571 1552.72L263.97 1424.57Z" stroke="url(#paint13_angular_1_37)"/>
<path d="M1696.33 748.385L1800.18 818.652L1921.38 843.435L1915.48 973.219L1955.69 1096.07L1845.94 1155.59L1764.95 1253.65L1661.1 1183.39L1539.9 1158.6L1545.8 1028.82L1505.6 905.969L1615.34 846.453L1696.33 748.385Z" fill="url(#paint14_linear_1_37)" fill-opacity="0.54"/>
<path d="M1696.33 748.385L1800.18 818.652L1921.38 843.435L1915.48 973.219L1955.69 1096.07L1845.94 1155.59L1764.95 1253.65L1661.1 1183.39L1539.9 1158.6L1545.8 1028.82L1505.6 905.969L1615.34 846.453L1696.33 748.385Z" stroke="url(#paint15_angular_1_37)"/>
<path d="M875.018 1856.19L981.579 1892.95L1017.35 1781.1L1040.39 1896.59L1150.31 1873.27L1066.79 1952.02L1140.94 2040.55L1034.38 2003.79L998.61 2115.64L975.574 2000.14L865.647 2023.47L949.172 1944.72L875.018 1856.19Z" fill="url(#paint16_diamond_1_37)"/>
<path d="M1390.2 1658.55L1502.09 1650.74L1495.56 1532.92L1557.94 1631L1651.62 1566.14L1602.1 1672.02L1702.32 1724.98L1590.43 1732.79L1596.96 1850.61L1534.58 1752.53L1440.9 1817.39L1490.41 1711.51L1390.2 1658.55Z" fill="url(#paint17_diamond_1_37)"/>
<path d="M1595.85 945.234L1707.65 954.311L1717.17 836.722L1765.6 943.162L1867.13 893.041L1803.76 990.404L1895.76 1057.87L1783.95 1048.8L1774.44 1166.39L1726 1059.95L1624.48 1110.07L1687.85 1012.7L1595.85 945.234Z" fill="url(#paint18_diamond_1_37)"/>
<path d="M1421.44 370.494L1529.26 402.902L1560.92 289.686L1588.16 404.166L1697.15 376.408L1616.57 458.478L1693.91 543.936L1586.08 511.528L1554.43 624.744L1527.18 510.265L1418.19 538.023L1498.77 455.952L1421.44 370.494Z" fill="url(#paint19_diamond_1_37)"/>
<path d="M364.865 331.232L472.692 363.64L504.346 250.424L531.59 364.904L640.582 337.146L560 419.217L637.338 504.675L529.511 472.266L497.857 585.482L470.613 471.003L361.621 498.761L442.203 416.69L364.865 331.232Z" fill="url(#paint20_diamond_1_37)"/>
<path d="M909.805 167.174L1017.63 199.582L1049.29 86.3661L1076.53 200.845L1185.52 173.087L1104.94 255.158L1182.28 340.616L1074.45 308.208L1042.8 421.424L1015.55 306.945L906.561 334.703L987.143 252.632L909.805 167.174Z" fill="url(#paint21_diamond_1_37)"/>
<path d="M163.483 867.981L263.748 920.83L314.763 815.734L321.407 933.542L433.397 927.491L339.776 992.45L400.751 1091.49L300.485 1038.65L249.47 1143.74L242.826 1025.93L130.836 1031.98L224.458 967.025L163.483 867.981Z" fill="url(#paint22_diamond_1_37)"/>
<path d="M481.124 1462.98L462.229 1579.31L572.61 1600.12L467.436 1641.06L505.5 1752.07L419.221 1676.69L346.905 1766.88L365.799 1650.55L255.419 1629.74L360.592 1588.8L322.529 1477.79L408.807 1553.17L481.124 1462.98Z" fill="url(#paint23_diamond_1_37)"/>
<defs>
<linearGradient id="paint0_linear_1_37" x1="325.867" y1="732.999" x2="229.468" y2="1233.31" gradientUnits="userSpaceOnUse">
<stop offset="0.46978" stop-color="#EC2C2C"/>
<stop offset="1" stop-color="#A35757" stop-opacity="0"/>
</linearGradient>
<radialGradient id="paint1_angular_1_37" cx="0" cy="0" r="1" gradientUnits="userSpaceOnUse" gradientTransform="translate(282.197 984.028) rotate(99.8686) scale(254.799 242.874)">
<stop offset="0.05" stop-color="#DBBABA"/>
<stop offset="0.235" stop-color="white"/>
<stop offset="0.42" stop-color="#DBBABA"/>
<stop offset="0.625" stop-color="white"/>
<stop offset="0.805" stop-color="#DBBABA"/>
<stop offset="1" stop-color="white" stop-opacity="0"/>
</radialGradient>
<linearGradient id="paint2_linear_1_37" x1="1053.46" y1="8.22987" x2="1036.14" y2="518.311" gradientUnits="userSpaceOnUse">
<stop offset="0.46978" stop-color="#EC2C2C"/>
<stop offset="1" stop-color="#A35757" stop-opacity="0"/>
</linearGradient>
<radialGradient id="paint3_angular_1_37" cx="0" cy="0" r="1" gradientUnits="userSpaceOnUse" gradientTransform="translate(1045.65 263.299) rotate(91.7539) scale(255.189 242.504)">
<stop offset="0.05" stop-color="#DBBABA"/>
<stop offset="0.235" stop-color="white"/>
<stop offset="0.42" stop-color="#DBBABA"/>
<stop offset="0.625" stop-color="white"/>
<stop offset="0.805" stop-color="#DBBABA"/>
<stop offset="1" stop-color="white" stop-opacity="0"/>
</radialGradient>
<linearGradient id="paint4_linear_1_37" x1="1554.39" y1="214.308" x2="1537.08" y2="724.39" gradientUnits="userSpaceOnUse">
<stop offset="0.46978" stop-color="#EC2C2C"/>
<stop offset="1" stop-color="#A35757" stop-opacity="0"/>
</linearGradient>
<radialGradient id="paint5_angular_1_37" cx="0" cy="0" r="1" gradientUnits="userSpaceOnUse" gradientTransform="translate(1546.58 469.377) rotate(91.755) scale(255.189 242.504)">
<stop offset="0.05" stop-color="#DBBABA"/>
<stop offset="0.235" stop-color="white"/>
<stop offset="0.42" stop-color="#DBBABA"/>
<stop offset="0.625" stop-color="white"/>
<stop offset="0.805" stop-color="#DBBABA"/>
<stop offset="1" stop-color="white" stop-opacity="0"/>
</radialGradient>
<linearGradient id="paint6_linear_1_37" x1="503.153" y1="155.416" x2="485.842" y2="665.497" gradientUnits="userSpaceOnUse">
<stop offset="0.46978" stop-color="#EC2C2C"/>
<stop offset="1" stop-color="#A35757" stop-opacity="0"/>
</linearGradient>
<radialGradient id="paint7_angular_1_37" cx="0" cy="0" r="1" gradientUnits="userSpaceOnUse" gradientTransform="translate(495.337 410.485) rotate(91.755) scale(255.189 242.504)">
<stop offset="0.05" stop-color="#DBBABA"/>
<stop offset="0.235" stop-color="white"/>
<stop offset="0.42" stop-color="#DBBABA"/>
<stop offset="0.625" stop-color="white"/>
<stop offset="0.805" stop-color="#DBBABA"/>
<stop offset="1" stop-color="white" stop-opacity="0"/>
</radialGradient>
<linearGradient id="paint8_linear_1_37" x1="1013.45" y1="1693.64" x2="996.141" y2="2203.72" gradientUnits="userSpaceOnUse">
<stop offset="0.46978" stop-color="#EC2C2C"/>
<stop offset="1" stop-color="#A35757" stop-opacity="0"/>
</linearGradient>
<radialGradient id="paint9_angular_1_37" cx="0" cy="0" r="1" gradientUnits="userSpaceOnUse" gradientTransform="translate(1005.64 1948.71) rotate(91.755) scale(255.189 242.504)">
<stop offset="0.05" stop-color="#DBBABA"/>
<stop offset="0.235" stop-color="white"/>
<stop offset="0.42" stop-color="#DBBABA"/>
<stop offset="0.625" stop-color="white"/>
<stop offset="0.805" stop-color="#DBBABA"/>
<stop offset="1" stop-color="white" stop-opacity="0"/>
</radialGradient>
<linearGradient id="paint10_linear_1_37" x1="1464.34" y1="1445.88" x2="1645.57" y2="1919.63" gradientUnits="userSpaceOnUse">
<stop offset="0.46978" stop-color="#EC2C2C"/>
<stop offset="1" stop-color="#A35757" stop-opacity="0"/>
</linearGradient>
<radialGradient id="paint11_angular_1_37" cx="0" cy="0" r="1" gradientUnits="userSpaceOnUse" gradientTransform="translate(1547.18 1685.73) rotate(70.9459) scale(253.751 243.878)">
<stop offset="0.05" stop-color="#DBBABA"/>
<stop offset="0.235" stop-color="white"/>
<stop offset="0.42" stop-color="#DBBABA"/>
<stop offset="0.625" stop-color="white"/>
<stop offset="0.805" stop-color="#DBBABA"/>
<stop offset="1" stop-color="white" stop-opacity="0"/>
</radialGradient>
<linearGradient id="paint12_linear_1_37" x1="263.97" y1="1424.57" x2="592.143" y2="1801.26" gradientUnits="userSpaceOnUse">
<stop offset="0.46978" stop-color="#EC2C2C"/>
<stop offset="1" stop-color="#A35757" stop-opacity="0"/>
</linearGradient>
<radialGradient id="paint13_angular_1_37" cx="0" cy="0" r="1" gradientUnits="userSpaceOnUse" gradientTransform="translate(418.6 1621.16) rotate(51.812) scale(250.111 247.427)">
<stop offset="0.05" stop-color="#DBBABA"/>
<stop offset="0.235" stop-color="white"/>
<stop offset="0.42" stop-color="#DBBABA"/>
<stop offset="0.625" stop-color="white"/>
<stop offset="0.805" stop-color="#DBBABA"/>
<stop offset="1" stop-color="white" stop-opacity="0"/>
</radialGradient>
<linearGradient id="paint14_linear_1_37" x1="1696.33" y1="748.385" x2="1772.17" y2="1252.57" gradientUnits="userSpaceOnUse">
<stop offset="0.46978" stop-color="#EC2C2C"/>
<stop offset="1" stop-color="#A35757" stop-opacity="0"/>
</linearGradient>
<radialGradient id="paint15_angular_1_37" cx="0" cy="0" r="1" gradientUnits="userSpaceOnUse" gradientTransform="translate(1730.64 1001.02) rotate(82.2669) scale(254.953 242.728)">
<stop offset="0.05" stop-color="#DBBABA"/>
<stop offset="0.235" stop-color="white"/>
<stop offset="0.42" stop-color="#DBBABA"/>
<stop offset="0.625" stop-color="white"/>
<stop offset="0.805" stop-color="#DBBABA"/>
<stop offset="1" stop-color="white" stop-opacity="0"/>
</radialGradient>
<radialGradient id="paint16_diamond_1_37" cx="0" cy="0" r="1" gradientUnits="userSpaceOnUse" gradientTransform="translate(1007.98 1948.37) rotate(-73.4758) scale(296.394 284.083)">
<stop stop-color="#FFE2E2"/>
<stop offset="0.145" stop-color="#F7B5B5" stop-opacity="0.928321"/>
<stop offset="0.9998" stop-color="#F92727"/>
<stop offset="0.9999" stop-color="#FEDFDF" stop-opacity="0.0705741"/>
<stop offset="1" stop-color="#FFE2E2" stop-opacity="0"/>
</radialGradient>
<radialGradient id="paint17_diamond_1_37" cx="0" cy="0" r="1" gradientUnits="userSpaceOnUse" gradientTransform="translate(1546.26 1691.77) rotate(-94.3739) scale(297.588 282.944)">
<stop stop-color="#FFE2E2"/>
<stop offset="0.145" stop-color="#F7B5B5" stop-opacity="0.928321"/>
<stop offset="0.9998" stop-color="#F92727"/>
<stop offset="0.9999" stop-color="#FEDFDF" stop-opacity="0.0705741"/>
<stop offset="1" stop-color="#FFE2E2" stop-opacity="0"/>
</radialGradient>
<radialGradient id="paint18_diamond_1_37" cx="0" cy="0" r="1" gradientUnits="userSpaceOnUse" gradientTransform="translate(1745.8 1001.55) rotate(-86.5738) scale(297.624 282.91)">
<stop stop-color="#FFE2E2"/>
<stop offset="0.145" stop-color="#F7B5B5" stop-opacity="0.928321"/>
<stop offset="0.9998" stop-color="#F92727"/>
<stop offset="0.9999" stop-color="#FEDFDF" stop-opacity="0.0705741"/>
<stop offset="1" stop-color="#FFE2E2" stop-opacity="0"/>
</radialGradient>
<radialGradient id="paint19_diamond_1_37" cx="0" cy="0" r="1" gradientUnits="userSpaceOnUse" gradientTransform="translate(1557.67 457.215) rotate(-75.5885) scale(296.694 283.796)">
<stop stop-color="#FFE2E2"/>
<stop offset="0.145" stop-color="#F7B5B5" stop-opacity="0.928321"/>
<stop offset="0.9998" stop-color="#F92727"/>
<stop offset="0.9999" stop-color="#FEDFDF" stop-opacity="0.0705741"/>
<stop offset="1" stop-color="#FFE2E2" stop-opacity="0"/>
</radialGradient>
<radialGradient id="paint20_diamond_1_37" cx="0" cy="0" r="1" gradientUnits="userSpaceOnUse" gradientTransform="translate(501.101 417.953) rotate(-75.5885) scale(296.694 283.796)">
<stop stop-color="#FFE2E2"/>
<stop offset="0.145" stop-color="#F7B5B5" stop-opacity="0.928321"/>
<stop offset="0.9998" stop-color="#F92727"/>
<stop offset="0.9999" stop-color="#FEDFDF" stop-opacity="0.0705741"/>
<stop offset="1" stop-color="#FFE2E2" stop-opacity="0"/>
</radialGradient>
<radialGradient id="paint21_diamond_1_37" cx="0" cy="0" r="1" gradientUnits="userSpaceOnUse" gradientTransform="translate(1046.04 253.895) rotate(-75.5885) scale(296.694 283.796)">
<stop stop-color="#FFE2E2"/>
<stop offset="0.145" stop-color="#F7B5B5" stop-opacity="0.928321"/>
<stop offset="0.9998" stop-color="#F92727"/>
<stop offset="0.9999" stop-color="#FEDFDF" stop-opacity="0.0705741"/>
<stop offset="1" stop-color="#FFE2E2" stop-opacity="0"/>
</radialGradient>
<radialGradient id="paint22_diamond_1_37" cx="0" cy="0" r="1" gradientUnits="userSpaceOnUse" gradientTransform="translate(282.117 979.737) rotate(-65.331) scale(294.93 285.493)">
<stop stop-color="#FFE2E2"/>
<stop offset="0.145" stop-color="#F7B5B5" stop-opacity="0.928321"/>
<stop offset="0.9998" stop-color="#F92727"/>
<stop offset="0.9999" stop-color="#FEDFDF" stop-opacity="0.0705741"/>
<stop offset="1" stop-color="#FFE2E2" stop-opacity="0"/>
</radialGradient>
<radialGradient id="paint23_diamond_1_37" cx="0" cy="0" r="1" gradientUnits="userSpaceOnUse" gradientTransform="translate(414.014 1614.93) rotate(9.35264) scale(283.219 297.299)">
<stop stop-color="#FFE2E2"/>
<stop offset="0.145" stop-color="#F7B5B5" stop-opacity="0.928321"/>
<stop offset="0.9998" stop-color="#F92727"/>
<stop offset="0.9999" stop-color="#FEDFDF" stop-opacity="0.0705741"/>
<stop offset="1" stop-color="#FFE2E2" stop-opacity="0"/>
</radialGradient>
</defs>
</svg>
