<svg width="438" height="438" viewBox="0 0 438 438" fill="none" xmlns="http://www.w3.org/2000/svg">
<line x1="411" y1="126" x2="411" y2="310" stroke="#37CF59" stroke-width="4"/>
<rect x="396" y="191" width="39.5982" height="39.5982" rx="9" transform="rotate(45 396 191)" fill="#D9D9D9"/>
<path d="M212 4.04145C216.332 1.54059 221.668 1.54059 226 4.04145L401.66 105.459C405.991 107.959 408.66 112.581 408.66 117.583V320.417C408.66 325.419 405.991 330.041 401.66 332.541L226 433.959C221.668 436.459 216.332 436.459 212 433.959L36.3404 332.541C32.0088 330.041 29.3404 325.419 29.3404 320.417V117.583C29.3404 112.581 32.0088 107.959 36.3404 105.459L212 4.04145Z" fill="url(#paint0_linear_900_6415)"/>
<circle cx="360" cy="219" r="6" fill="#D9D9D9"/>
<circle cx="339" cy="219" r="6" fill="#D9D9D9"/>
<circle cx="318" cy="219" r="3" fill="#37CF59"/>
<defs>
<linearGradient id="paint0_linear_900_6415" x1="408" y1="219" x2="34" y2="219" gradientUnits="userSpaceOnUse">
<stop stop-color="#D9D9D9" stop-opacity="0.25"/>
<stop offset="0.557292" stop-color="#D9D9D9" stop-opacity="0"/>
</linearGradient>
</defs>
</svg>
