<svg width="1118" height="889" viewBox="0 0 1118 889" fill="none" xmlns="http://www.w3.org/2000/svg">
<path d="M558.5 235L569.021 478.498L730.446 298.87L585.141 492.303L821.936 460.594L588.795 513.452L790.162 644.5L578.274 532.05L649.99 764.536L558.5 539.395L467.01 764.536L538.726 532.05L326.838 644.5L528.205 513.452L295.064 460.594L531.859 492.303L386.554 298.87L547.979 478.498L558.5 235Z" fill="url(#paint0_linear_5_41)"/>
<path d="M558.5 235L569.021 478.498L730.446 298.87L585.141 492.303L821.936 460.594L588.795 513.452L790.162 644.5L578.274 532.05L649.99 764.536L558.5 539.395L467.01 764.536L538.726 532.05L326.838 644.5L528.205 513.452L295.064 460.594L531.859 492.303L386.554 298.87L547.979 478.498L558.5 235Z" fill="url(#paint1_linear_5_41)"/>
<path d="M559.059 887.528L532.873 774.483L447.414 695.988L558.406 729.833L669.114 695.07L584.307 774.27L559.059 887.528Z" fill="url(#paint2_linear_5_41)"/>
<path d="M560.059 795.528L533.873 682.483L448.414 603.988L559.406 637.833L670.114 603.07L585.307 682.27L560.059 795.528Z" fill="url(#paint3_linear_5_41)"/>
<path d="M249.299 750.661L313.194 653.799L311.211 537.778L363.148 641.544L464.616 697.837L348.784 690.933L249.299 750.661Z" fill="url(#paint4_linear_5_41)"/>
<path d="M316.67 688.002L380.565 591.141L378.582 475.12L430.519 578.885L531.988 635.178L416.156 628.274L316.67 688.002Z" fill="url(#paint5_linear_5_41)"/>
<path d="M866.381 749.492L765.658 691.876L649.997 701.221L750.256 642.801L799.993 537.963L800.457 654L866.381 749.492Z" fill="url(#paint6_linear_5_41)"/>
<path d="M799.571 686.235L698.849 628.618L583.188 637.963L683.447 579.543L733.184 474.706L733.648 590.742L799.571 686.235Z" fill="url(#paint7_linear_5_41)"/>
<path d="M558.059 453.528L531.873 340.483L446.414 261.988L557.406 295.833L668.114 261.07L583.307 340.27L558.059 453.528Z" fill="url(#paint8_linear_5_41)"/>
<path d="M559.059 361.528L532.873 248.483L447.414 169.988L558.406 203.833L669.114 169.07L584.307 248.27L559.059 361.528Z" fill="url(#paint9_linear_5_41)"/>
<path d="M340.961 26.0061L388.362 131.921L487.301 192.549L371.876 180.642L269.9 236.012L337.925 142.004L340.961 26.0061Z" fill="url(#paint10_linear_5_41)"/>
<path d="M357.642 116.487L405.042 222.402L503.981 283.03L388.556 271.123L286.581 326.492L354.605 232.485L357.642 116.487Z" fill="url(#paint11_linear_5_41)"/>
<path d="M89.2989 463.661L153.194 366.799L151.211 250.778L203.148 354.544L304.616 410.837L188.784 403.933L89.2989 463.661Z" fill="url(#paint12_linear_5_41)"/>
<path d="M156.67 401.002L220.565 304.141L218.582 188.12L270.519 291.885L371.988 348.178L256.156 341.274L156.67 401.002Z" fill="url(#paint13_linear_5_41)"/>
<path d="M758.955 22.6829L765.331 138.545L836.036 230.555L732.508 178.145L617.473 193.372L714.625 129.919L758.955 22.6829Z" fill="url(#paint14_linear_5_41)"/>
<path d="M742.165 113.143L748.542 229.006L819.246 321.015L715.718 268.606L600.683 283.833L697.835 220.38L742.165 113.143Z" fill="url(#paint15_linear_5_41)"/>
<path d="M1029.38 456.492L928.658 398.876L812.997 408.221L913.256 349.801L962.993 244.963L963.457 361L1029.38 456.492Z" fill="url(#paint16_linear_5_41)"/>
<path d="M962.571 393.235L861.848 335.618L746.188 344.963L846.447 286.543L896.184 181.706L896.648 297.742L962.571 393.235Z" fill="url(#paint17_linear_5_41)"/>
<defs>
<linearGradient id="paint0_linear_5_41" x1="558.5" y1="235" x2="558.5" y2="781" gradientUnits="userSpaceOnUse">
<stop stop-color="#0B1816"/>
<stop offset="0.45" stop-color="#718272"/>
<stop offset="1" stop-color="#0B1816"/>
</linearGradient>
<linearGradient id="paint1_linear_5_41" x1="558.5" y1="235" x2="558.5" y2="781" gradientUnits="userSpaceOnUse">
<stop stop-color="#0B1816"/>
<stop offset="0.45" stop-color="#718272"/>
<stop offset="1" stop-color="#0B1816"/>
</linearGradient>
<linearGradient id="paint2_linear_5_41" x1="559.059" y1="887.528" x2="557.999" y2="631.53" gradientUnits="userSpaceOnUse">
<stop stop-color="#718272"/>
<stop offset="1" stop-color="#474747" stop-opacity="0"/>
</linearGradient>
<linearGradient id="paint3_linear_5_41" x1="560.059" y1="795.528" x2="558.999" y2="539.53" gradientUnits="userSpaceOnUse">
<stop stop-color="#718272"/>
<stop offset="1" stop-color="#474747" stop-opacity="0"/>
</linearGradient>
<linearGradient id="paint4_linear_5_41" x1="249.299" y1="750.661" x2="434.118" y2="573.523" gradientUnits="userSpaceOnUse">
<stop stop-color="#718272"/>
<stop offset="1" stop-color="#474747" stop-opacity="0"/>
</linearGradient>
<linearGradient id="paint5_linear_5_41" x1="316.67" y1="688.002" x2="501.49" y2="510.865" gradientUnits="userSpaceOnUse">
<stop stop-color="#718272"/>
<stop offset="1" stop-color="#474747" stop-opacity="0"/>
</linearGradient>
<linearGradient id="paint6_linear_5_41" x1="866.381" y1="749.492" x2="677.867" y2="576.292" gradientUnits="userSpaceOnUse">
<stop stop-color="#718272"/>
<stop offset="1" stop-color="#474747" stop-opacity="0"/>
</linearGradient>
<linearGradient id="paint7_linear_5_41" x1="799.571" y1="686.235" x2="611.057" y2="513.034" gradientUnits="userSpaceOnUse">
<stop stop-color="#718272"/>
<stop offset="1" stop-color="#474747" stop-opacity="0"/>
</linearGradient>
<linearGradient id="paint8_linear_5_41" x1="558.059" y1="453.528" x2="556.999" y2="197.53" gradientUnits="userSpaceOnUse">
<stop stop-color="#718272"/>
<stop offset="1" stop-color="#474747" stop-opacity="0"/>
</linearGradient>
<linearGradient id="paint9_linear_5_41" x1="559.059" y1="361.528" x2="557.999" y2="105.53" gradientUnits="userSpaceOnUse">
<stop stop-color="#718272"/>
<stop offset="1" stop-color="#474747" stop-opacity="0"/>
</linearGradient>
<linearGradient id="paint10_linear_5_41" x1="340.961" y1="26.0061" x2="391.147" y2="277.039" gradientUnits="userSpaceOnUse">
<stop stop-color="#718272"/>
<stop offset="1" stop-color="#474747" stop-opacity="0"/>
</linearGradient>
<linearGradient id="paint11_linear_5_41" x1="357.642" y1="116.487" x2="407.828" y2="367.519" gradientUnits="userSpaceOnUse">
<stop stop-color="#718272"/>
<stop offset="1" stop-color="#474747" stop-opacity="0"/>
</linearGradient>
<linearGradient id="paint12_linear_5_41" x1="89.2989" y1="463.661" x2="274.118" y2="286.523" gradientUnits="userSpaceOnUse">
<stop stop-color="#718272"/>
<stop offset="1" stop-color="#474747" stop-opacity="0"/>
</linearGradient>
<linearGradient id="paint13_linear_5_41" x1="156.67" y1="401.002" x2="341.49" y2="223.865" gradientUnits="userSpaceOnUse">
<stop stop-color="#718272"/>
<stop offset="1" stop-color="#474747" stop-opacity="0"/>
</linearGradient>
<linearGradient id="paint14_linear_5_41" x1="758.955" y1="22.6829" x2="716.021" y2="275.057" gradientUnits="userSpaceOnUse">
<stop stop-color="#718272"/>
<stop offset="1" stop-color="#474747" stop-opacity="0"/>
</linearGradient>
<linearGradient id="paint15_linear_5_41" x1="742.165" y1="113.143" x2="699.231" y2="365.517" gradientUnits="userSpaceOnUse">
<stop stop-color="#718272"/>
<stop offset="1" stop-color="#474747" stop-opacity="0"/>
</linearGradient>
<linearGradient id="paint16_linear_5_41" x1="1029.38" y1="456.492" x2="840.867" y2="283.292" gradientUnits="userSpaceOnUse">
<stop stop-color="#718272"/>
<stop offset="1" stop-color="#474747" stop-opacity="0"/>
</linearGradient>
<linearGradient id="paint17_linear_5_41" x1="962.571" y1="393.235" x2="774.057" y2="220.034" gradientUnits="userSpaceOnUse">
<stop stop-color="#718272"/>
<stop offset="1" stop-color="#474747" stop-opacity="0"/>
</linearGradient>
</defs>
</svg>
