<svg width="535" height="546" viewBox="0 0 535 546" fill="none" xmlns="http://www.w3.org/2000/svg">
<path d="M267.5 0L278.021 243.498L439.446 63.8699L294.141 257.303L530.936 225.594L297.795 278.452L499.162 409.5L287.274 297.05L358.99 529.536L267.5 304.395L176.01 529.536L247.726 297.05L35.8382 409.5L237.205 278.452L4.06393 225.594L240.859 257.303L95.5543 63.8699L256.979 243.498L267.5 0Z" fill="url(#paint0_linear_7_40)"/>
<path d="M267.5 0L278.021 243.498L439.446 63.8699L294.141 257.303L530.936 225.594L297.795 278.452L499.162 409.5L287.274 297.05L358.99 529.536L267.5 304.395L176.01 529.536L247.726 297.05L35.8382 409.5L237.205 278.452L4.06393 225.594L240.859 257.303L95.5543 63.8699L256.979 243.498L267.5 0Z" fill="url(#paint1_linear_7_40)"/>
<defs>
<linearGradient id="paint0_linear_7_40" x1="267.5" y1="0" x2="267.5" y2="546" gradientUnits="userSpaceOnUse">
<stop stop-color="#0B1816"/>
<stop offset="0.45" stop-color="#718272"/>
<stop offset="1" stop-color="#0B1816"/>
</linearGradient>
<linearGradient id="paint1_linear_7_40" x1="267.5" y1="0" x2="267.5" y2="546" gradientUnits="userSpaceOnUse">
<stop stop-color="#0B1816"/>
<stop offset="0.45" stop-color="#718272"/>
<stop offset="1" stop-color="#0B1816"/>
</linearGradient>
</defs>
</svg>
