<svg width="535" height="546" viewBox="0 0 535 546" fill="none" xmlns="http://www.w3.org/2000/svg">
<path d="M271.021 253.057L271.453 264.519L280.622 257.627L355.937 201.018L284.921 263.514L276.574 270.861L287.297 273.805L378.826 298.934L285.781 281.065L274.708 278.939L279.13 289.311L316.002 375.795L272.825 292.622L267.5 282.363L262.175 292.622L218.998 375.795L255.87 289.311L260.292 278.939L249.219 281.065L156.174 298.934L247.703 273.805L258.426 270.861L250.079 263.514L179.063 201.018L254.378 257.627L263.547 264.519L263.979 253.057L267.5 159.506L271.021 253.057Z" fill="#101815" stroke="#424B43" stroke-width="12" stroke-linecap="round"/>
</svg>
