<svg width="82" height="80" viewBox="0 0 82 80" fill="none" xmlns="http://www.w3.org/2000/svg">
<path d="M55.4243 16.7591L45.3761 34.6788C44.1684 36.8327 45.1814 39.5555 47.5032 40.3962L69.7635 48.4565L47.6792 42.9449C45.0684 42.2934 42.5719 44.3537 42.7164 47.0407L43.8362 67.8663L40.0312 45.8748C39.6339 43.5786 37.3655 42.1067 35.1066 42.6795L13.473 48.1648L32.9479 40.7023C35.4606 39.7395 36.325 36.6201 34.6662 34.5014L20.6348 16.5788L37.0655 33.6236C38.7792 35.4014 41.6786 35.2171 43.1534 33.2367L55.4243 16.7591Z" fill="url(#paint0_linear_14_10)"/>
<path d="M55.4243 16.7591L44.341 34.9152C42.998 37.1153 44.0559 39.9926 46.5043 40.7987L69.7635 48.4565L47.0017 42.0531C44.3079 41.2953 41.6885 43.4668 41.9339 46.2544L43.8362 67.8663L40.6698 45.0543C40.3347 42.6402 37.9369 41.0844 35.5957 41.762L13.473 48.1648L33.9848 41.0965C36.6305 40.1848 37.5463 36.9079 35.7567 34.7566L20.6348 16.5788L37.1049 34.6998C38.8386 36.6073 41.8973 36.4011 43.3593 34.2782L55.4243 16.7591Z" fill="url(#paint1_linear_14_10)"/>
<path d="M55.4243 16.7591L43.7221 35.0619C42.3004 37.2855 43.3841 40.2523 45.9043 41.0361L69.7635 48.4565L46.5922 41.5208C43.853 40.7009 41.1631 42.9363 41.468 45.7793L43.8362 67.8663L41.0486 44.5603C40.7519 42.0796 38.2789 40.475 35.8925 41.2148L13.473 48.1648L34.6085 41.3284C37.329 40.4485 38.2744 37.0812 36.4097 34.9138L20.6348 16.5788L37.1326 35.3445C38.8752 37.3267 42.0261 37.1075 43.4775 34.9031L55.4243 16.7591Z" fill="url(#paint2_linear_14_10)"/>
<defs>
<linearGradient id="paint0_linear_14_10" x1="55.4243" y1="16.7591" x2="25.8285" y2="62.3711" gradientUnits="userSpaceOnUse">
<stop offset="0.365" stop-color="#D75F5F"/>
<stop offset="1" stop-color="#217ABC" stop-opacity="0"/>
</linearGradient>
<linearGradient id="paint1_linear_14_10" x1="55.4243" y1="16.7591" x2="25.8285" y2="62.3711" gradientUnits="userSpaceOnUse">
<stop offset="0.235" stop-color="#AF3030"/>
<stop offset="1" stop-color="#307AAF" stop-opacity="0"/>
</linearGradient>
<linearGradient id="paint2_linear_14_10" x1="55.4243" y1="16.7591" x2="25.8285" y2="62.3711" gradientUnits="userSpaceOnUse">
<stop stop-color="#821E1E"/>
<stop offset="1" stop-color="#1A949C" stop-opacity="0"/>
</linearGradient>
</defs>
</svg>
