<svg width="82" height="80" viewBox="0 0 82 80" fill="none" xmlns="http://www.w3.org/2000/svg">
<path d="M25.8285 62.3711L35.8767 44.4513C37.0844 42.2975 36.0714 39.5746 33.7496 38.7339L11.4893 30.6737L33.5736 36.1852C36.1844 36.8368 38.6809 34.7765 38.5364 32.0895L37.4166 11.2639L41.2216 33.2553C41.6189 35.5516 43.8872 37.0234 46.1462 36.4507L67.7798 30.9654L48.3049 38.4279C45.7922 39.3907 44.9278 42.51 46.5866 44.6288L60.6179 62.5514L44.1873 45.5065C42.4736 43.7287 39.5742 43.913 38.0993 45.8935L25.8285 62.3711Z" fill="url(#paint0_linear_14_8)"/>
<path d="M25.8285 62.3711L36.9118 44.215C38.2548 42.0149 37.1968 39.1375 34.7485 38.3315L11.4893 30.6737L34.251 37.0771C36.9448 37.8349 39.5642 35.6634 39.3189 32.8758L37.4166 11.2639L40.583 34.0758C40.9181 36.4899 43.3159 38.0458 45.6571 37.3682L67.7798 30.9654L47.268 38.0337C44.6223 38.9454 43.7065 42.2223 45.4961 44.3736L60.6179 62.5514L44.1479 44.4303C42.4142 42.5229 39.3554 42.7291 37.8935 44.852L25.8285 62.3711Z" fill="url(#paint1_linear_14_8)"/>
<path d="M25.8285 62.3711L37.5306 44.0683C38.9524 41.8447 37.8687 38.8779 35.3485 38.0941L11.4893 30.6737L34.6606 37.6094C37.3998 38.4293 40.0896 36.1938 39.7848 33.3509L37.4166 11.2639L40.2042 34.5698C40.5009 37.0505 42.9739 38.6552 45.3603 37.9154L67.7798 30.9654L46.6443 37.8017C43.9238 38.6817 42.9783 42.049 44.8431 44.2164L60.6179 62.5514L44.1202 43.7857C42.3776 41.8035 39.2267 42.0227 37.7752 44.227L25.8285 62.3711Z" fill="url(#paint2_linear_14_8)"/>
<defs>
<linearGradient id="paint0_linear_14_8" x1="25.8285" y1="62.3711" x2="55.4243" y2="16.7591" gradientUnits="userSpaceOnUse">
<stop offset="0.365" stop-color="#D75F5F"/>
<stop offset="1" stop-color="#217ABC" stop-opacity="0"/>
</linearGradient>
<linearGradient id="paint1_linear_14_8" x1="25.8285" y1="62.3711" x2="55.4243" y2="16.7591" gradientUnits="userSpaceOnUse">
<stop offset="0.235" stop-color="#AF3030"/>
<stop offset="1" stop-color="#307AAF" stop-opacity="0"/>
</linearGradient>
<linearGradient id="paint2_linear_14_8" x1="25.8285" y1="62.3711" x2="55.4243" y2="16.7591" gradientUnits="userSpaceOnUse">
<stop stop-color="#821E1E"/>
<stop offset="1" stop-color="#1A949C" stop-opacity="0"/>
</linearGradient>
</defs>
</svg>
