<svg width="190" height="170" viewBox="0 0 190 170" fill="none" xmlns="http://www.w3.org/2000/svg">
<path d="M95.9838 167.994L90.459 95.8028C90.2706 93.3406 87.9183 91.6356 85.5198 92.2226L5.91094 111.706L81.8277 84.6075C84.362 83.7028 85.2981 80.6043 83.6886 78.4478L38.9561 18.5112L91.9388 74.3952C93.5422 76.0863 96.246 76.0543 97.8088 74.3256L149.452 17.2014L106.153 78.1815C104.595 80.3755 105.604 83.451 108.159 84.2953L184.697 109.587L104.649 91.9959C102.237 91.4659 99.9257 93.2262 99.7957 95.6921L95.9838 167.994Z" fill="url(#paint0_linear_14_4)"/>
<path d="M95.9838 167.994L93.0204 92.7528C92.919 90.1772 90.4437 88.3685 87.959 89.0545L5.91094 111.706L85.9017 85.8011C88.5639 84.9389 89.5407 81.6797 87.7916 79.4953L38.9561 18.5112L91.8951 78.2225C93.512 80.0463 96.3701 80.0124 97.9433 78.1508L149.452 17.2014L102.076 79.326C100.379 81.5512 101.433 84.7863 104.115 85.5851L184.697 109.587L102.135 88.8864C99.6348 88.2595 97.2031 90.1264 97.1627 92.7037L95.9838 167.994Z" fill="url(#paint1_linear_14_4)"/>
<path d="M95.9838 167.994L94.5528 90.92C94.5038 88.2811 91.9575 86.4122 89.4253 87.1566L5.91094 111.706L88.3471 86.5131C91.0815 85.6775 92.0816 82.326 90.2522 80.1286L38.9561 18.5112L91.8734 80.518C93.4953 82.4184 96.443 82.3835 98.0194 80.4451L149.452 17.2014L99.6308 80.0174C97.8541 82.2576 98.9333 85.5844 101.687 86.355L184.697 109.587L100.624 87.0238C98.075 86.3397 95.5738 88.2684 95.5874 90.9077L95.9838 167.994Z" fill="url(#paint2_linear_14_4)"/>
<defs>
<linearGradient id="paint0_linear_14_4" x1="95.9838" y1="167.994" x2="94.0161" y2="2.00581" gradientUnits="userSpaceOnUse">
<stop offset="0.365" stop-color="#D75F5F"/>
<stop offset="1" stop-color="#217ABC" stop-opacity="0"/>
</linearGradient>
<linearGradient id="paint1_linear_14_4" x1="95.9838" y1="167.994" x2="94.0161" y2="2.00581" gradientUnits="userSpaceOnUse">
<stop offset="0.235" stop-color="#AF3030"/>
<stop offset="1" stop-color="#307AAF" stop-opacity="0"/>
</linearGradient>
<linearGradient id="paint2_linear_14_4" x1="95.9838" y1="167.994" x2="94.0161" y2="2.00581" gradientUnits="userSpaceOnUse">
<stop stop-color="#821E1E"/>
<stop offset="1" stop-color="#1A949C" stop-opacity="0"/>
</linearGradient>
</defs>
</svg>
