<svg width="170" height="192" viewBox="0 0 170 192" fill="none" xmlns="http://www.w3.org/2000/svg">
<path d="M167.92 93.9796L95.7814 100.151C93.321 100.361 91.6372 102.729 92.2456 105.122L112.442 184.553L84.6638 108.882C83.7365 106.356 80.6297 105.448 78.4877 107.077L18.9544 152.344L74.3614 98.863C76.0381 97.2446 75.9818 94.5412 74.2392 92.9939L16.6546 41.8646L78.0202 84.6157C80.2281 86.1539 83.2944 85.1171 84.1158 82.5546L108.721 5.79327L91.8475 85.996C91.3391 88.4124 93.1201 90.7078 95.587 90.8157L167.92 93.9796Z" fill="url(#paint0_linear_14_3)"/>
<path d="M167.92 93.9796L92.7086 97.617C90.134 97.7415 88.3475 100.233 89.0557 102.711L112.442 184.553L85.8209 104.798C84.9349 102.143 81.6671 101.196 79.4985 102.964L18.9544 152.344L78.189 98.8725C79.9981 97.2393 79.9387 94.3816 78.0631 92.8252L16.6546 41.8646L79.2012 88.6823C81.4415 90.3592 84.667 89.2764 85.4418 86.5874L108.721 5.79327L88.7607 88.5374C88.1562 91.0431 90.0448 93.458 92.6224 93.4753L167.92 93.9796Z" fill="url(#paint1_linear_14_3)"/>
<path d="M167.92 93.9796L90.8621 96.1011C88.2238 96.1738 86.3778 98.7367 87.1448 101.262L112.442 184.553L86.511 102.346C85.6509 99.6192 82.2906 98.6492 80.1097 100.498L18.9544 152.344L80.4845 98.8736C82.3703 97.2348 82.309 94.2874 80.3566 92.7285L16.6546 41.8646L79.9144 91.1209C82.1704 92.8775 85.4875 91.7686 86.2334 89.0083L108.721 5.79327L86.9117 90.0649C86.2505 92.6201 88.2015 95.1039 90.8406 95.0667L167.92 93.9796Z" fill="url(#paint2_linear_14_3)"/>
<defs>
<linearGradient id="paint0_linear_14_3" x1="167.92" y1="93.9796" x2="1.95631" y2="97.4344" gradientUnits="userSpaceOnUse">
<stop offset="0.365" stop-color="#D75F5F"/>
<stop offset="1" stop-color="#217ABC" stop-opacity="0"/>
</linearGradient>
<linearGradient id="paint1_linear_14_3" x1="167.92" y1="93.9796" x2="1.95631" y2="97.4344" gradientUnits="userSpaceOnUse">
<stop offset="0.235" stop-color="#AF3030"/>
<stop offset="1" stop-color="#307AAF" stop-opacity="0"/>
</linearGradient>
<linearGradient id="paint2_linear_14_3" x1="167.92" y1="93.9796" x2="1.95631" y2="97.4344" gradientUnits="userSpaceOnUse">
<stop stop-color="#821E1E"/>
<stop offset="1" stop-color="#1A949C" stop-opacity="0"/>
</linearGradient>
</defs>
</svg>
