<svg width="188" height="166" viewBox="0 0 188 166" fill="none" xmlns="http://www.w3.org/2000/svg">
<path d="M94 1.52588e-05L98.6687 72.2518C98.8279 74.716 101.16 76.4488 103.565 75.8902L183.399 57.3516L107.167 83.5487C104.622 84.4232 103.649 87.5104 105.233 89.6858L149.252 150.148L96.9352 93.6404C95.352 91.9303 92.648 91.9303 91.0648 93.6404L38.7482 150.148L82.7671 89.6858C84.3509 87.5104 83.3781 84.4232 80.8333 83.5487L4.60069 57.3516L84.4349 75.8902C86.8402 76.4488 89.1721 74.716 89.3313 72.2518L94 1.52588e-05Z" fill="url(#paint0_linear_14_5)"/>
<path d="M94 1.52588e-05L96.0713 75.2712C96.1422 77.8478 98.5959 79.6857 101.089 79.0293L183.399 57.3516L103.107 82.3068C100.435 83.1374 99.4195 86.3848 101.143 88.5897L149.252 150.148L97.0243 89.8138C95.4292 87.971 92.5708 87.971 90.9757 89.8138L38.7482 150.148L86.8574 88.5897C88.5805 86.3848 87.5652 83.1374 84.8929 82.3068L4.60069 57.3516L86.9115 79.0293C89.4041 79.6857 91.8578 77.8478 91.9287 75.2712L94 1.52588e-05Z" fill="url(#paint1_linear_14_5)"/>
<path d="M94 1.52588e-05L94.5173 77.0857C94.535 79.725 97.059 81.6239 99.5998 80.9096L183.399 57.3516L100.67 81.5658C97.9262 82.369 96.8865 85.7084 98.6896 87.9274L149.252 150.148L97.0732 87.5188C95.474 85.5992 92.526 85.5992 90.9268 87.5188L38.7482 150.148L89.3104 87.9274C91.1135 85.7084 90.0738 82.369 87.3297 81.5658L4.60069 57.3516L88.4002 80.9096C90.941 81.6239 93.465 79.725 93.4827 77.0857L94 1.52588e-05Z" fill="url(#paint2_linear_14_5)"/>
<defs>
<linearGradient id="paint0_linear_14_5" x1="94" y1="1.52588e-05" x2="94" y2="166" gradientUnits="userSpaceOnUse">
<stop offset="0.365" stop-color="#D75F5F"/>
<stop offset="1" stop-color="#217ABC" stop-opacity="0"/>
</linearGradient>
<linearGradient id="paint1_linear_14_5" x1="94" y1="1.52588e-05" x2="94" y2="166" gradientUnits="userSpaceOnUse">
<stop offset="0.235" stop-color="#AF3030"/>
<stop offset="1" stop-color="#307AAF" stop-opacity="0"/>
</linearGradient>
<linearGradient id="paint2_linear_14_5" x1="94" y1="1.52588e-05" x2="94" y2="166" gradientUnits="userSpaceOnUse">
<stop stop-color="#821E1E"/>
<stop offset="1" stop-color="#1A949C" stop-opacity="0"/>
</linearGradient>
</defs>
</svg>
