<svg width="173" height="194" viewBox="0 0 173 194" fill="none" xmlns="http://www.w3.org/2000/svg">
<path d="M3.07016 99.3716L75.1309 92.3456C77.5886 92.106 79.2443 89.7187 78.6075 87.3329L57.4712 8.14683L86.1442 83.4832C87.1013 85.9981 90.2187 86.8695 92.3412 85.2155L151.334 39.2452L96.5647 93.3796C94.9073 95.0178 94.9956 97.7203 96.7564 99.2468L154.943 149.69L93.075 107.669C90.849 106.157 87.7952 107.23 87.0043 109.802L63.3111 186.85L79.2323 106.453C79.712 104.031 77.904 101.757 75.4359 101.678L3.07016 99.3716Z" fill="url(#paint0_linear_14_2)"/>
<path d="M3.07016 99.3716L78.2335 94.843C80.8065 94.688 82.5633 92.1755 81.8257 89.7057L57.4712 8.14683L85.0356 87.5811C85.953 90.2248 89.2319 91.1336 91.3793 89.3394L151.334 39.2452L92.7372 93.4155C90.9476 95.07 91.0409 97.9268 92.9348 99.4609L154.943 149.69L91.8459 103.617C89.5859 101.967 86.3734 103.088 85.6305 105.786L63.3111 186.85L82.2888 103.875C82.8635 101.362 80.9464 98.9701 78.3688 98.9834L3.07016 99.3716Z" fill="url(#paint1_linear_14_2)"/>
<path d="M3.07016 99.3716L80.0979 96.3369C82.7351 96.2329 84.5506 93.6484 83.7537 91.1322L57.4712 8.14683L84.3746 90.0409C85.267 92.7573 88.6386 93.6874 90.7974 91.8127L151.334 39.2452L90.4418 93.4416C88.5756 95.1026 88.6719 98.0491 90.6426 99.5847L154.943 149.69L91.1038 101.187C88.8271 99.4572 85.5234 100.605 84.8103 103.374L63.3111 186.85L84.1195 102.326C84.7504 99.763 82.7701 97.3025 80.1317 97.371L3.07016 99.3716Z" fill="url(#paint2_linear_14_2)"/>
<defs>
<linearGradient id="paint0_linear_14_2" x1="3.07016" y1="99.3716" x2="168.982" y2="93.9498" gradientUnits="userSpaceOnUse">
<stop offset="0.365" stop-color="#D75F5F"/>
<stop offset="1" stop-color="#217ABC" stop-opacity="0"/>
</linearGradient>
<linearGradient id="paint1_linear_14_2" x1="3.07016" y1="99.3716" x2="168.982" y2="93.9498" gradientUnits="userSpaceOnUse">
<stop offset="0.235" stop-color="#AF3030"/>
<stop offset="1" stop-color="#307AAF" stop-opacity="0"/>
</linearGradient>
<linearGradient id="paint2_linear_14_2" x1="3.07016" y1="99.3716" x2="168.982" y2="93.9498" gradientUnits="userSpaceOnUse">
<stop stop-color="#821E1E"/>
<stop offset="1" stop-color="#1A949C" stop-opacity="0"/>
</linearGradient>
</defs>
</svg>
