<svg width="729" height="729" viewBox="0 0 729 729" fill="none" xmlns="http://www.w3.org/2000/svg">
<path d="M246.174 118.052L371.113 326.63L561.872 175.88L402.111 359.158L604.43 493.996L380.754 398.691L315.035 632.775L336.556 390.595L93.6206 400.429L330.598 346.059L246.174 118.052Z" fill="url(#paint0_linear_2_63)"/>
<path d="M367.918 91.2347L387.109 333.611L624.998 283.378L400.415 376.528L521.701 587.251L363.71 402.445L200.78 582.912L327.719 375.545L105.737 276.357L342.18 333.003L367.918 91.2347Z" fill="url(#paint1_linear_2_63)"/>
<path d="M472.48 113.589L408.858 337.79L636.049 389.73L403.161 398.504L423.969 630.627L343.658 411.848L129.327 503.367L312.58 359.381L159.308 183.82L352.875 313.611L472.48 113.589Z" fill="url(#paint2_linear_2_63)"/>
<g filter="url(#filter0_d_2_63)">
<circle cx="365.365" cy="364.627" r="132.242" transform="rotate(-25.6199 365.365 364.627)" fill="url(#paint3_linear_2_63)" shape-rendering="crispEdges"/>
</g>
<defs>
<filter id="filter0_d_2_63" x="229.092" y="232.354" width="272.546" height="272.546" filterUnits="userSpaceOnUse" color-interpolation-filters="sRGB">
<feFlood flood-opacity="0" result="BackgroundImageFix"/>
<feColorMatrix in="SourceAlpha" type="matrix" values="0 0 0 0 0 0 0 0 0 0 0 0 0 0 0 0 0 0 127 0" result="hardAlpha"/>
<feOffset dy="4"/>
<feGaussianBlur stdDeviation="2"/>
<feComposite in2="hardAlpha" operator="out"/>
<feColorMatrix type="matrix" values="0 0 0 0 0 0 0 0 0 0 0 0 0 0 0 0 0 0 0.25 0"/>
<feBlend mode="normal" in2="BackgroundImageFix" result="effect1_dropShadow_2_63"/>
<feBlend mode="normal" in="SourceGraphic" in2="effect1_dropShadow_2_63" result="shape"/>
</filter>
<linearGradient id="paint0_linear_2_63" x1="364.226" y1="418.83" x2="504.148" y2="633.83" gradientUnits="userSpaceOnUse">
<stop stop-color="#98A450"/>
<stop offset="1" stop-color="#F8FBEA" stop-opacity="0"/>
</linearGradient>
<linearGradient id="paint1_linear_2_63" x1="339.953" y1="413.138" x2="369.709" y2="667.927" gradientUnits="userSpaceOnUse">
<stop stop-color="#98A450"/>
<stop offset="1" stop-color="#F8FBEA" stop-opacity="0"/>
</linearGradient>
<linearGradient id="paint2_linear_2_63" x1="323.029" y1="400.064" x2="252.649" y2="646.742" gradientUnits="userSpaceOnUse">
<stop stop-color="#98A450"/>
<stop offset="1" stop-color="#F8FBEA" stop-opacity="0"/>
</linearGradient>
<linearGradient id="paint3_linear_2_63" x1="376.649" y1="405.55" x2="376.212" y2="55.2443" gradientUnits="userSpaceOnUse">
<stop stop-color="#D6C56C"/>
<stop offset="1" stop-color="#FFEF9B" stop-opacity="0"/>
</linearGradient>
</defs>
</svg>
