<svg width="792" height="791" viewBox="0 0 792 791" fill="none" xmlns="http://www.w3.org/2000/svg">
<path d="M460.834 28.2367C472.162 18.6773 489.487 22.5817 495.618 36.0761V36.0761C497.006 39.1293 497.689 42.4554 497.616 45.8082L496.208 111.249C496.117 115.507 495.715 119.752 495.005 123.95L478.881 219.367L452.506 312.473C451.345 316.57 449.887 320.577 448.143 324.461L421.336 384.178C419.963 387.238 417.919 389.95 415.356 392.112V392.112C404.027 401.672 386.702 397.767 380.571 384.273V384.273C379.184 381.22 378.501 377.894 378.573 374.541L379.981 309.1C380.073 304.843 380.475 300.598 381.184 296.399L397.308 200.983L423.684 107.877C424.844 103.78 426.302 99.7726 428.046 95.8877L454.853 36.1707C456.227 33.1111 458.27 30.3996 460.834 28.2367V28.2367Z" fill="url(#paint0_linear_2_64)"/>
<path d="M598.751 81.2105C612.992 77.1005 627.22 87.7292 627.317 102.551V102.551C627.339 105.904 626.606 109.22 625.173 112.252L597.206 171.433C595.387 175.283 593.289 178.995 590.929 182.54L537.304 263.091L475.26 337.354C472.53 340.622 469.565 343.686 466.388 346.522L417.563 390.121C415.062 392.355 412.09 393.998 408.868 394.927V394.927C394.626 399.037 380.399 388.409 380.302 373.587V373.587C380.28 370.234 381.012 366.918 382.445 363.886L410.412 304.705C412.231 300.855 414.329 297.143 416.689 293.598L470.314 213.047L532.358 138.784C535.089 135.516 538.054 132.452 541.23 129.616L590.055 86.0168C592.556 83.783 595.528 82.1404 598.751 81.2105V81.2105Z" fill="url(#paint1_linear_2_64)"/>
<path d="M706.372 184.763C721.126 186.186 730.441 201.306 725.074 215.122V215.122C723.86 218.248 721.958 221.061 719.51 223.353L671.718 268.08C668.609 270.989 665.292 273.668 661.793 276.095L582.277 331.245L497.25 377.448C493.508 379.481 489.623 381.239 485.626 382.706L424.178 405.266C421.03 406.422 417.662 406.855 414.324 406.533V406.533C399.57 405.111 390.255 389.991 395.622 376.175V376.175C396.836 373.049 398.738 370.236 401.186 367.944L448.977 323.217C452.087 320.307 455.404 317.628 458.903 315.201L538.419 260.052L623.446 213.849C627.188 211.816 631.073 210.058 635.07 208.591L696.517 186.03C699.666 184.875 703.033 184.442 706.372 184.763V184.763Z" fill="url(#paint2_linear_2_64)"/>
<path d="M764.24 341.562C776.651 349.666 777.889 367.382 766.726 377.132V377.132C764.2 379.338 761.21 380.948 757.978 381.842L694.892 399.296C690.788 400.431 686.606 401.266 682.38 401.793L586.355 413.763L489.596 415.251C485.339 415.317 481.082 415.071 476.859 414.517L411.958 405.998C408.633 405.562 405.449 404.383 402.641 402.55V402.55C390.229 394.445 388.991 376.729 400.155 366.979V366.979C402.681 364.773 405.671 363.163 408.903 362.269L471.989 344.815C476.093 343.68 480.275 342.845 484.5 342.319L580.526 330.348L677.284 328.86C681.542 328.795 685.799 329.04 690.021 329.594L754.922 338.113C758.248 338.549 761.432 339.728 764.24 341.562V341.562Z" fill="url(#paint3_linear_2_64)"/>
<path d="M758.697 486.246C767.324 498.3 762.052 515.259 748.113 520.296V520.296C744.959 521.436 741.589 521.852 738.252 521.513L673.131 514.899C668.895 514.468 664.695 513.729 660.566 512.688L566.737 489.017L476.027 455.312C472.035 453.829 468.157 452.057 464.423 450.009L407.03 418.532C404.09 416.92 401.55 414.666 399.598 411.939V411.939C390.971 399.885 396.242 382.926 410.182 377.889V377.889C413.336 376.749 416.706 376.333 420.042 376.672L485.163 383.286C489.4 383.717 493.599 384.456 497.728 385.497L591.558 409.168L682.268 442.873C686.26 444.356 690.138 446.128 693.871 448.176L751.264 479.653C754.205 481.265 756.745 483.519 758.697 486.246V486.246Z" fill="url(#paint4_linear_2_64)"/>
<path d="M697.295 615.343C701.28 629.62 690.527 643.754 675.705 643.721V643.721C672.351 643.714 669.042 642.952 666.023 641.493L607.089 613.008C603.255 611.155 599.562 609.025 596.038 606.634L515.959 552.305L442.244 489.612C439 486.853 435.961 483.862 433.153 480.661L389.984 431.455C387.772 428.934 386.156 425.948 385.254 422.718V422.718C381.269 408.441 392.022 394.307 406.844 394.34V394.34C410.198 394.347 413.507 395.109 416.526 396.568L475.46 425.053C479.293 426.906 482.987 429.036 486.511 431.427L566.589 485.756L640.305 548.449C643.549 551.208 646.587 554.199 649.396 557.4L692.565 606.606C694.777 609.127 696.393 612.113 697.295 615.343V615.343Z" fill="url(#paint5_linear_2_64)"/>
<path d="M574.119 719.206C571.401 733.778 555.518 741.723 542.229 735.158V735.158C539.223 733.673 536.588 731.53 534.522 728.889L494.185 677.338C491.561 673.985 489.185 670.444 487.076 666.745L439.156 582.674L400.634 493.902C398.939 489.996 397.531 485.971 396.421 481.86L379.37 418.662C378.496 415.424 378.362 412.031 378.977 408.734V408.734C381.695 394.162 397.578 386.218 410.867 392.782V392.782C413.874 394.268 416.508 396.41 418.575 399.051L458.912 450.602C461.536 453.956 463.912 457.496 466.02 461.196L513.941 545.267L552.463 634.038C554.158 637.945 555.566 641.969 556.675 646.081L573.727 709.279C574.6 712.517 574.734 715.91 574.119 719.206V719.206Z" fill="url(#paint6_linear_2_64)"/>
<path d="M267.062 740.333C254.092 747.508 237.856 740.31 234.465 725.881V725.881C233.698 722.617 233.675 719.221 234.397 715.947L248.499 652.027C249.417 647.869 250.637 643.783 252.149 639.803L286.514 549.341L330.485 463.138C332.42 459.345 334.629 455.698 337.095 452.226L374.999 398.859C376.941 396.125 379.473 393.863 382.408 392.239V392.239C395.378 385.064 411.614 392.262 415.005 406.691V406.691C415.772 409.956 415.795 413.351 415.073 416.626L400.97 480.545C400.053 484.703 398.833 488.789 397.321 492.77L362.956 583.231L318.985 669.434C317.05 673.227 314.841 676.875 312.375 680.346L274.471 733.713C272.529 736.447 269.997 738.71 267.062 740.333V740.333Z" fill="url(#paint7_linear_2_64)"/>
<path d="M50.9115 520.297C37.1027 514.909 32.26 497.823 41.1882 485.991V485.991C43.2083 483.315 45.8046 481.126 48.7848 479.589L106.954 449.575C110.739 447.622 114.66 445.949 118.688 444.567L210.222 413.169L304.621 391.881C308.775 390.944 312.992 390.311 317.238 389.988L382.507 385.024C385.851 384.77 389.21 385.271 392.334 386.49V386.49C406.143 391.878 410.986 408.964 402.057 420.796V420.796C400.037 423.473 397.441 425.661 394.461 427.199L336.291 457.212C332.507 459.165 328.585 460.838 324.557 462.22L233.024 493.618L138.625 514.907C134.471 515.843 130.254 516.476 126.008 516.799L60.7383 521.763C57.3943 522.017 54.0358 521.516 50.9115 520.297V520.297Z" fill="url(#paint8_linear_2_64)"/>
<path d="M25.3723 377.322C14.3049 367.461 15.7165 349.758 28.2066 341.777V341.777C31.0325 339.972 34.2283 338.825 37.5576 338.421L102.539 330.548C106.766 330.035 111.025 329.832 115.282 329.94L212.02 332.389L307.923 345.313C312.143 345.882 316.316 346.758 320.409 347.934L383.32 366.014C386.543 366.94 389.517 368.579 392.021 370.81V370.81C403.089 380.671 401.677 398.374 389.187 406.355V406.355C386.361 408.16 383.165 409.307 379.836 409.711L314.855 417.585C310.628 418.097 306.368 418.3 302.111 418.192L205.373 415.743L109.471 402.819C105.25 402.25 101.077 401.374 96.9847 400.198L34.0732 382.118C30.85 381.192 27.8763 379.553 25.3723 377.322V377.322Z" fill="url(#paint9_linear_2_64)"/>
<path d="M69.1251 224.649C63.0046 211.148 71.4709 195.537 86.1238 193.304V193.304C89.4391 192.799 92.8256 193.046 96.0326 194.026L158.627 213.168C162.7 214.414 166.675 215.954 170.523 217.778L257.965 259.23L340.397 309.918C344.024 312.149 347.484 314.641 350.749 317.375L400.932 359.404C403.503 361.557 405.557 364.261 406.941 367.316V367.316C413.062 380.816 404.596 396.427 389.943 398.66V398.66C386.627 399.165 383.241 398.918 380.034 397.938L317.439 378.796C313.367 377.551 309.391 376.01 305.543 374.186L218.102 332.735L135.67 282.046C132.042 279.816 128.582 277.323 125.318 274.589L75.1349 232.56C72.5638 230.407 70.5098 227.703 69.1251 224.649V224.649Z" fill="url(#paint10_linear_2_64)"/>
<path d="M301.623 36.2417C307.714 22.728 325.026 18.7696 336.383 28.294V28.294C338.953 30.4489 341.005 33.1542 342.387 36.2095L369.372 95.8445C371.128 99.724 372.598 103.727 373.771 107.82L400.424 200.846L416.834 296.214C417.556 300.411 417.971 304.655 418.075 308.912L419.679 374.35C419.762 377.703 419.089 381.031 417.711 384.089V384.089C411.62 397.602 394.307 401.561 382.951 392.036V392.036C380.381 389.881 378.329 387.176 376.946 384.121L349.961 324.486C348.206 320.606 346.736 316.604 345.563 312.51L318.909 219.484L302.5 124.116C301.778 119.919 301.363 115.675 301.258 111.418L299.654 45.9802C299.572 42.6275 300.245 39.2992 301.623 36.2417V36.2417Z" fill="url(#paint11_linear_2_64)"/>
<path d="M158.349 107.935C158.277 93.1119 172.382 82.3211 186.669 86.2687V86.2687C189.901 87.1619 192.891 88.7706 195.418 90.9758L244.732 134.018C247.941 136.818 250.94 139.848 253.707 143.085L316.587 216.64L371.121 296.58C373.521 300.098 375.661 303.786 377.524 307.615L406.16 366.477C407.627 369.493 408.397 372.8 408.413 376.154V376.154C408.485 390.976 394.38 401.767 380.093 397.82V397.82C376.861 396.926 373.871 395.318 371.344 393.113L322.03 350.071C318.822 347.27 315.822 344.24 313.055 341.003L250.175 267.448L195.641 187.508C193.241 183.991 191.101 180.302 189.238 176.473L160.602 117.611C159.135 114.595 158.365 111.288 158.349 107.935V107.935Z" fill="url(#paint12_linear_2_64)"/>
<path d="M121.616 643.794C106.793 643.724 96.1376 629.516 100.222 615.268V615.268C101.146 612.044 102.783 609.07 105.012 606.564L148.524 557.664C151.355 554.483 154.414 551.513 157.677 548.777L231.831 486.603L312.289 432.837C315.829 430.471 319.538 428.366 323.385 426.54L382.518 398.469C385.547 397.03 388.862 396.292 392.216 396.308V396.308C407.038 396.378 417.694 410.586 413.609 424.834V424.834C412.685 428.058 411.048 431.032 408.819 433.538L365.307 482.438C362.476 485.619 359.417 488.59 356.154 491.325L282.001 553.499L201.543 607.266C198.002 609.632 194.293 611.736 190.447 613.562L131.313 641.633C128.284 643.072 124.969 643.81 121.616 643.794V643.794Z" fill="url(#paint13_linear_2_64)"/>
<path d="M421.685 766.516C412.737 778.334 394.978 778.337 386.028 766.523V766.523C384.003 763.85 382.605 760.755 381.937 757.469L368.912 693.322C368.064 689.149 367.523 684.919 367.291 680.667L362.025 584.042L367.267 487.414C367.498 483.162 368.039 478.932 368.885 474.759L381.895 410.607C382.562 407.32 383.959 404.225 385.984 401.552V401.552C394.931 389.734 412.69 389.731 421.641 401.545V401.545C423.666 404.218 425.064 407.313 425.731 410.599L438.757 474.746C439.604 478.919 440.146 483.149 440.378 487.401L445.644 584.026L440.401 680.654C440.17 684.906 439.63 689.136 438.783 693.309L425.773 757.461C425.107 760.748 423.709 763.843 421.685 766.516V766.516Z" fill="url(#paint14_linear_2_64)"/>
<defs>
<linearGradient id="paint0_linear_2_64" x1="447" y1="163" x2="328" y2="615" gradientUnits="userSpaceOnUse">
<stop stop-color="#DCDCDC"/>
<stop offset="1" stop-color="#E64EFF" stop-opacity="0"/>
</linearGradient>
<linearGradient id="paint1_linear_2_64" x1="531.174" y1="198.624" x2="238.229" y2="562.833" gradientUnits="userSpaceOnUse">
<stop stop-color="#DCDCDC"/>
<stop offset="1" stop-color="#E64EFF" stop-opacity="0"/>
</linearGradient>
<linearGradient id="paint2_linear_2_64" x1="600.314" y1="269.05" x2="193.853" y2="499.819" gradientUnits="userSpaceOnUse">
<stop stop-color="#DCDCDC"/>
<stop offset="1" stop-color="#E64EFF" stop-opacity="0"/>
</linearGradient>
<linearGradient id="paint3_linear_2_64" x1="631.185" y1="367.031" x2="164.052" y2="382.917" gradientUnits="userSpaceOnUse">
<stop stop-color="#DCDCDC"/>
<stop offset="1" stop-color="#E64EFF" stop-opacity="0"/>
</linearGradient>
<linearGradient id="paint4_linear_2_64" x1="625.463" y1="461.726" x2="184.373" y2="307.113" gradientUnits="userSpaceOnUse">
<stop stop-color="#DCDCDC"/>
<stop offset="1" stop-color="#E64EFF" stop-opacity="0"/>
</linearGradient>
<linearGradient id="paint5_linear_2_64" x1="580.478" y1="546.74" x2="218.851" y2="250.613" gradientUnits="userSpaceOnUse">
<stop stop-color="#DCDCDC"/>
<stop offset="1" stop-color="#E64EFF" stop-opacity="0"/>
</linearGradient>
<linearGradient id="paint6_linear_2_64" x1="499.518" y1="606.126" x2="305.504" y2="180.893" gradientUnits="userSpaceOnUse">
<stop stop-color="#DCDCDC"/>
<stop offset="1" stop-color="#E64EFF" stop-opacity="0"/>
</linearGradient>
<linearGradient id="paint7_linear_2_64" x1="306.829" y1="610.83" x2="511.425" y2="190.585" gradientUnits="userSpaceOnUse">
<stop stop-color="#DCDCDC"/>
<stop offset="1" stop-color="#E64EFF" stop-opacity="0"/>
</linearGradient>
<linearGradient id="paint8_linear_2_64" x1="175.922" y1="468.097" x2="629.881" y2="356.804" gradientUnits="userSpaceOnUse">
<stop stop-color="#DCDCDC"/>
<stop offset="1" stop-color="#E64EFF" stop-opacity="0"/>
</linearGradient>
<linearGradient id="paint9_linear_2_64" x1="160.736" y1="371.931" x2="625.033" y2="425.721" gradientUnits="userSpaceOnUse">
<stop stop-color="#DCDCDC"/>
<stop offset="1" stop-color="#E64EFF" stop-opacity="0"/>
</linearGradient>
<linearGradient id="paint10_linear_2_64" x1="195.055" y1="274.59" x2="597.695" y2="511.963" gradientUnits="userSpaceOnUse">
<stop stop-color="#DCDCDC"/>
<stop offset="1" stop-color="#E64EFF" stop-opacity="0"/>
</linearGradient>
<linearGradient id="paint11_linear_2_64" x1="347.331" y1="163.769" x2="435.152" y2="622.847" gradientUnits="userSpaceOnUse">
<stop stop-color="#DCDCDC"/>
<stop offset="1" stop-color="#E64EFF" stop-opacity="0"/>
</linearGradient>
<linearGradient id="paint12_linear_2_64" x1="252.891" y1="204.962" x2="523.436" y2="586.105" gradientUnits="userSpaceOnUse">
<stop stop-color="#DCDCDC"/>
<stop offset="1" stop-color="#E64EFF" stop-opacity="0"/>
</linearGradient>
<linearGradient id="paint13_linear_2_64" x1="219.543" y1="550.185" x2="603.258" y2="283.299" gradientUnits="userSpaceOnUse">
<stop stop-color="#DCDCDC"/>
<stop offset="1" stop-color="#E64EFF" stop-opacity="0"/>
</linearGradient>
<linearGradient id="paint14_linear_2_64" x1="405.527" y1="632.012" x2="422.156" y2="164.905" gradientUnits="userSpaceOnUse">
<stop stop-color="#DCDCDC"/>
<stop offset="1" stop-color="#E64EFF" stop-opacity="0"/>
</linearGradient>
</defs>
</svg>
