<svg width="358" height="327" viewBox="0 0 358 327" fill="none" xmlns="http://www.w3.org/2000/svg">
<path d="M181 0L185.669 72.2518C185.828 74.716 188.16 76.4488 190.565 75.8902L270.399 57.3516L194.167 83.5486C191.622 84.4231 190.649 87.5104 192.233 89.6858L236.252 150.148L183.935 93.6404C182.352 91.9303 179.648 91.9303 178.065 93.6403L125.748 150.148L169.767 89.6858C171.351 87.5104 170.378 84.4231 167.833 83.5486L91.6007 57.3516L171.435 75.8902C173.84 76.4488 176.172 74.716 176.331 72.2518L181 0Z" fill="url(#paint0_linear_11_42)"/>
<path d="M181 0L183.071 75.2712C183.142 77.8478 185.596 79.6857 188.089 79.0293L270.399 57.3516L190.107 82.3068C187.435 83.1374 186.419 86.3848 188.143 88.5897L236.252 150.148L184.024 89.8138C182.429 87.971 179.571 87.971 177.976 89.8138L125.748 150.148L173.857 88.5897C175.581 86.3848 174.565 83.1374 171.893 82.3068L91.6007 57.3516L173.911 79.0293C176.404 79.6857 178.858 77.8478 178.929 75.2712L181 0Z" fill="url(#paint1_linear_11_42)"/>
<path d="M181 0L181.517 77.0857C181.535 79.725 184.059 81.6239 186.6 80.9096L270.399 57.3516L187.67 81.5658C184.926 82.369 183.886 85.7084 185.69 87.9273L236.252 150.148L184.073 87.5187C182.474 85.5992 179.526 85.5992 177.927 87.5187L125.748 150.148L176.31 87.9273C178.114 85.7084 177.074 82.369 174.33 81.5658L91.6007 57.3516L175.4 80.9096C177.941 81.6239 180.465 79.725 180.483 77.0857L181 0Z" fill="url(#paint2_linear_11_42)"/>
<path d="M181.984 324.994L176.459 252.803C176.271 250.341 173.918 248.636 171.52 249.223L91.911 268.706L167.828 241.607C170.362 240.703 171.298 237.604 169.689 235.448L124.956 175.511L177.939 231.395C179.542 233.086 182.246 233.054 183.809 231.326L235.452 174.201L192.153 235.182C190.595 237.376 191.604 240.451 194.159 241.295L270.697 266.587L190.649 248.996C188.237 248.466 185.926 250.226 185.796 252.692L181.984 324.994Z" fill="url(#paint3_linear_11_42)"/>
<path d="M181.984 324.994L179.02 249.753C178.919 247.177 176.444 245.369 173.959 246.054L91.911 268.706L171.902 242.801C174.564 241.939 175.541 238.68 173.792 236.495L124.956 175.511L177.895 235.223C179.512 237.046 182.37 237.012 183.943 235.151L235.452 174.201L188.076 236.326C186.379 238.551 187.433 241.786 190.115 242.585L270.697 266.587L188.135 245.886C185.635 245.26 183.203 247.126 183.163 249.704L181.984 324.994Z" fill="url(#paint4_linear_11_42)"/>
<path d="M181.984 324.994L180.553 247.92C180.504 245.281 177.958 243.412 175.425 244.157L91.911 268.706L174.347 243.513C177.082 242.678 178.082 239.326 176.252 237.129L124.956 175.511L177.873 237.518C179.495 239.418 182.443 239.383 184.019 237.445L235.452 174.201L185.631 237.017C183.854 239.258 184.933 242.584 187.687 243.355L270.697 266.587L186.624 244.024C184.075 243.34 181.574 245.268 181.587 247.908L181.984 324.994Z" fill="url(#paint5_linear_11_42)"/>
<path d="M355.92 158.98L283.781 165.151C281.321 165.361 279.637 167.729 280.246 170.122L300.442 249.553L272.664 173.882C271.737 171.356 268.63 170.448 266.488 172.077L206.954 217.344L262.361 163.863C264.038 162.245 263.982 159.541 262.239 157.994L204.655 106.865L266.02 149.616C268.228 151.154 271.294 150.117 272.116 147.555L296.721 70.7933L279.848 150.996C279.339 153.412 281.12 155.708 283.587 155.816L355.92 158.98Z" fill="url(#paint6_linear_11_42)"/>
<path d="M355.92 158.98L280.709 162.617C278.134 162.742 276.348 165.233 277.056 167.711L300.442 249.553L273.821 169.798C272.935 167.143 269.667 166.196 267.499 167.964L206.954 217.344L266.189 163.872C267.998 162.239 267.939 159.382 266.063 157.825L204.655 106.865L267.201 153.682C269.441 155.359 272.667 154.276 273.442 151.587L296.721 70.7933L276.761 153.537C276.156 156.043 278.045 158.458 280.622 158.475L355.92 158.98Z" fill="url(#paint7_linear_11_42)"/>
<path d="M355.92 158.98L278.862 161.101C276.224 161.174 274.378 163.737 275.145 166.262L300.442 249.553L274.511 167.346C273.651 164.619 270.291 163.649 268.11 165.498L206.954 217.344L268.485 163.874C270.37 162.235 270.309 159.287 268.357 157.729L204.655 106.865L267.914 156.121C270.17 157.878 273.487 156.769 274.233 154.008L296.721 70.7933L274.912 155.065C274.25 157.62 276.202 160.104 278.841 160.067L355.92 158.98Z" fill="url(#paint8_linear_11_42)"/>
<path d="M3.07016 168.372L75.1309 161.346C77.5886 161.106 79.2443 158.719 78.6075 156.333L57.4712 77.1468L86.1442 152.483C87.1013 154.998 90.2187 155.869 92.3412 154.215L151.334 108.245L96.5647 162.38C94.9073 164.018 94.9956 166.72 96.7564 168.247L154.943 218.69L93.075 176.669C90.849 175.157 87.7952 176.23 87.0043 178.802L63.3111 255.85L79.2323 175.453C79.712 173.031 77.904 170.757 75.4359 170.678L3.07016 168.372Z" fill="url(#paint9_linear_11_42)"/>
<path d="M3.07016 168.372L78.2335 163.843C80.8065 163.688 82.5633 161.176 81.8257 158.706L57.4712 77.1468L85.0356 156.581C85.953 159.225 89.2319 160.134 91.3793 158.339L151.334 108.245L92.7372 162.415C90.9476 164.07 91.0409 166.927 92.9348 168.461L154.943 218.69L91.8459 172.617C89.5859 170.967 86.3734 172.088 85.6305 174.786L63.3111 255.85L82.2888 172.875C82.8635 170.362 80.9464 167.97 78.3688 167.983L3.07016 168.372Z" fill="url(#paint10_linear_11_42)"/>
<path d="M3.07016 168.372L80.0979 165.337C82.7351 165.233 84.5506 162.648 83.7537 160.132L57.4712 77.1468L84.3746 159.041C85.267 161.757 88.6386 162.687 90.7974 160.813L151.334 108.245L90.4418 162.442C88.5756 164.103 88.6719 167.049 90.6426 168.585L154.943 218.69L91.1038 170.187C88.8271 168.457 85.5234 169.605 84.8103 172.374L63.3111 255.85L84.1195 171.326C84.7504 168.763 82.7701 166.302 80.1317 166.371L3.07016 168.372Z" fill="url(#paint11_linear_11_42)"/>
<defs>
<linearGradient id="paint0_linear_11_42" x1="181" y1="0" x2="181" y2="166" gradientUnits="userSpaceOnUse">
<stop offset="0.365" stop-color="#D75F5F"/>
<stop offset="1" stop-color="#217ABC" stop-opacity="0"/>
</linearGradient>
<linearGradient id="paint1_linear_11_42" x1="181" y1="0" x2="181" y2="166" gradientUnits="userSpaceOnUse">
<stop offset="0.235" stop-color="#AF3030"/>
<stop offset="1" stop-color="#307AAF" stop-opacity="0"/>
</linearGradient>
<linearGradient id="paint2_linear_11_42" x1="181" y1="0" x2="181" y2="166" gradientUnits="userSpaceOnUse">
<stop stop-color="#821E1E"/>
<stop offset="1" stop-color="#1A949C" stop-opacity="0"/>
</linearGradient>
<linearGradient id="paint3_linear_11_42" x1="181.984" y1="324.994" x2="180.016" y2="159.006" gradientUnits="userSpaceOnUse">
<stop offset="0.365" stop-color="#D75F5F"/>
<stop offset="1" stop-color="#217ABC" stop-opacity="0"/>
</linearGradient>
<linearGradient id="paint4_linear_11_42" x1="181.984" y1="324.994" x2="180.016" y2="159.006" gradientUnits="userSpaceOnUse">
<stop offset="0.235" stop-color="#AF3030"/>
<stop offset="1" stop-color="#307AAF" stop-opacity="0"/>
</linearGradient>
<linearGradient id="paint5_linear_11_42" x1="181.984" y1="324.994" x2="180.016" y2="159.006" gradientUnits="userSpaceOnUse">
<stop stop-color="#821E1E"/>
<stop offset="1" stop-color="#1A949C" stop-opacity="0"/>
</linearGradient>
<linearGradient id="paint6_linear_11_42" x1="355.92" y1="158.98" x2="189.956" y2="162.434" gradientUnits="userSpaceOnUse">
<stop offset="0.365" stop-color="#D75F5F"/>
<stop offset="1" stop-color="#217ABC" stop-opacity="0"/>
</linearGradient>
<linearGradient id="paint7_linear_11_42" x1="355.92" y1="158.98" x2="189.956" y2="162.434" gradientUnits="userSpaceOnUse">
<stop offset="0.235" stop-color="#AF3030"/>
<stop offset="1" stop-color="#307AAF" stop-opacity="0"/>
</linearGradient>
<linearGradient id="paint8_linear_11_42" x1="355.92" y1="158.98" x2="189.956" y2="162.434" gradientUnits="userSpaceOnUse">
<stop stop-color="#821E1E"/>
<stop offset="1" stop-color="#1A949C" stop-opacity="0"/>
</linearGradient>
<linearGradient id="paint9_linear_11_42" x1="3.07016" y1="168.372" x2="168.982" y2="162.95" gradientUnits="userSpaceOnUse">
<stop offset="0.365" stop-color="#D75F5F"/>
<stop offset="1" stop-color="#217ABC" stop-opacity="0"/>
</linearGradient>
<linearGradient id="paint10_linear_11_42" x1="3.07016" y1="168.372" x2="168.982" y2="162.95" gradientUnits="userSpaceOnUse">
<stop offset="0.235" stop-color="#AF3030"/>
<stop offset="1" stop-color="#307AAF" stop-opacity="0"/>
</linearGradient>
<linearGradient id="paint11_linear_11_42" x1="3.07016" y1="168.372" x2="168.982" y2="162.95" gradientUnits="userSpaceOnUse">
<stop stop-color="#821E1E"/>
<stop offset="1" stop-color="#1A949C" stop-opacity="0"/>
</linearGradient>
</defs>
</svg>
