<svg width="223" height="205" viewBox="0 0 223 205" fill="none" xmlns="http://www.w3.org/2000/svg">
<path d="M55.4243 141.759L45.3761 159.679C44.1684 161.833 45.1814 164.556 47.5032 165.396L69.7635 173.456L47.6792 167.945C45.0684 167.293 42.5719 169.354 42.7164 172.041L43.8362 192.866L40.0312 170.875C39.6339 168.579 37.3655 167.107 35.1066 167.679L13.473 173.165L32.9479 165.702C35.4606 164.739 36.325 161.62 34.6662 159.501L20.6348 141.579L37.0655 158.624C38.7792 160.401 41.6786 160.217 43.1534 158.237L55.4243 141.759Z" fill="url(#paint0_linear_11_43)"/>
<path d="M55.4243 141.759L44.341 159.915C42.998 162.115 44.0559 164.993 46.5043 165.799L69.7635 173.456L47.0017 167.053C44.3079 166.295 41.6885 168.467 41.9339 171.254L43.8362 192.866L40.6698 170.054C40.3347 167.64 37.9369 166.084 35.5957 166.762L13.473 173.165L33.9848 166.096C36.6305 165.185 37.5463 161.908 35.7567 159.757L20.6348 141.579L37.1049 159.7C38.8386 161.607 41.8973 161.401 43.3593 159.278L55.4243 141.759Z" fill="url(#paint1_linear_11_43)"/>
<path d="M55.4243 141.759L43.7221 160.062C42.3004 162.286 43.3841 165.252 45.9043 166.036L69.7635 173.456L46.5922 166.521C43.853 165.701 41.1631 167.936 41.468 170.779L43.8362 192.866L41.0486 169.56C40.7519 167.08 38.2789 165.475 35.8925 166.215L13.473 173.165L34.6085 166.328C37.329 165.448 38.2744 162.081 36.4097 159.914L20.6348 141.579L37.1326 160.344C38.8752 162.327 42.0261 162.108 43.4775 159.903L55.4243 141.759Z" fill="url(#paint2_linear_11_43)"/>
<path d="M196.424 141.759L186.376 159.679C185.168 161.833 186.181 164.556 188.503 165.396L210.764 173.456L188.679 167.945C186.068 167.293 183.572 169.354 183.716 172.041L184.836 192.866L181.031 170.875C180.634 168.579 178.366 167.107 176.107 167.679L154.473 173.165L173.948 165.702C176.461 164.739 177.325 161.62 175.666 159.501L161.635 141.579L178.065 158.624C179.779 160.401 182.679 160.217 184.153 158.237L196.424 141.759Z" fill="url(#paint3_linear_11_43)"/>
<path d="M196.424 141.759L185.341 159.915C183.998 162.115 185.056 164.993 187.504 165.799L210.764 173.456L188.002 167.053C185.308 166.295 182.689 168.467 182.934 171.254L184.836 192.866L181.67 170.054C181.335 167.64 178.937 166.084 176.596 166.762L154.473 173.165L174.985 166.096C177.63 165.185 178.546 161.908 176.757 159.757L161.635 141.579L178.105 159.7C179.839 161.607 182.897 161.401 184.359 159.278L196.424 141.759Z" fill="url(#paint4_linear_11_43)"/>
<path d="M196.424 141.759L184.722 160.062C183.3 162.286 184.384 165.252 186.904 166.036L210.764 173.456L187.592 166.521C184.853 165.701 182.163 167.936 182.468 170.779L184.836 192.866L182.049 169.56C181.752 167.08 179.279 165.475 176.893 166.215L154.473 173.165L175.609 166.328C178.329 165.448 179.274 162.081 177.41 159.914L161.635 141.579L178.133 160.344C179.875 162.327 183.026 162.108 184.478 159.903L196.424 141.759Z" fill="url(#paint5_linear_11_43)"/>
<path d="M166.828 62.3711L176.877 44.4513C178.084 42.2975 177.071 39.5746 174.75 38.7339L152.489 30.6737L174.574 36.1852C177.184 36.8368 179.681 34.7765 179.536 32.0895L178.417 11.2639L182.222 33.2553C182.619 35.5516 184.887 37.0234 187.146 36.4507L208.78 30.9654L189.305 38.4279C186.792 39.3907 185.928 42.51 187.587 44.6288L201.618 62.5514L185.187 45.5065C183.474 43.7287 180.574 43.913 179.099 45.8935L166.828 62.3711Z" fill="url(#paint6_linear_11_43)"/>
<path d="M166.828 62.3711L177.912 44.215C179.255 42.0149 178.197 39.1375 175.748 38.3315L152.489 30.6737L175.251 37.0771C177.945 37.8349 180.564 35.6634 180.319 32.8758L178.417 11.2639L181.583 34.0758C181.918 36.4899 184.316 38.0458 186.657 37.3682L208.78 30.9654L188.268 38.0337C185.622 38.9454 184.706 42.2223 186.496 44.3735L201.618 62.5514L185.148 44.4303C183.414 42.5229 180.355 42.7291 178.893 44.852L166.828 62.3711Z" fill="url(#paint7_linear_11_43)"/>
<path d="M166.828 62.3711L178.531 44.0683C179.952 41.8447 178.869 38.8779 176.348 38.0941L152.489 30.6737L175.661 37.6094C178.4 38.4293 181.09 36.1938 180.785 33.3509L178.417 11.2639L181.204 34.5698C181.501 37.0505 183.974 38.6552 186.36 37.9154L208.78 30.9654L187.644 37.8017C184.924 38.6817 183.978 42.049 185.843 44.2164L201.618 62.5514L185.12 43.7857C183.378 41.8035 180.227 42.0226 178.775 44.227L166.828 62.3711Z" fill="url(#paint8_linear_11_43)"/>
<path d="M25.8285 62.3711L35.8767 44.4513C37.0844 42.2975 36.0714 39.5746 33.7496 38.7339L11.4892 30.6737L33.5736 36.1852C36.1844 36.8368 38.6809 34.7764 38.5364 32.0895L37.4165 11.2639L41.2216 33.2553C41.6189 35.5516 43.8872 37.0234 46.1461 36.4507L67.7797 30.9654L48.3049 38.4278C45.7922 39.3907 44.9278 42.51 46.5866 44.6288L60.6179 62.5513L44.1873 45.5065C42.4736 43.7287 39.5742 43.913 38.0993 45.8935L25.8285 62.3711Z" fill="url(#paint9_linear_11_43)"/>
<path d="M25.8285 62.3711L36.9117 44.215C38.2548 42.0149 37.1968 39.1375 34.7485 38.3314L11.4892 30.6737L34.251 37.0771C36.9448 37.8349 39.5642 35.6634 39.3189 32.8758L37.4165 11.2639L40.583 34.0758C40.9181 36.4899 43.3159 38.0458 45.657 37.3682L67.7797 30.9654L47.268 38.0337C44.6223 38.9454 43.7065 42.2222 45.4961 44.3735L60.6179 62.5513L44.1479 44.4303C42.4142 42.5229 39.3554 42.7291 37.8934 44.852L25.8285 62.3711Z" fill="url(#paint10_linear_11_43)"/>
<path d="M25.8285 62.3711L37.5306 44.0683C38.9524 41.8446 37.8687 38.8779 35.3485 38.0941L11.4892 30.6737L34.6606 37.6094C37.3997 38.4292 40.0896 36.1938 39.7848 33.3509L37.4165 11.2639L40.2042 34.5698C40.5009 37.0505 42.9739 38.6552 45.3602 37.9154L67.7797 30.9654L46.6443 37.8017C43.9238 38.6817 42.9783 42.049 44.8431 44.2164L60.6179 62.5513L44.1202 43.7857C42.3776 41.8035 39.2267 42.0226 37.7752 44.227L25.8285 62.3711Z" fill="url(#paint11_linear_11_43)"/>
<defs>
<linearGradient id="paint0_linear_11_43" x1="55.4243" y1="141.759" x2="25.8285" y2="187.371" gradientUnits="userSpaceOnUse">
<stop offset="0.365" stop-color="#D75F5F"/>
<stop offset="1" stop-color="#217ABC" stop-opacity="0"/>
</linearGradient>
<linearGradient id="paint1_linear_11_43" x1="55.4243" y1="141.759" x2="25.8285" y2="187.371" gradientUnits="userSpaceOnUse">
<stop offset="0.235" stop-color="#AF3030"/>
<stop offset="1" stop-color="#307AAF" stop-opacity="0"/>
</linearGradient>
<linearGradient id="paint2_linear_11_43" x1="55.4243" y1="141.759" x2="25.8285" y2="187.371" gradientUnits="userSpaceOnUse">
<stop stop-color="#821E1E"/>
<stop offset="1" stop-color="#1A949C" stop-opacity="0"/>
</linearGradient>
<linearGradient id="paint3_linear_11_43" x1="196.424" y1="141.759" x2="166.828" y2="187.371" gradientUnits="userSpaceOnUse">
<stop offset="0.365" stop-color="#D75F5F"/>
<stop offset="1" stop-color="#217ABC" stop-opacity="0"/>
</linearGradient>
<linearGradient id="paint4_linear_11_43" x1="196.424" y1="141.759" x2="166.828" y2="187.371" gradientUnits="userSpaceOnUse">
<stop offset="0.235" stop-color="#AF3030"/>
<stop offset="1" stop-color="#307AAF" stop-opacity="0"/>
</linearGradient>
<linearGradient id="paint5_linear_11_43" x1="196.424" y1="141.759" x2="166.828" y2="187.371" gradientUnits="userSpaceOnUse">
<stop stop-color="#821E1E"/>
<stop offset="1" stop-color="#1A949C" stop-opacity="0"/>
</linearGradient>
<linearGradient id="paint6_linear_11_43" x1="166.828" y1="62.3711" x2="196.424" y2="16.7591" gradientUnits="userSpaceOnUse">
<stop offset="0.365" stop-color="#D75F5F"/>
<stop offset="1" stop-color="#217ABC" stop-opacity="0"/>
</linearGradient>
<linearGradient id="paint7_linear_11_43" x1="166.828" y1="62.3711" x2="196.424" y2="16.7591" gradientUnits="userSpaceOnUse">
<stop offset="0.235" stop-color="#AF3030"/>
<stop offset="1" stop-color="#307AAF" stop-opacity="0"/>
</linearGradient>
<linearGradient id="paint8_linear_11_43" x1="166.828" y1="62.3711" x2="196.424" y2="16.7591" gradientUnits="userSpaceOnUse">
<stop stop-color="#821E1E"/>
<stop offset="1" stop-color="#1A949C" stop-opacity="0"/>
</linearGradient>
<linearGradient id="paint9_linear_11_43" x1="25.8285" y1="62.3711" x2="55.4243" y2="16.7591" gradientUnits="userSpaceOnUse">
<stop offset="0.365" stop-color="#D75F5F"/>
<stop offset="1" stop-color="#217ABC" stop-opacity="0"/>
</linearGradient>
<linearGradient id="paint10_linear_11_43" x1="25.8285" y1="62.3711" x2="55.4243" y2="16.7591" gradientUnits="userSpaceOnUse">
<stop offset="0.235" stop-color="#AF3030"/>
<stop offset="1" stop-color="#307AAF" stop-opacity="0"/>
</linearGradient>
<linearGradient id="paint11_linear_11_43" x1="25.8285" y1="62.3711" x2="55.4243" y2="16.7591" gradientUnits="userSpaceOnUse">
<stop stop-color="#821E1E"/>
<stop offset="1" stop-color="#1A949C" stop-opacity="0"/>
</linearGradient>
</defs>
</svg>
