<svg width="365" height="365" viewBox="0 0 365 365" fill="none" xmlns="http://www.w3.org/2000/svg">
<path d="M76.7743 36.981L182.5 2.62865L288.226 36.981L353.568 126.917V238.083L288.226 328.019L182.5 362.371L76.7743 328.019L11.4322 238.083V126.917L76.7743 36.981Z" fill="url(#paint0_radial_6_26)" fill-opacity="0.49" stroke="#FFE4F0" stroke-width="5"/>
<path d="M117.331 92.8032L182.5 71.6287L247.669 92.8032L287.945 148.239V216.761L247.669 272.197L182.5 293.371L117.331 272.197L77.0551 216.761V148.239L117.331 92.8032Z" stroke="#FFE4F0" stroke-width="5"/>
<path d="M179.768 49.7819C181.428 48.699 183.572 48.699 185.232 49.7819L221.086 73.1693C221.728 73.588 222.457 73.8535 223.218 73.9454L265.717 79.0761C267.685 79.3137 269.326 80.6912 269.902 82.5879L282.335 123.55C282.557 124.284 282.946 124.956 283.469 125.515L312.728 156.764C314.082 158.21 314.454 160.321 313.676 162.144L296.87 201.514C296.569 202.219 296.434 202.984 296.476 203.749L298.803 246.493C298.911 248.473 297.839 250.329 296.071 251.225L257.89 270.582C257.207 270.928 256.612 271.427 256.152 272.04L230.459 306.28C229.27 307.865 227.256 308.598 225.325 308.149L183.635 298.434C182.888 298.26 182.112 298.26 181.365 298.434L139.675 308.149C137.744 308.598 135.73 307.865 134.541 306.28L108.848 272.04C108.388 271.427 107.793 270.928 107.11 270.582L68.9286 251.225C67.1607 250.329 66.0891 248.473 66.1969 246.493L68.524 203.749C68.5656 202.984 68.4308 202.219 68.1299 201.514L51.3238 162.144C50.5456 160.321 50.9178 158.21 52.2725 156.764L81.5306 125.515C82.0544 124.956 82.4426 124.284 82.6652 123.55L95.0978 82.5879C95.6735 80.6912 97.3152 79.3137 99.283 79.0761L141.782 73.9454C142.543 73.8535 143.272 73.588 143.914 73.1693L179.768 49.7819Z" fill="url(#paint1_radial_6_26)"/>
<path d="M154.95 144.58L182.5 135.629L210.05 144.58L227.077 168.016V196.984L210.05 220.42L182.5 229.371L154.95 220.42L137.923 196.984V168.016L154.95 144.58Z" stroke="#FFE4F0" stroke-width="5"/>
<circle cx="87" cy="49" r="7" fill="url(#paint2_radial_6_26)"/>
<circle cx="182" cy="17" r="7" fill="url(#paint3_radial_6_26)"/>
<circle cx="182" cy="349" r="7" fill="url(#paint4_radial_6_26)"/>
<circle cx="278" cy="56" r="7" fill="url(#paint5_radial_6_26)"/>
<circle cx="25" cy="131" r="7" fill="url(#paint6_radial_6_26)"/>
<circle cx="341" cy="131" r="7" fill="url(#paint7_radial_6_26)"/>
<circle cx="25" cy="234" r="7" fill="url(#paint8_radial_6_26)"/>
<circle cx="341" cy="234" r="7" fill="url(#paint9_radial_6_26)"/>
<circle cx="87" cy="317" r="7" fill="url(#paint10_radial_6_26)"/>
<circle cx="278" cy="317" r="7" fill="url(#paint11_radial_6_26)"/>
<defs>
<radialGradient id="paint0_radial_6_26" cx="0" cy="0" r="1" gradientUnits="userSpaceOnUse" gradientTransform="translate(182.5 182.5) rotate(90.1741) scale(164.501)">
<stop stop-color="#ECA24B"/>
<stop offset="1" stop-color="#FFE4F0" stop-opacity="0"/>
</radialGradient>
<radialGradient id="paint1_radial_6_26" cx="0" cy="0" r="1" gradientUnits="userSpaceOnUse" gradientTransform="translate(182.5 182.5) rotate(90.1854) scale(154.501 157.42)">
<stop stop-color="#ECA24B"/>
<stop offset="1" stop-color="#EC4B8E" stop-opacity="0.4"/>
</radialGradient>
<radialGradient id="paint2_radial_6_26" cx="0" cy="0" r="1" gradientUnits="userSpaceOnUse" gradientTransform="translate(86.9152 50.4162) rotate(89.1294) scale(5.58446 5.58434)">
<stop stop-color="#EC4B8E"/>
<stop offset="1" stop-color="#F49C88"/>
</radialGradient>
<radialGradient id="paint3_radial_6_26" cx="0" cy="0" r="1" gradientUnits="userSpaceOnUse" gradientTransform="translate(181.915 18.4162) rotate(89.1294) scale(5.58446 5.58434)">
<stop stop-color="#EC4B8E"/>
<stop offset="1" stop-color="#F49C88"/>
</radialGradient>
<radialGradient id="paint4_radial_6_26" cx="0" cy="0" r="1" gradientUnits="userSpaceOnUse" gradientTransform="translate(181.915 350.416) rotate(89.1294) scale(5.58446 5.58434)">
<stop stop-color="#EC4B8E"/>
<stop offset="1" stop-color="#F49C88"/>
</radialGradient>
<radialGradient id="paint5_radial_6_26" cx="0" cy="0" r="1" gradientUnits="userSpaceOnUse" gradientTransform="translate(277.915 57.4162) rotate(89.1294) scale(5.58446 5.58434)">
<stop stop-color="#EC4B8E"/>
<stop offset="1" stop-color="#F49C88"/>
</radialGradient>
<radialGradient id="paint6_radial_6_26" cx="0" cy="0" r="1" gradientUnits="userSpaceOnUse" gradientTransform="translate(24.9152 132.416) rotate(89.1294) scale(5.58446 5.58434)">
<stop stop-color="#EC4B8E"/>
<stop offset="1" stop-color="#F49C88"/>
</radialGradient>
<radialGradient id="paint7_radial_6_26" cx="0" cy="0" r="1" gradientUnits="userSpaceOnUse" gradientTransform="translate(340.915 132.416) rotate(89.1294) scale(5.58446 5.58434)">
<stop stop-color="#EC4B8E"/>
<stop offset="1" stop-color="#F49C88"/>
</radialGradient>
<radialGradient id="paint8_radial_6_26" cx="0" cy="0" r="1" gradientUnits="userSpaceOnUse" gradientTransform="translate(24.9152 235.416) rotate(89.1294) scale(5.58446 5.58434)">
<stop stop-color="#EC4B8E"/>
<stop offset="1" stop-color="#F49C88"/>
</radialGradient>
<radialGradient id="paint9_radial_6_26" cx="0" cy="0" r="1" gradientUnits="userSpaceOnUse" gradientTransform="translate(340.915 235.416) rotate(89.1294) scale(5.58446 5.58434)">
<stop stop-color="#EC4B8E"/>
<stop offset="1" stop-color="#F49C88"/>
</radialGradient>
<radialGradient id="paint10_radial_6_26" cx="0" cy="0" r="1" gradientUnits="userSpaceOnUse" gradientTransform="translate(86.9152 318.416) rotate(89.1294) scale(5.58446 5.58434)">
<stop stop-color="#EC4B8E"/>
<stop offset="1" stop-color="#F49C88"/>
</radialGradient>
<radialGradient id="paint11_radial_6_26" cx="0" cy="0" r="1" gradientUnits="userSpaceOnUse" gradientTransform="translate(277.915 318.416) rotate(89.1294) scale(5.58446 5.58434)">
<stop stop-color="#EC4B8E"/>
<stop offset="1" stop-color="#F49C88"/>
</radialGradient>
</defs>
</svg>
