<?xml version="1.0" standalone="no"?>
<!DOCTYPE svg PUBLIC "-//W3C//DTD SVG 20010904//EN"
 "http://www.w3.org/TR/2001/REC-SVG-20010904/DTD/svg10.dtd">
<svg version="1.0" xmlns="http://www.w3.org/2000/svg"
 width="650.000000pt" height="651.000000pt" viewBox="0 0 650.000000 651.000000"
 preserveAspectRatio="xMidYMid meet">

<g transform="translate(0.000000,651.000000) scale(0.100000,-0.100000)"
fill="#000000" stroke="none">
<path d="M2885 6480 c-765 -90 -1445 -427 -1977 -978 -1074 -1115 -1211 -2830
-327 -4099 202 -290 472 -564 765 -779 764 -558 1764 -751 2689 -518 1311 330
2290 1449 2436 2787 7 64 17 117 21 117 4 0 8 108 8 240 0 132 -4 240 -8 240
-4 0 -14 55 -21 123 -56 538 -265 1081 -588 1531 -210 291 -495 572 -786 775
-550 383 -1196 583 -1867 580 -117 -1 -255 -8 -345 -19z m-116 -468 l29 -58
75 -12 c149 -23 243 -65 450 -201 161 -105 228 -139 305 -153 32 -6 71 -16 88
-23 76 -32 195 -290 289 -630 16 -55 31 -103 34 -107 3 -3 164 -14 356 -23
193 -9 351 -18 352 -19 1 -1 -2 -8 -7 -16 -8 -13 -68 -15 -389 -18 l-379 -3
-16 58 c-86 309 -169 535 -225 615 -34 48 -40 52 -107 69 -96 24 -141 48 -345
185 -276 185 -417 240 -556 217 -138 -24 -236 -92 -503 -348 -136 -131 -273
-241 -320 -257 -10 -3 -7 -45 50 -728 14 -166 16 -155 -32 -175 -218 -89 -485
-148 -771 -171 -42 -3 -77 -9 -77 -14 0 -16 95 -92 180 -144 192 -119 387
-210 556 -262 113 -34 136 -46 196 -102 85 -80 145 -211 169 -375 12 -79 16
-87 101 -214 85 -128 91 -142 173 -370 l84 -238 76 -70 c41 -38 75 -74 75 -80
0 -5 -24 -30 -53 -55 -28 -24 -157 -136 -285 -248 l-233 -203 59 -67 c78 -88
195 -239 278 -358 l67 -96 -77 -70 -77 -70 78 -82 c87 -91 173 -207 239 -323
48 -85 118 -256 129 -315 l7 -38 -33 6 c-288 51 -516 124 -769 245 -863 415
-1457 1220 -1601 2174 -30 198 -33 604 -5 785 31 209 67 362 123 530 306 920
1091 1646 2023 1873 198 49 183 50 219 -21z m948 -914 c17 -21 99 -335 91
-344 -2 -2 -46 10 -97 26 -140 44 -496 121 -905 195 -104 19 -191 37 -194 39
-7 7 123 38 243 57 220 35 841 54 862 27z m576 -980 c15 -61 29 -283 23 -363
-16 -213 -77 -377 -151 -405 -20 -8 -23 -15 -19 -42 4 -36 21 -217 30 -338 6
-74 6 -76 -46 -185 -162 -343 -522 -1199 -614 -1458 -5 -16 -12 -11 -44 30
-47 58 -96 103 -224 206 -53 43 -114 99 -136 125 -38 46 -82 111 -82 123 0 3
37 32 83 64 257 183 565 469 729 677 158 201 275 426 284 548 l5 55 -23 -75
c-46 -150 -146 -299 -307 -459 -146 -144 -299 -262 -369 -283 -189 -57 -367
-45 -434 28 -37 42 -69 124 -74 192 -3 37 -1 72 3 77 4 6 51 21 103 34 52 13
145 41 205 62 l110 38 60 -42 c55 -38 66 -42 125 -43 36 -1 77 -5 93 -9 36
-10 57 8 57 49 0 29 -8 36 -147 123 -82 50 -166 102 -187 114 -22 13 -35 24
-30 25 5 1 35 7 67 14 31 6 57 15 57 19 0 13 -229 41 -340 42 -30 0 -105 -8
-167 -19 l-111 -19 -71 -64 -71 -63 35 -18 c52 -27 68 -66 59 -144 -5 -54 -3
-68 11 -84 17 -18 16 -19 -10 -26 -60 -15 -88 33 -114 191 -10 66 -22 166 -26
223 -4 56 -11 102 -15 102 -3 0 -28 -7 -54 -16 -26 -9 -50 -14 -53 -11 -3 3
-45 77 -94 164 l-90 158 43 38 c75 65 279 157 350 157 17 0 19 -5 15 -32 -3
-18 -11 -103 -18 -188 -9 -120 -9 -165 0 -197 15 -54 28 -55 141 -7 122 52
125 52 149 13 12 -19 21 -44 21 -56 0 -29 35 -31 50 -4 18 34 12 106 -10 126
-24 22 -26 51 -4 59 9 3 56 6 105 6 l90 0 17 31 c35 63 33 63 84 29 64 -42
178 -149 213 -199 38 -56 44 -44 9 19 -36 67 -130 168 -224 243 -63 51 -76 57
-78 41 -9 -51 -24 -94 -37 -107 -12 -13 -20 -13 -54 -1 -42 14 -80 8 -123 -20
-23 -15 -31 -15 -109 6 -46 12 -87 27 -91 32 -4 6 -8 90 -8 187 0 222 -4 214
122 214 51 -1 138 -5 194 -9 l101 -9 164 81 c193 96 296 132 399 139 84 6 158
-9 167 -35 9 -21 -15 -410 -27 -452 -8 -28 -6 -35 18 -57 15 -14 48 -36 75
-49 l47 -24 0 22 c0 13 -7 97 -15 188 -18 197 -17 180 -6 180 13 0 70 -92 91
-147 11 -29 20 -42 23 -33 14 43 15 70 2 144 -20 114 -20 158 2 154 10 -2 28
-18 40 -37 l23 -34 0 85 c0 88 -14 148 -33 148 -7 0 -29 -36 -50 -80 -38 -81
-61 -105 -78 -79 -23 36 5 133 49 172 20 18 85 46 108 47 7 0 14 -10 17 -22z
m459 -1250 l357 -220 -60 -77 c-798 -1016 -1287 -1743 -1402 -2086 -24 -70
-24 -70 -67 -77 -24 -4 -46 -6 -48 -4 -15 16 194 420 365 705 246 409 663
1005 1007 1440 36 47 63 88 59 91 -16 14 -565 340 -572 340 -5 0 -16 -21 -26
-46 l-17 -46 -35 34 -34 35 43 71 c30 50 48 70 58 67 8 -3 175 -105 372 -227z
m-1407 64 c72 -43 172 -104 222 -136 92 -57 93 -57 77 -81 l-16 -24 -56 31
c-91 51 -396 239 -412 254 -13 13 -13 16 0 24 30 19 58 9 185 -68z m-160 -4
c79 -51 80 -52 50 -59 -16 -4 -86 -7 -155 -7 -95 -1 -136 3 -170 16 -79 31
-56 73 50 91 117 19 138 15 225 -41z m-94 -1513 c56 -115 80 -218 81 -345 2
-164 -35 -329 -109 -485 l-28 -60 -6 190 c-4 105 -7 332 -7 505 -1 355 -5 347
69 195z m306 -426 c-35 -107 -74 -234 -87 -284 -33 -127 -44 -130 -36 -10 3
55 6 157 6 227 l0 126 88 70 c48 39 88 69 90 67 1 -1 -26 -90 -61 -196z"/>
</g>
</svg>
