<svg width="217" height="332" viewBox="0 0 217 332" fill="none" xmlns="http://www.w3.org/2000/svg">
<path d="M26.5032 213.139C22.9448 222.71 21 233.068 21 243.88C21 292.547 60.3989 332 109 332C157.601 332 197 292.548 197 243.88C197 232.638 194.897 221.887 191.064 212C191.213 214.028 191.288 216.076 191.288 218.142C191.288 263.847 154.367 300.899 108.821 300.899C63.2765 300.899 26.355 263.847 26.355 218.142C26.355 216.462 26.4048 214.794 26.5032 213.139Z" fill="#FFE178"/>
<path d="M217 108.5L141.521 119.229L196.278 172.275L128.908 136.589L142.028 211.69L108.5 143.22L74.9717 211.69L88.0921 136.589L20.7217 172.275L75.4793 119.229L1.05161e-05 108.5L75.4793 97.7709L20.7217 44.7253L88.0921 80.4109L74.9717 5.31037L108.5 73.78L142.028 5.31037L128.908 80.4109L196.278 44.7253L141.521 97.7709L217 108.5Z" fill="#FFE178"/>
</svg>
