<svg width="355" height="355" viewBox="0 0 355 355" fill="none" xmlns="http://www.w3.org/2000/svg">
<path d="M177.5 0L188.581 121.791L245.426 13.5114L209.056 130.273L303.011 51.9885L224.727 145.944L341.489 109.574L233.209 166.419L355 177.5L233.209 188.581L341.489 245.426L224.727 209.056L303.011 303.011L209.056 224.727L245.426 341.489L188.581 233.209L177.5 355L166.419 233.209L109.574 341.489L145.944 224.727L51.9885 303.011L130.273 209.056L13.5114 245.426L121.791 188.581L0 177.5L121.791 166.419L13.5114 109.574L130.273 145.944L51.9885 51.9885L145.944 130.273L109.574 13.5114L166.419 121.791L177.5 0Z" fill="#FFE178"/>
</svg>
