<svg width="1505" height="1578" viewBox="0 0 1505 1578" fill="none" xmlns="http://www.w3.org/2000/svg">
<path d="M244.577 522.776L302.581 595.039L383.228 640.673L349.649 727.038L350.452 819.698L258.868 833.8L179.024 880.825L121.02 808.562L40.3728 762.928L73.9517 676.563L73.1489 583.903L164.733 569.801L244.577 522.776Z" fill="url(#paint0_linear_1_37)" fill-opacity="0.54"/>
<path d="M244.577 522.776L302.581 595.039L383.228 640.673L349.649 727.038L350.452 819.698L258.868 833.8L179.024 880.825L121.02 808.562L40.3728 762.928L73.9517 676.563L73.1489 583.903L164.733 569.801L244.577 522.776Z" stroke="url(#paint1_angular_1_37)"/>
<path d="M790.666 5.89502L858.746 68.757L945.268 101.928L924.868 192.317L939.402 283.833L850.923 311.361L778.935 369.706L710.855 306.844L624.333 273.673L644.733 183.284L630.199 91.7679L718.678 64.2404L790.666 5.89502Z" fill="url(#paint2_linear_1_37)" fill-opacity="0.54"/>
<path d="M790.666 5.89502L858.746 68.757L945.268 101.928L924.868 192.317L939.402 283.833L850.923 311.361L778.935 369.706L710.855 306.844L624.333 273.673L644.733 183.284L630.199 91.7679L718.678 64.2404L790.666 5.89502Z" stroke="url(#paint3_angular_1_37)"/>
<path d="M1166.64 152.866L1234.72 215.728L1321.24 248.898L1300.84 339.288L1315.37 430.804L1226.89 458.331L1154.91 516.677L1086.83 453.815L1000.3 420.644L1020.7 330.255L1006.17 238.739L1094.65 211.211L1166.64 152.866Z" fill="url(#paint4_linear_1_37)" fill-opacity="0.54"/>
<path d="M1166.64 152.866L1234.72 215.728L1321.24 248.898L1300.84 339.288L1315.37 430.804L1226.89 458.331L1154.91 516.677L1086.83 453.815L1000.3 420.644L1020.7 330.255L1006.17 238.739L1094.65 211.211L1166.64 152.866Z" stroke="url(#paint5_angular_1_37)"/>
<path d="M377.637 110.866L445.716 173.728L532.239 206.898L511.838 297.288L526.373 388.804L437.893 416.331L365.905 474.677L297.826 411.815L211.304 378.644L231.704 288.255L217.169 196.739L305.649 169.211L377.637 110.866Z" fill="url(#paint6_linear_1_37)" fill-opacity="0.54"/>
<path d="M377.637 110.866L445.716 173.728L532.239 206.898L511.838 297.288L526.373 388.804L437.893 416.331L365.905 474.677L297.826 411.815L211.304 378.644L231.704 288.255L217.169 196.739L305.649 169.211L377.637 110.866Z" stroke="url(#paint7_angular_1_37)"/>
<path d="M760.637 1207.87L828.716 1270.73L915.239 1303.9L894.838 1394.29L909.373 1485.8L820.893 1513.33L748.905 1571.68L680.826 1508.81L594.304 1475.64L614.704 1385.25L600.169 1293.74L688.649 1266.21L760.637 1207.87Z" fill="url(#paint8_linear_1_37)" fill-opacity="0.54"/>
<path d="M760.637 1207.87L828.716 1270.73L915.239 1303.9L894.838 1394.29L909.373 1485.8L820.893 1513.33L748.905 1571.68L680.826 1508.81L594.304 1475.64L614.704 1385.25L600.169 1293.74L688.649 1266.21L760.637 1207.87Z" stroke="url(#paint9_angular_1_37)"/>
<path d="M1099.05 1031.17L1185.62 1064.22L1278.27 1062.86L1292.93 1154.35L1340.45 1233.91L1268.54 1292.35L1223.4 1373.28L1136.83 1340.23L1044.18 1341.6L1029.52 1250.1L982.004 1170.54L1053.91 1112.1L1099.05 1031.17Z" fill="url(#paint10_linear_1_37)" fill-opacity="0.54"/>
<path d="M1099.05 1031.17L1185.62 1064.22L1278.27 1062.86L1292.93 1154.35L1340.45 1233.91L1268.54 1292.35L1223.4 1373.28L1136.83 1340.23L1044.18 1341.6L1029.52 1250.1L982.004 1170.54L1053.91 1112.1L1099.05 1031.17Z" stroke="url(#paint11_angular_1_37)"/>
<path d="M198.12 1015.98L290.761 1018.01L377.562 985.571L422.127 1066.81L493.618 1125.77L445.543 1204.98L430.233 1296.37L337.592 1294.35L250.791 1326.78L206.225 1245.54L134.735 1186.59L182.81 1107.37L198.12 1015.98Z" fill="url(#paint12_linear_1_37)" fill-opacity="0.54"/>
<path d="M198.12 1015.98L290.761 1018.01L377.562 985.571L422.127 1066.81L493.618 1125.77L445.543 1204.98L430.233 1296.37L337.592 1294.35L250.791 1326.78L206.225 1245.54L134.735 1186.59L182.81 1107.37L198.12 1015.98Z" stroke="url(#paint13_angular_1_37)"/>
<path d="M1273.17 533.748L1351.11 583.861L1442.07 601.534L1437.65 694.092L1467.82 781.704L1385.45 824.149L1324.67 894.087L1246.72 843.975L1155.76 826.301L1160.19 733.744L1130.01 646.132L1212.38 603.687L1273.17 533.748Z" fill="url(#paint14_linear_1_37)" fill-opacity="0.54"/>
<path d="M1273.17 533.748L1351.11 583.861L1442.07 601.534L1437.65 694.092L1467.82 781.704L1385.45 824.149L1324.67 894.087L1246.72 843.975L1155.76 826.301L1160.19 733.744L1130.01 646.132L1212.38 603.687L1273.17 533.748Z" stroke="url(#paint15_angular_1_37)"/>
<path d="M656.737 1323.79L736.716 1350.01L763.565 1270.24L780.854 1352.61L863.359 1335.98L800.67 1392.13L856.325 1455.27L776.347 1429.06L749.498 1508.82L732.209 1426.46L649.704 1443.09L712.393 1386.93L656.737 1323.79Z" fill="url(#paint16_diamond_1_37)"/>
<path d="M1043.4 1182.85L1127.38 1177.27L1122.48 1093.25L1169.3 1163.19L1239.61 1116.94L1202.44 1192.45L1277.66 1230.22L1193.68 1235.79L1198.58 1319.81L1151.77 1249.87L1081.45 1296.13L1118.62 1220.61L1043.4 1182.85Z" fill="url(#paint17_diamond_1_37)"/>
<path d="M1197.75 674.134L1281.67 680.607L1288.81 596.747L1325.16 672.656L1401.36 636.912L1353.79 706.347L1422.85 754.463L1338.93 747.99L1331.79 831.85L1295.44 755.941L1219.24 791.686L1266.8 722.25L1197.75 674.134Z" fill="url(#paint18_diamond_1_37)"/>
<path d="M1066.85 264.251L1147.77 287.364L1171.53 206.622L1191.98 288.265L1273.78 268.469L1213.3 326.998L1271.35 387.944L1190.42 364.831L1166.66 445.573L1146.21 363.93L1064.41 383.726L1124.89 325.196L1066.85 264.251Z" fill="url(#paint19_diamond_1_37)"/>
<path d="M273.846 236.251L354.775 259.364L378.532 178.622L398.981 260.265L480.783 240.469L420.303 298.998L478.348 359.944L397.42 336.831L373.662 417.573L353.214 335.93L271.411 355.726L331.892 297.196L273.846 236.251Z" fill="url(#paint20_diamond_1_37)"/>
<path d="M682.846 119.251L763.775 142.364L787.532 61.6222L807.981 143.265L889.783 123.469L829.303 181.998L887.348 242.944L806.42 219.831L782.662 300.573L762.214 218.93L680.411 238.726L740.892 180.196L682.846 119.251Z" fill="url(#paint21_diamond_1_37)"/>
<path d="M122.701 619.04L197.954 656.729L236.243 581.779L241.229 665.796L325.283 661.48L255.016 707.806L300.78 778.441L225.527 740.751L187.237 815.701L182.251 731.685L98.1977 736.001L168.465 689.674L122.701 619.04Z" fill="url(#paint22_diamond_1_37)"/>
<path d="M361.104 1043.37L346.922 1126.33L429.767 1141.17L350.83 1170.37L379.399 1249.54L314.643 1195.78L260.366 1260.1L274.548 1177.14L191.703 1162.3L270.639 1133.1L242.071 1053.93L306.827 1107.69L361.104 1043.37Z" fill="url(#paint23_diamond_1_37)"/>
<defs>
<linearGradient id="paint0_linear_1_37" x1="244.577" y1="522.776" x2="179.024" y2="880.825" gradientUnits="userSpaceOnUse">
<stop offset="0.46978" stop-color="#EC2C2C"/>
<stop offset="1" stop-color="#A35757" stop-opacity="0"/>
</linearGradient>
<radialGradient id="paint1_angular_1_37" cx="0" cy="0" r="1" gradientUnits="userSpaceOnUse" gradientTransform="translate(211.8 701.8) rotate(100.375) scale(182)">
<stop offset="0.05" stop-color="#DBBABA"/>
<stop offset="0.235" stop-color="white"/>
<stop offset="0.42" stop-color="#DBBABA"/>
<stop offset="0.625" stop-color="white"/>
<stop offset="0.805" stop-color="#DBBABA"/>
<stop offset="1" stop-color="white" stop-opacity="0"/>
</radialGradient>
<linearGradient id="paint2_linear_1_37" x1="790.666" y1="5.89502" x2="778.935" y2="369.706" gradientUnits="userSpaceOnUse">
<stop offset="0.46978" stop-color="#EC2C2C"/>
<stop offset="1" stop-color="#A35757" stop-opacity="0"/>
</linearGradient>
<radialGradient id="paint3_angular_1_37" cx="0" cy="0" r="1" gradientUnits="userSpaceOnUse" gradientTransform="translate(784.801 187.8) rotate(91.8469) scale(182)">
<stop offset="0.05" stop-color="#DBBABA"/>
<stop offset="0.235" stop-color="white"/>
<stop offset="0.42" stop-color="#DBBABA"/>
<stop offset="0.625" stop-color="white"/>
<stop offset="0.805" stop-color="#DBBABA"/>
<stop offset="1" stop-color="white" stop-opacity="0"/>
</radialGradient>
<linearGradient id="paint4_linear_1_37" x1="1166.64" y1="152.866" x2="1154.91" y2="516.677" gradientUnits="userSpaceOnUse">
<stop offset="0.46978" stop-color="#EC2C2C"/>
<stop offset="1" stop-color="#A35757" stop-opacity="0"/>
</linearGradient>
<radialGradient id="paint5_angular_1_37" cx="0" cy="0" r="1" gradientUnits="userSpaceOnUse" gradientTransform="translate(1160.77 334.771) rotate(91.8469) scale(182)">
<stop offset="0.05" stop-color="#DBBABA"/>
<stop offset="0.235" stop-color="white"/>
<stop offset="0.42" stop-color="#DBBABA"/>
<stop offset="0.625" stop-color="white"/>
<stop offset="0.805" stop-color="#DBBABA"/>
<stop offset="1" stop-color="white" stop-opacity="0"/>
</radialGradient>
<linearGradient id="paint6_linear_1_37" x1="377.637" y1="110.866" x2="365.905" y2="474.677" gradientUnits="userSpaceOnUse">
<stop offset="0.46978" stop-color="#EC2C2C"/>
<stop offset="1" stop-color="#A35757" stop-opacity="0"/>
</linearGradient>
<radialGradient id="paint7_angular_1_37" cx="0" cy="0" r="1" gradientUnits="userSpaceOnUse" gradientTransform="translate(371.771 292.771) rotate(91.8469) scale(182)">
<stop offset="0.05" stop-color="#DBBABA"/>
<stop offset="0.235" stop-color="white"/>
<stop offset="0.42" stop-color="#DBBABA"/>
<stop offset="0.625" stop-color="white"/>
<stop offset="0.805" stop-color="#DBBABA"/>
<stop offset="1" stop-color="white" stop-opacity="0"/>
</radialGradient>
<linearGradient id="paint8_linear_1_37" x1="760.637" y1="1207.87" x2="748.905" y2="1571.68" gradientUnits="userSpaceOnUse">
<stop offset="0.46978" stop-color="#EC2C2C"/>
<stop offset="1" stop-color="#A35757" stop-opacity="0"/>
</linearGradient>
<radialGradient id="paint9_angular_1_37" cx="0" cy="0" r="1" gradientUnits="userSpaceOnUse" gradientTransform="translate(754.771 1389.77) rotate(91.8469) scale(182)">
<stop offset="0.05" stop-color="#DBBABA"/>
<stop offset="0.235" stop-color="white"/>
<stop offset="0.42" stop-color="#DBBABA"/>
<stop offset="0.625" stop-color="white"/>
<stop offset="0.805" stop-color="#DBBABA"/>
<stop offset="1" stop-color="white" stop-opacity="0"/>
</radialGradient>
<linearGradient id="paint10_linear_1_37" x1="1099.05" y1="1031.17" x2="1223.4" y2="1373.28" gradientUnits="userSpaceOnUse">
<stop offset="0.46978" stop-color="#EC2C2C"/>
<stop offset="1" stop-color="#A35757" stop-opacity="0"/>
</linearGradient>
<radialGradient id="paint11_angular_1_37" cx="0" cy="0" r="1" gradientUnits="userSpaceOnUse" gradientTransform="translate(1161.23 1202.23) rotate(70.0244) scale(182)">
<stop offset="0.05" stop-color="#DBBABA"/>
<stop offset="0.235" stop-color="white"/>
<stop offset="0.42" stop-color="#DBBABA"/>
<stop offset="0.625" stop-color="white"/>
<stop offset="0.805" stop-color="#DBBABA"/>
<stop offset="1" stop-color="white" stop-opacity="0"/>
</radialGradient>
<linearGradient id="paint12_linear_1_37" x1="198.12" y1="1015.98" x2="430.233" y2="1296.37" gradientUnits="userSpaceOnUse">
<stop offset="0.46978" stop-color="#EC2C2C"/>
<stop offset="1" stop-color="#A35757" stop-opacity="0"/>
</linearGradient>
<radialGradient id="paint13_angular_1_37" cx="0" cy="0" r="1" gradientUnits="userSpaceOnUse" gradientTransform="translate(314.176 1156.18) rotate(50.3816) scale(182)">
<stop offset="0.05" stop-color="#DBBABA"/>
<stop offset="0.235" stop-color="white"/>
<stop offset="0.42" stop-color="#DBBABA"/>
<stop offset="0.625" stop-color="white"/>
<stop offset="0.805" stop-color="#DBBABA"/>
<stop offset="1" stop-color="white" stop-opacity="0"/>
</radialGradient>
<linearGradient id="paint14_linear_1_37" x1="1273.17" y1="533.748" x2="1324.67" y2="894.087" gradientUnits="userSpaceOnUse">
<stop offset="0.46978" stop-color="#EC2C2C"/>
<stop offset="1" stop-color="#A35757" stop-opacity="0"/>
</linearGradient>
<radialGradient id="paint15_angular_1_37" cx="0" cy="0" r="1" gradientUnits="userSpaceOnUse" gradientTransform="translate(1298.92 713.918) rotate(81.8668) scale(182)">
<stop offset="0.05" stop-color="#DBBABA"/>
<stop offset="0.235" stop-color="white"/>
<stop offset="0.42" stop-color="#DBBABA"/>
<stop offset="0.625" stop-color="white"/>
<stop offset="0.805" stop-color="#DBBABA"/>
<stop offset="1" stop-color="white" stop-opacity="0"/>
</radialGradient>
<radialGradient id="paint16_diamond_1_37" cx="0" cy="0" r="1" gradientUnits="userSpaceOnUse" gradientTransform="translate(756.531 1389.53) rotate(-72.6604) scale(212.295)">
<stop stop-color="#FFE2E2"/>
<stop offset="0.145" stop-color="#F7B5B5" stop-opacity="0.928321"/>
<stop offset="0.9998" stop-color="#F92727"/>
<stop offset="0.9999" stop-color="#FEDFDF" stop-opacity="0.0705741"/>
<stop offset="1" stop-color="#FFE2E2" stop-opacity="0"/>
</radialGradient>
<radialGradient id="paint17_diamond_1_37" cx="0" cy="0" r="1" gradientUnits="userSpaceOnUse" gradientTransform="translate(1160.53 1206.53) rotate(-94.6022) scale(212.295)">
<stop stop-color="#FFE2E2"/>
<stop offset="0.145" stop-color="#F7B5B5" stop-opacity="0.928321"/>
<stop offset="0.9998" stop-color="#F92727"/>
<stop offset="0.9999" stop-color="#FEDFDF" stop-opacity="0.0705741"/>
<stop offset="1" stop-color="#FFE2E2" stop-opacity="0"/>
</radialGradient>
<radialGradient id="paint18_diamond_1_37" cx="0" cy="0" r="1" gradientUnits="userSpaceOnUse" gradientTransform="translate(1310.3 714.299) rotate(-86.3947) scale(212.295)">
<stop stop-color="#FFE2E2"/>
<stop offset="0.145" stop-color="#F7B5B5" stop-opacity="0.928321"/>
<stop offset="0.9998" stop-color="#F92727"/>
<stop offset="0.9999" stop-color="#FEDFDF" stop-opacity="0.0705741"/>
<stop offset="1" stop-color="#FFE2E2" stop-opacity="0"/>
</radialGradient>
<radialGradient id="paint19_diamond_1_37" cx="0" cy="0" r="1" gradientUnits="userSpaceOnUse" gradientTransform="translate(1169.1 326.097) rotate(-74.8669) scale(212.295)">
<stop stop-color="#FFE2E2"/>
<stop offset="0.145" stop-color="#F7B5B5" stop-opacity="0.928321"/>
<stop offset="0.9998" stop-color="#F92727"/>
<stop offset="0.9999" stop-color="#FEDFDF" stop-opacity="0.0705741"/>
<stop offset="1" stop-color="#FFE2E2" stop-opacity="0"/>
</radialGradient>
<radialGradient id="paint20_diamond_1_37" cx="0" cy="0" r="1" gradientUnits="userSpaceOnUse" gradientTransform="translate(376.097 298.097) rotate(-74.8669) scale(212.295)">
<stop stop-color="#FFE2E2"/>
<stop offset="0.145" stop-color="#F7B5B5" stop-opacity="0.928321"/>
<stop offset="0.9998" stop-color="#F92727"/>
<stop offset="0.9999" stop-color="#FEDFDF" stop-opacity="0.0705741"/>
<stop offset="1" stop-color="#FFE2E2" stop-opacity="0"/>
</radialGradient>
<radialGradient id="paint21_diamond_1_37" cx="0" cy="0" r="1" gradientUnits="userSpaceOnUse" gradientTransform="translate(785.097 181.097) rotate(-74.8669) scale(212.295)">
<stop stop-color="#FFE2E2"/>
<stop offset="0.145" stop-color="#F7B5B5" stop-opacity="0.928321"/>
<stop offset="0.9998" stop-color="#F92727"/>
<stop offset="0.9999" stop-color="#FEDFDF" stop-opacity="0.0705741"/>
<stop offset="1" stop-color="#FFE2E2" stop-opacity="0"/>
</radialGradient>
<radialGradient id="paint22_diamond_1_37" cx="0" cy="0" r="1" gradientUnits="userSpaceOnUse" gradientTransform="translate(211.74 698.74) rotate(-64.2024) scale(212.295)">
<stop stop-color="#FFE2E2"/>
<stop offset="0.145" stop-color="#F7B5B5" stop-opacity="0.928321"/>
<stop offset="0.9998" stop-color="#F92727"/>
<stop offset="0.9999" stop-color="#FEDFDF" stop-opacity="0.0705741"/>
<stop offset="1" stop-color="#FFE2E2" stop-opacity="0"/>
</radialGradient>
<radialGradient id="paint23_diamond_1_37" cx="0" cy="0" r="1" gradientUnits="userSpaceOnUse" gradientTransform="translate(310.735 1151.73) rotate(8.89448) scale(212.295)">
<stop stop-color="#FFE2E2"/>
<stop offset="0.145" stop-color="#F7B5B5" stop-opacity="0.928321"/>
<stop offset="0.9998" stop-color="#F92727"/>
<stop offset="0.9999" stop-color="#FEDFDF" stop-opacity="0.0705741"/>
<stop offset="1" stop-color="#FFE2E2" stop-opacity="0"/>
</radialGradient>
</defs>
</svg>
