<svg width="422" height="339" viewBox="0 0 422 339" fill="none" xmlns="http://www.w3.org/2000/svg">
<path d="M105.056 181L316.944 181L421.444 3.67952e-05L0.555908 0L105.056 181Z" fill="url(#paint0_linear_904_6448)"/>
<path d="M105.056 259L316.944 259L421.444 78L0.555908 78L105.056 259Z" fill="url(#paint1_linear_904_6448)"/>
<path d="M105.5 339L317.388 339L421.888 158L1 158L105.5 339Z" fill="url(#paint2_linear_904_6448)"/>
<path d="M211.5 296L225.789 320.75H197.211L211.5 296Z" fill="#59FFFF"/>
<path d="M211.5 216L225.789 240.75H197.211L211.5 216Z" fill="#59FFFF"/>
<path d="M211.5 136L225.789 160.75H197.211L211.5 136Z" fill="#59FFFF"/>
<defs>
<linearGradient id="paint0_linear_904_6448" x1="211" y1="181" x2="211" y2="9" gradientUnits="userSpaceOnUse">
<stop stop-color="#D9D9D9"/>
<stop offset="1" stop-color="#D9D9D9" stop-opacity="0"/>
</linearGradient>
<linearGradient id="paint1_linear_904_6448" x1="211" y1="259" x2="211" y2="87" gradientUnits="userSpaceOnUse">
<stop stop-color="#D9D9D9"/>
<stop offset="1" stop-color="#D9D9D9" stop-opacity="0"/>
</linearGradient>
<linearGradient id="paint2_linear_904_6448" x1="211.444" y1="339" x2="211.444" y2="167" gradientUnits="userSpaceOnUse">
<stop stop-color="#D9D9D9"/>
<stop offset="1" stop-color="#D9D9D9" stop-opacity="0"/>
</linearGradient>
</defs>
</svg>
