<svg width="937" height="933" viewBox="0 0 937 933" fill="none" xmlns="http://www.w3.org/2000/svg">
<path d="M229.324 700.963C210.135 712.212 189.995 687.396 204.952 670.933V670.933C211.827 663.366 211.3 651.548 203.67 644.744L201.139 642.487C185.464 628.51 202.437 603.602 221.179 613.079V613.079C230.682 617.883 242.284 613.325 246.076 603.374V603.374C253.691 583.385 283.704 589.592 282.018 610.916L281.576 616.503C280.765 626.766 288.147 635.862 298.358 637.181L303.916 637.898C325.131 640.636 325.028 671.285 303.899 674.623V674.623C293.381 676.285 286.533 686.701 289.279 696.99V696.99C294.695 717.281 266.828 728.765 256.376 710.549L254.688 707.608C249.601 698.741 238.143 695.793 229.324 700.963V700.963Z" fill="url(#paint0_linear_4_84)"/>
<path d="M257.422 681.041L258.502 682.78C262.173 688.692 271.268 684.554 269.223 677.902C266.945 670.49 271.697 662.783 279.27 661.371C282.876 660.699 284.618 657.855 284.548 654.849C284.479 651.867 282.657 649.263 279.077 648.898L275.702 648.554C268.467 647.817 263.054 641.578 263.344 634.312L263.48 630.921C263.623 627.326 261.303 625.155 258.361 624.666C255.394 624.172 252.333 625.496 251.159 628.972C248.693 636.269 240.393 639.887 233.377 636.586C227.08 633.623 221.7 642.043 227.035 646.512L228.605 647.826C234.246 652.551 234.857 660.987 230.149 666.544C225.101 672.503 232.498 681.028 239.109 676.871C245.275 672.995 253.54 674.789 257.422 681.041Z" stroke="url(#paint1_linear_4_84)" stroke-width="7"/>
<path d="M149.96 173.369C143.382 176.873 136.787 168.498 141.989 163.247V163.247C144.393 160.82 144.311 156.907 141.773 154.577L141.007 153.875C135.794 149.092 141.755 141.028 148.052 144.345V144.345C151.235 146.021 155.198 144.647 156.578 141.413V141.413C159.353 134.903 169.47 137.323 168.689 144.342L168.503 146.014C168.127 149.397 170.56 152.487 174.02 153.019L175.729 153.282C182.908 154.387 182.665 164.504 175.471 165.404V165.404C171.897 165.851 169.495 169.207 170.328 172.63V172.63C171.975 179.402 162.404 182.881 159.015 176.741L158.518 175.84C156.867 172.851 153 171.75 149.96 173.369V173.369Z" fill="url(#paint2_linear_4_84)"/>
<path d="M152.444 163.465C155.386 161.871 159.119 162.606 161.193 165.179C161.107 162.325 162.967 159.722 165.755 158.803C162.2 158.268 159.617 155.203 159.78 151.711C158.301 154.185 155.307 155.441 152.444 154.795C154.631 157.279 154.634 160.979 152.444 163.465Z" stroke="url(#paint3_linear_4_84)" stroke-width="7"/>
<path d="M772.96 804.369C766.382 807.873 759.787 799.498 764.989 794.247V794.247C767.393 791.82 767.311 787.907 764.773 785.577L764.007 784.875C758.794 780.092 764.755 772.028 771.052 775.345V775.345C774.235 777.021 778.198 775.647 779.578 772.413V772.413C782.353 765.903 792.47 768.323 791.689 775.342L791.503 777.014C791.127 780.397 793.56 783.487 797.02 784.019L798.729 784.282C805.908 785.387 805.665 795.504 798.471 796.404V796.404C794.897 796.851 792.495 800.207 793.328 803.63V803.63C794.975 810.402 785.404 813.881 782.015 807.741L781.518 806.84C779.867 803.851 776 802.75 772.96 804.369V804.369Z" fill="url(#paint4_linear_4_84)"/>
<path d="M775.444 794.465C778.386 792.871 782.119 793.606 784.193 796.179C784.107 793.325 785.967 790.722 788.755 789.803C785.2 789.268 782.617 786.203 782.78 782.711C781.301 785.185 778.307 786.441 775.444 785.795C777.631 788.279 777.634 791.979 775.444 794.465Z" stroke="url(#paint5_linear_4_84)" stroke-width="7"/>
<path d="M149.96 806.369C143.382 809.873 136.787 801.498 141.989 796.247V796.247C144.393 793.82 144.311 789.907 141.773 787.577L141.007 786.875C135.794 782.092 141.755 774.028 148.052 777.345V777.345C151.235 779.021 155.198 777.647 156.578 774.413V774.413C159.353 767.903 169.47 770.323 168.689 777.342L168.503 779.014C168.127 782.397 170.56 785.487 174.02 786.019L175.729 786.282C182.908 787.387 182.665 797.504 175.471 798.404V798.404C171.897 798.851 169.495 802.207 170.328 805.63V805.63C171.975 812.402 162.404 815.881 159.015 809.741L158.518 808.84C156.867 805.851 153 804.75 149.96 806.369V806.369Z" fill="url(#paint6_linear_4_84)"/>
<path d="M152.444 796.465C155.386 794.871 159.119 795.606 161.193 798.179C161.107 795.325 162.967 792.722 165.755 791.803C162.2 791.268 159.617 788.203 159.78 784.711C158.301 787.185 155.307 788.441 152.444 787.795C154.631 790.279 154.634 793.979 152.444 796.465Z" stroke="url(#paint7_linear_4_84)" stroke-width="7"/>
<path d="M212.187 233.206C200.019 214.586 223.828 193.264 240.998 207.404V207.404C248.889 213.903 260.668 212.803 267.093 204.851L269.225 202.214C282.424 185.878 308.126 201.622 299.572 220.802V220.802C295.234 230.527 300.35 241.894 310.474 245.198V245.198C330.809 251.833 326.067 282.113 304.687 281.464L299.085 281.294C288.794 280.982 280.067 288.797 279.247 299.06L278.8 304.647C277.095 325.969 246.478 327.355 242.117 306.414V306.414C239.946 295.989 229.21 289.654 219.067 292.897V292.897C199.063 299.292 186.239 272.016 203.926 260.691L206.782 258.863C215.391 253.35 217.779 241.763 212.187 233.206V233.206Z" fill="url(#paint8_linear_4_84)"/>
<path d="M233.45 260.302L231.766 261.465C226.039 265.419 230.614 274.302 237.158 271.937C244.451 269.301 252.38 273.673 254.158 281.168C255.004 284.738 257.929 286.34 260.929 286.124C263.903 285.91 266.415 283.963 266.606 280.37L266.786 276.982C267.171 269.72 273.139 264.01 280.411 263.947L283.804 263.918C287.402 263.887 289.459 261.464 289.804 258.501C290.153 255.514 288.682 252.521 285.154 251.517C277.745 249.409 273.728 241.294 276.685 234.126C279.338 227.692 270.666 222.728 266.462 228.274L265.225 229.905C260.78 235.769 252.384 236.789 246.605 232.357C240.408 227.605 232.252 235.406 236.725 241.808C240.897 247.778 239.505 256.121 233.45 260.302Z" stroke="url(#paint9_linear_4_84)" stroke-width="7"/>
<path d="M726.351 697.29C738.994 715.59 715.743 737.518 698.214 723.826V723.826C690.158 717.532 678.411 718.936 672.193 727.05L670.131 729.742C657.357 746.412 631.257 731.337 639.314 711.942V711.942C643.4 702.108 637.992 690.877 627.787 687.836V687.836C607.288 681.726 611.247 651.335 632.638 651.432L638.242 651.457C648.537 651.504 657.06 643.467 657.616 633.186L657.918 627.59C659.073 606.23 689.644 604.056 694.543 624.878V624.878C696.982 635.243 707.878 641.299 717.934 637.796V637.796C737.767 630.887 751.289 657.824 733.9 669.601L731.093 671.502C722.628 677.235 720.54 688.88 726.351 697.29V697.29Z" fill="url(#paint10_linear_4_84)"/>
<path d="M704.396 670.75L706.05 669.544C711.673 665.443 706.871 656.681 700.389 659.214C693.167 662.037 685.128 657.871 683.157 650.424C682.219 646.878 679.254 645.352 676.261 645.645C673.293 645.935 670.832 647.946 670.734 651.543L670.641 654.935C670.444 662.204 664.624 668.066 657.356 668.316L653.965 668.433C650.369 668.557 648.376 671.032 648.107 674.002C647.836 676.998 649.383 679.952 652.936 680.864C660.397 682.781 664.621 690.79 661.851 698.032C659.364 704.532 668.161 709.27 672.221 703.618L673.415 701.956C677.707 695.979 686.075 694.743 691.966 699.024C698.284 703.616 706.235 695.606 701.599 689.322C697.275 683.462 698.45 675.086 704.396 670.75Z" stroke="url(#paint11_linear_4_84)" stroke-width="7"/>
<path d="M695.619 217.641C714.331 205.616 735.469 229.589 721.198 246.649V246.649C714.638 254.49 715.648 266.278 723.55 272.764L726.171 274.915C742.404 288.24 726.464 313.82 707.35 305.118V305.118C697.658 300.706 686.252 305.735 682.871 315.832V315.832C676.079 336.116 645.837 331.142 646.65 309.767L646.863 304.166C647.254 293.878 639.507 285.091 629.25 284.192L623.667 283.702C602.359 281.833 601.208 251.207 622.183 247.007V247.007C632.624 244.916 639.041 234.229 635.876 224.062V224.062C629.635 204.009 657.009 191.395 668.197 209.169L670.004 212.038C675.45 220.69 687.018 223.167 695.619 217.641V217.641Z" fill="url(#paint12_linear_4_84)"/>
<path d="M668.359 238.696L667.209 237.002C663.299 231.246 654.38 235.752 656.696 242.315C659.275 249.627 654.842 257.522 647.334 259.242C643.758 260.061 642.133 262.974 642.326 265.975C642.517 268.951 644.444 271.478 648.036 271.696L651.423 271.902C658.682 272.343 664.345 278.355 664.352 285.628L664.355 289.021C664.359 292.619 666.766 294.694 669.726 295.062C672.71 295.434 675.714 293.986 676.745 290.465C678.911 283.073 687.056 279.119 694.202 282.13C700.614 284.833 705.645 276.2 700.132 271.953L698.51 270.704C692.68 266.214 691.725 257.81 696.201 252.065C701.001 245.905 693.263 237.689 686.827 242.113C680.825 246.239 672.493 244.783 668.359 238.696Z" stroke="url(#paint13_linear_4_84)" stroke-width="7"/>
<path d="M765.96 173.369C759.382 176.873 752.787 168.498 757.989 163.247V163.247C760.393 160.82 760.311 156.907 757.773 154.577L757.007 153.875C751.794 149.092 757.755 141.028 764.052 144.345V144.345C767.235 146.021 771.198 144.647 772.578 141.413V141.413C775.353 134.903 785.47 137.323 784.689 144.342L784.503 146.014C784.127 149.397 786.56 152.487 790.02 153.019L791.729 153.282C798.908 154.387 798.665 164.504 791.471 165.404V165.404C787.897 165.851 785.495 169.207 786.328 172.63V172.63C787.975 179.402 778.404 182.881 775.015 176.741L774.518 175.84C772.867 172.851 769 171.75 765.96 173.369V173.369Z" fill="url(#paint14_linear_4_84)"/>
<path d="M768.444 163.465C771.386 161.871 775.119 162.606 777.193 165.179C777.107 162.325 778.967 159.722 781.755 158.803C778.2 158.268 775.617 155.203 775.78 151.711C774.301 154.185 771.307 155.441 768.444 154.795C770.631 157.279 770.634 160.979 768.444 163.465Z" stroke="url(#paint15_linear_4_84)" stroke-width="7"/>
<defs>
<linearGradient id="paint0_linear_4_84" x1="160.882" y1="739.365" x2="324.204" y2="589.214" gradientUnits="userSpaceOnUse">
<stop stop-color="#00FFA3"/>
<stop offset="1" stop-color="#22F0D7" stop-opacity="0"/>
</linearGradient>
<linearGradient id="paint1_linear_4_84" x1="183.914" y1="715.71" x2="321.484" y2="596.35" gradientUnits="userSpaceOnUse">
<stop stop-color="#F04722" stop-opacity="0"/>
<stop offset="0.38" stop-color="#FF2E00" stop-opacity="0.39"/>
<stop offset="1" stop-color="#FF5C00"/>
</linearGradient>
<linearGradient id="paint2_linear_4_84" x1="126.377" y1="185.372" x2="181.798" y2="135.868" gradientUnits="userSpaceOnUse">
<stop stop-color="#00FFA3"/>
<stop offset="1" stop-color="#22F0D7" stop-opacity="0"/>
</linearGradient>
<linearGradient id="paint3_linear_4_84" x1="134.418" y1="177.798" x2="181.109" y2="138.457" gradientUnits="userSpaceOnUse">
<stop stop-color="#F04722" stop-opacity="0"/>
<stop offset="0.38" stop-color="#FF2E00" stop-opacity="0.39"/>
<stop offset="1" stop-color="#FF5C00"/>
</linearGradient>
<linearGradient id="paint4_linear_4_84" x1="749.377" y1="816.372" x2="804.798" y2="766.868" gradientUnits="userSpaceOnUse">
<stop stop-color="#00FFA3"/>
<stop offset="1" stop-color="#22F0D7" stop-opacity="0"/>
</linearGradient>
<linearGradient id="paint5_linear_4_84" x1="757.418" y1="808.798" x2="804.109" y2="769.457" gradientUnits="userSpaceOnUse">
<stop stop-color="#F04722" stop-opacity="0"/>
<stop offset="0.38" stop-color="#FF2E00" stop-opacity="0.39"/>
<stop offset="1" stop-color="#FF5C00"/>
</linearGradient>
<linearGradient id="paint6_linear_4_84" x1="126.377" y1="818.372" x2="181.798" y2="768.868" gradientUnits="userSpaceOnUse">
<stop stop-color="#00FFA3"/>
<stop offset="1" stop-color="#22F0D7" stop-opacity="0"/>
</linearGradient>
<linearGradient id="paint7_linear_4_84" x1="134.418" y1="810.798" x2="181.109" y2="771.457" gradientUnits="userSpaceOnUse">
<stop stop-color="#F04722" stop-opacity="0"/>
<stop offset="0.38" stop-color="#FF2E00" stop-opacity="0.39"/>
<stop offset="1" stop-color="#FF5C00"/>
</linearGradient>
<linearGradient id="paint8_linear_4_84" x1="170.506" y1="166.709" x2="328.412" y2="322.547" gradientUnits="userSpaceOnUse">
<stop stop-color="#00FFA3"/>
<stop offset="1" stop-color="#22F0D7" stop-opacity="0"/>
</linearGradient>
<linearGradient id="paint9_linear_4_84" x1="195.252" y1="188.564" x2="321.152" y2="320.175" gradientUnits="userSpaceOnUse">
<stop stop-color="#F04722" stop-opacity="0"/>
<stop offset="0.38" stop-color="#FF2E00" stop-opacity="0.39"/>
<stop offset="1" stop-color="#FF5C00"/>
</linearGradient>
<linearGradient id="paint10_linear_4_84" x1="769.732" y1="762.69" x2="607.862" y2="610.975" gradientUnits="userSpaceOnUse">
<stop stop-color="#00FFA3"/>
<stop offset="1" stop-color="#22F0D7" stop-opacity="0"/>
</linearGradient>
<linearGradient id="paint11_linear_4_84" x1="744.431" y1="741.479" x2="615.18" y2="613.157" gradientUnits="userSpaceOnUse">
<stop stop-color="#F04722" stop-opacity="0"/>
<stop offset="0.38" stop-color="#FF2E00" stop-opacity="0.39"/>
<stop offset="1" stop-color="#FF5C00"/>
</linearGradient>
<linearGradient id="paint12_linear_4_84" x1="762.434" y1="176.472" x2="605.386" y2="333.175" gradientUnits="userSpaceOnUse">
<stop stop-color="#00FFA3"/>
<stop offset="1" stop-color="#22F0D7" stop-opacity="0"/>
</linearGradient>
<linearGradient id="paint13_linear_4_84" x1="740.388" y1="201.05" x2="607.813" y2="325.935" gradientUnits="userSpaceOnUse">
<stop stop-color="#F04722" stop-opacity="0"/>
<stop offset="0.38" stop-color="#FF2E00" stop-opacity="0.39"/>
<stop offset="1" stop-color="#FF5C00"/>
</linearGradient>
<linearGradient id="paint14_linear_4_84" x1="742.377" y1="185.372" x2="797.798" y2="135.868" gradientUnits="userSpaceOnUse">
<stop stop-color="#00FFA3"/>
<stop offset="1" stop-color="#22F0D7" stop-opacity="0"/>
</linearGradient>
<linearGradient id="paint15_linear_4_84" x1="750.418" y1="177.798" x2="797.109" y2="138.457" gradientUnits="userSpaceOnUse">
<stop stop-color="#F04722" stop-opacity="0"/>
<stop offset="0.38" stop-color="#FF2E00" stop-opacity="0.39"/>
<stop offset="1" stop-color="#FF5C00"/>
</linearGradient>
</defs>
</svg>
