<?xml version="1.0" encoding="utf-8"?>
<!-- Generator: Adobe Illustrator 27.9.0, SVG Export Plug-In . SVG Version: 6.00 Build 0)  -->
<svg version="1.1" xmlns="http://www.w3.org/2000/svg" xmlns:xlink="http://www.w3.org/1999/xlink" x="0px" y="0px"
	 viewBox="0 0 634.21 238.98" style="enable-background:new 0 0 634.21 238.98;" xml:space="preserve">
<style type="text/css">
	.st0{fill:#19283B;}
	.st1{fill:#0C1723;}
	.st2{fill:#F9D153;}
	.st3{fill:#466677;}
	.st4{fill:#3C5966;}
	.st5{opacity:0.5;}
	.st6{fill:#FFFFFF;}
	.st7{fill:#E5A638;}
	.st8{fill:#CC7A27;}
	.st9{fill:#494F5B;}
	.st10{fill:#C1E0F4;}
	.st11{fill:#7B98BA;}
	.st12{fill:#546E87;}
	.st13{fill:#8E5420;}
	.st14{fill:#A31332;}
	.st15{fill:#FF6333;}
	.st16{fill:#DCF1FF;}
	.st17{fill:#DFE5F5;}
	.st18{clip-path:url(#SVGID_00000142893655051721419830000008311739858022518156_);}
	.st19{fill:#F2F7F9;}
</style>
<g id="BACKGROUND">
</g>
<g id="OBJECTS">
	<g>
		<g>
			<g>
				<g>
					<ellipse class="st0" cx="68.68" cy="183.11" rx="37.1" ry="52"/>
				</g>
			</g>
			<g>
				<g>
					<rect x="68.18" y="131.11" class="st0" width="42.36" height="104.01"/>
				</g>
			</g>
			<g>
				<g>
					<ellipse class="st1" cx="110.72" cy="183.11" rx="37.1" ry="52"/>
				</g>
			</g>
		</g>
		<g>
			<g>
				<g>
					<ellipse class="st0" cx="381.72" cy="183.11" rx="37.1" ry="52"/>
				</g>
			</g>
			<g>
				<g>
					<rect x="381.22" y="131.11" class="st0" width="42.36" height="104.01"/>
				</g>
			</g>
			<g>
				<g>
					<ellipse class="st1" cx="423.76" cy="183.11" rx="37.1" ry="52"/>
				</g>
			</g>
		</g>
		<g>
			<g>
				<path class="st2" d="M155.42,83.23l58.85-58.47c2.78-2.77,6.25-4.62,10.01-5.38c16.52-3.31,68.88-11.43,173.8-8.33
					c130.57,3.86,177.91,86.08,177.91,86.08h-411.2L155.42,83.23z"/>
			</g>
		</g>
		<g>
			<g>
				<path class="st0" d="M350.77,95.38l25.99-59.31c3.11-7.1-1.88-15.19-9.29-15.05l-138.04,2.52c-4.71,0.09-9.21,2.05-12.61,5.49
					l-61.39,62.15L350.77,95.38z"/>
			</g>
			<g>
				<path class="st3" d="M162.45,88.32l56.5-57.19c2.86-2.89,6.6-4.52,10.53-4.6l138.17-2.53c2.31,0,4.4,1.17,5.74,3.22
					c1.48,2.27,1.71,5.12,0.61,7.63l-25.19,57.48L162.45,88.32z"/>
			</g>
			<g>
				<polygon class="st4" points="366.13,52.83 197.51,52.83 162.45,88.32 348.82,92.33 				"/>
			</g>
			<g class="st5">
				<g>
					<polygon class="st6" points="242.22,26.3 210.08,40.1 162.45,88.32 178.68,88.67 327.53,24.74 					"/>
				</g>
				<g>
					<path class="st6" d="M373.44,36.15l0.57-1.3c1.1-2.51,0.87-5.36-0.61-7.63c-1.34-2.05-3.43-3.22-5.74-3.22l-3.1,0.06
						L212.43,89.39l35.27,0.76L373.44,36.15z"/>
				</g>
			</g>
		</g>
		<g>
			<g>
				<path class="st1" d="M244.35,74.59H194.7c-1.51,0-2.74,1.3-2.74,2.9l0,0c0,1.59,1.23,2.9,2.74,2.9h49.65
					c1.51,0,2.74-1.3,2.74-2.9l0,0C247.1,75.89,245.86,74.59,244.35,74.59z"/>
			</g>
		</g>
		<g>
			<g>
				<path class="st1" d="M323.87,76.75l-49.63-1.24c-1.51-0.04-2.77,1.23-2.81,2.83l0,0c-0.04,1.59,1.17,2.93,2.68,2.96l49.63,1.24
					c1.51,0.04,2.77-1.23,2.81-2.83l0,0C326.58,78.12,325.38,76.78,323.87,76.75z"/>
			</g>
		</g>
		<g>
			<g>
				<path class="st7" d="M341.54,116.74l15.59-35.71c-37.11-1.72-91.81-2.86-171.7-2.86C-4.76,78.16,12.5,115.7,12.5,115.7
					l35.22,16.9H431.7l-4.55-15.86H341.54z"/>
			</g>
		</g>
		<g>
			<g>
				<path class="st2" d="M219.53,115.7c0,0-13.91-33.11,175.56-30.29l41.1-12.35l159.16,8.16c8.87,0.46,17.23,4.56,23.28,11.43
					l3.55,4.03l-18.08,24.7l-380.41,14.13L219.53,115.7z"/>
			</g>
		</g>
		<g>
			<path class="st8" d="M219.53,115.7c-0.36-1.4-0.16-2.9,0.27-4.29l0.39-1.03c0.12-0.35,0.34-0.65,0.51-0.97l0.54-0.96l0.67-0.87
				l0.68-0.87c0.23-0.29,0.51-0.52,0.77-0.79c0.53-0.5,1.03-1.05,1.6-1.51c1.17-0.86,2.28-1.86,3.56-2.55l1.87-1.13
				c0.62-0.39,1.3-0.66,1.94-0.99c1.31-0.62,2.6-1.33,3.97-1.8c1.36-0.51,2.7-1.07,4.07-1.55l4.15-1.29
				c1.38-0.47,2.79-0.77,4.19-1.11l4.22-1.01c2.83-0.56,5.67-1.08,8.51-1.58l8.52-1.27l8.54-1.1l8.56-0.97
				c2.86-0.29,5.71-0.56,8.57-0.81c5.72-0.5,11.45-0.92,17.18-1.21c11.46-0.61,22.95-0.9,34.42-0.51
				c-11.45,0.65-22.87,1.5-34.27,2.52c-2.85,0.24-5.7,0.52-8.55,0.81c-2.85,0.25-5.69,0.57-8.54,0.86
				c-5.69,0.63-11.37,1.27-17.04,1.98l-8.5,1.12l-8.49,1.2l-8.42,1.41l-4.16,0.89c-1.39,0.3-2.78,0.58-4.14,0.97l-4.11,1.1
				c-1.35,0.41-2.68,0.9-4.02,1.34c-1.36,0.42-2.64,1-3.94,1.54c-0.64,0.29-1.32,0.51-1.94,0.85l-1.86,0.99
				c-1.28,0.61-2.39,1.46-3.58,2.21c-0.58,0.4-1.08,0.89-1.62,1.33c-0.26,0.23-0.55,0.44-0.79,0.7l-0.7,0.77l-0.71,0.77l-0.59,0.86
				c-0.18,0.3-0.43,0.56-0.57,0.88l-0.46,0.95C219.68,112.85,219.32,114.27,219.53,115.7z"/>
		</g>
		<g>
			<g>
				<path class="st7" d="M255.78,102.46l366.38-5.78l6.66,20.71c2.24,6.97,1.45,14.64-2.16,20.93l-8.21,14.31l-127.52,49.84
					c-10.22,3.68-20.95,5.55-31.75,5.55h-224.2l-12.1-72.24C214.2,102.75,255.78,102.46,255.78,102.46z"/>
			</g>
		</g>
		<g>
			<path class="st8" d="M297.16,101.81c17.39-0.99,34.78-1.64,52.18-2.24c8.7-0.26,17.4-0.56,26.1-0.75
				c8.7-0.22,17.4-0.44,26.1-0.59c8.7-0.16,17.4-0.36,26.1-0.43l13.05-0.14l13.05-0.04c17.41,0.04,34.81,0.17,52.23,0.89
				c-17.39,1.27-34.78,1.95-52.17,2.53l-13.05,0.37l-13.05,0.28c-8.7,0.2-17.4,0.28-26.1,0.39c-8.7,0.13-17.4,0.18-26.1,0.24
				c-8.7,0.08-17.4,0.06-26.11,0.07C331.98,102.35,314.57,102.24,297.16,101.81z"/>
		</g>
		<g>
			<path class="st8" d="M223.66,140.34l11.34,67.7h224.2c10.8,0,21.53-1.88,31.75-5.55l127.52-49.84l7.06-12.3H223.66z"/>
		</g>
		<g>
			<g>
				<polygon class="st1" points="466.14,203.94 475.5,203.94 550.47,181.06 595.65,164.8 600.27,118.83 466.14,118.83 				"/>
			</g>
		</g>
		<g>
			<g>
				<g>
					<ellipse class="st0" cx="511.97" cy="183.67" rx="36.02" ry="50.48"/>
				</g>
			</g>
			<g>
				<g>
					<rect x="511.48" y="133.19" class="st0" width="41.12" height="100.97"/>
				</g>
			</g>
			<g>
				<g>
					<ellipse class="st9" cx="552.78" cy="183.67" rx="36.02" ry="50.48"/>
				</g>
			</g>
			<g>
				<g>
					<ellipse class="st10" cx="552.78" cy="183.67" rx="20.94" ry="35.88"/>
				</g>
				<g>
					<path class="st11" d="M552.78,216.55c-7.49,0-17.94-12.51-17.94-32.88c0-20.37,10.45-32.88,17.94-32.88
						c7.49,0,17.94,12.51,17.94,32.88C570.72,204.04,560.27,216.55,552.78,216.55z"/>
				</g>
				<g>
					<ellipse class="st12" cx="542.58" cy="183.67" rx="7.74" ry="16.44"/>
				</g>
				<g>
					<path class="st11" d="M542.49,195.35c-2.53,0-6.07-4.9-6.07-12.89s3.54-12.89,6.07-12.89c2.54,0,6.07,4.9,6.07,12.89
						S545.02,195.35,542.49,195.35z"/>
				</g>
				<g>
					<path class="st10" d="M544.51,182.7c-1.35,0.28-3.7-1.58-4.48-5.26c-0.78-3.68,0.62-6.34,1.97-6.63
						c1.35-0.28,3.7,1.58,4.48,5.26C547.25,179.76,545.85,182.42,544.51,182.7z"/>
				</g>
				<g>
					<path class="st12" d="M552.78,150.8c-2.29,0-4.86,1.18-7.32,3.38c6.67,0.69,15.46,11.78,15.46,29.49
						c0,17.71-8.79,28.8-15.46,29.49c2.46,2.21,5.03,3.38,7.32,3.38c7.49,0,17.94-12.51,17.94-32.88
						C570.72,163.3,560.27,150.8,552.78,150.8z"/>
				</g>
			</g>
		</g>
		<g>
			<g>
				<rect x="244.27" y="118.83" class="st1" width="134.13" height="89.2"/>
			</g>
		</g>
		<g>
			<g>
				<g>
					<ellipse class="st0" cx="285.48" cy="183.67" rx="36.02" ry="50.48"/>
				</g>
			</g>
			<g>
				<g>
					<rect x="285" y="133.19" class="st0" width="41.12" height="100.97"/>
				</g>
			</g>
			<g>
				<g>
					<ellipse class="st9" cx="326.29" cy="183.67" rx="36.02" ry="50.48"/>
				</g>
			</g>
			<g>
				<g>
					<ellipse class="st10" cx="326.29" cy="183.67" rx="20.94" ry="35.88"/>
				</g>
				<g>
					<path class="st11" d="M326.29,216.55c-7.49,0-17.94-12.51-17.94-32.88c0-20.37,10.45-32.88,17.94-32.88
						c7.49,0,17.94,12.51,17.94,32.88C344.23,204.04,333.78,216.55,326.29,216.55z"/>
				</g>
				<g>
					<path class="st12" d="M316.09,200.11c-3.23,0-7.74-6.25-7.74-16.44c0-10.18,4.51-16.44,7.74-16.44c3.23,0,7.74,6.25,7.74,16.44
						C323.83,193.86,319.32,200.11,316.09,200.11z"/>
				</g>
				<g>
					<path class="st11" d="M316,195.35c-2.53,0-6.07-4.9-6.07-12.89s3.54-12.89,6.07-12.89c2.54,0,6.07,4.9,6.07,12.89
						S318.54,195.35,316,195.35z"/>
				</g>
				<g>
					<path class="st10" d="M318.02,182.7c-1.35,0.28-3.7-1.58-4.48-5.26c-0.78-3.68,0.62-6.34,1.97-6.63
						c1.35-0.28,3.7,1.58,4.48,5.26C320.77,179.76,319.37,182.42,318.02,182.7z"/>
				</g>
				<g>
					<path class="st12" d="M326.29,150.8c-2.29,0-4.86,1.18-7.32,3.38c6.67,0.69,15.46,11.78,15.46,29.49
						c0,17.71-8.79,28.8-15.46,29.49c2.46,2.21,5.03,3.38,7.32,3.38c7.49,0,17.94-12.51,17.94-32.88
						C344.23,163.3,333.78,150.8,326.29,150.8z"/>
				</g>
			</g>
		</g>
		<g>
			<g>
				<path class="st7" d="M260.31,208.03c3.85-2.2,6.9-5.87,8.38-10.45c16.78-52.08,25.3-79.63,70.5-71.77
					c32.01,5.57,34.82,55.95,32.49,82.22h21.62V115.7H247.92c-14.81,0-26.03,14.13-23.45,29.53l5.37,62.81H260.31z"/>
			</g>
		</g>
		<g>
			<g>
				<path class="st7" d="M461.31,208.03h2.23c8.48-0.9,14.97-1.86,23.27-4.07l0.12-0.04c3.72-1.34,6.57-4.52,7.64-8.51l0.02-0.08
					c16.78-63.04,25.31-76.92,70.5-67.39c17.98,3.79,26.74,18.9,30.55,36.86l22.81-12.17l-8.98-36.76l-163.19-0.18L461.31,208.03z"
					/>
			</g>
		</g>
		<g>
			<g>
				<path class="st8" d="M449.44,140.34l11.01,67.67c9.32-0.13,18.56-1.64,27.47-4.51c3.23-1.51,5.68-4.45,6.65-8.08l0.02-0.08
					c6.98-26.23,12.54-43.94,19.89-55H449.44z"/>
			</g>
			<g>
				<path class="st8" d="M585.11,140.34c4.67,5.89,8.51,16.31,10.54,24.47l22.81-12.17l-3-12.3H585.11z"/>
			</g>
		</g>
		<g>
			<g>
				<path class="st8" d="M268.69,197.58c8.15-25.29,14.36-44.77,23.75-57.25h-68.33c-0.03,1.6,0.08,3.24,0.36,4.89l0,0l10.52,62.81
					h25.32C264.16,205.83,267.21,202.16,268.69,197.58z"/>
			</g>
			<g>
				<path class="st8" d="M360.28,140.34c12.11,18.3,13.05,49.06,11.4,67.7h23.4v-67.7H360.28z"/>
			</g>
		</g>
		<g>
			<g>
				<path class="st13" d="M375.39,208.03c9.46-69.58-0.09-124.92-0.2-125.53l-0.98,0.18c0.11,0.61,9.65,55.88,0.18,125.36H375.39z"
					/>
			</g>
			<g>
				<path class="st13" d="M484.89,82.41l-0.94,0.35c0.15,0.39,12.91,36.16,0.81,121.68c0.35-0.1,0.7-0.2,1.05-0.3
					C497.86,118.63,485.04,82.8,484.89,82.41z"/>
			</g>
		</g>
		<g>
			<g>
				<g>
					<path class="st2" d="M229.84,164.98H19.19c-4.47,0-8.34-3.28-9.3-7.89l-6.23-29.77c-1.25-5.97,3.05-11.62,8.84-11.62h207.03
						L229.84,164.98z"/>
				</g>
				<g>
					<path class="st10" d="M19.2,160.98c-2.59,0-4.81-1.94-5.39-4.71L7.58,126.5c-0.37-1.78,0.05-3.58,1.16-4.95
						c0.56-0.69,1.8-1.85,3.76-1.85h200.27c2.04,0,3.8,1.43,4.22,3.43l6.83,32.65c0.56,2.68-1.48,5.2-4.22,5.2H19.2z"/>
				</g>
				<g>
					<path class="st6" d="M192.58,119.7H49.84l-36.13,36.13l0.09,0.44c0.58,2.77,2.8,4.71,5.39,4.71H151.3L192.58,119.7z"/>
				</g>
				<g>
					<path class="st11" d="M19.2,157.98c-1.16,0-2.17-0.96-2.45-2.32l-6.23-29.77c-0.19-0.89,0.02-1.78,0.55-2.44
						c0.4-0.49,0.88-0.75,1.44-0.75h200.27c0.62,0,1.16,0.44,1.29,1.04l6.83,32.65c0.11,0.53-0.12,0.92-0.27,1.1
						c-0.15,0.18-0.48,0.49-1.02,0.49H19.2z"/>
				</g>
				<g>
					<path class="st0" d="M19.2,156.98c-0.68,0-1.29-0.63-1.47-1.53l-6.23-29.77c-0.13-0.6,0-1.17,0.35-1.61
						c0.31-0.38,0.56-0.38,0.66-0.38h200.27c0.15,0,0.28,0.1,0.31,0.25l6.83,32.65c0.01,0.04,0.03,0.15-0.06,0.26
						c-0.09,0.12-0.2,0.12-0.24,0.12H19.2z"/>
				</g>
			</g>
		</g>
		<g>
			<path class="st2" d="M229.84,208.03H30.09c-4.07,0-7.57-2.86-8.39-6.85l-4.94-24.22h213.09V208.03z"/>
		</g>
		<g>
			<polygon class="st7" points="19.3,189.41 229.84,194.79 229.84,176.96 16.76,176.96 			"/>
		</g>
		<g>
			<g>
				<g>
					<path class="st14" d="M142,213.11h-41.96c-2.04,0-3.72-1.67-3.72-3.72v-15.2c0-2.04,1.67-3.72,3.72-3.72H142
						c2.04,0,3.72,1.67,3.72,3.72v15.2C145.72,211.43,144.04,213.11,142,213.11z"/>
				</g>
			</g>
			<g>
				<g>
					<path class="st15" d="M138.35,213.11c2.04,0,3.72-1.67,3.72-3.72v-15.2c0-2.04-1.67-3.72-3.72-3.72H96.39
						c-2.04,0-3.72,1.67-3.72,3.72v15.2c0,2.04,1.67,3.72,3.72,3.72H138.35z"/>
				</g>
				<g>
					<path class="st14" d="M138.35,210.61H96.39c-0.66,0-1.22-0.56-1.22-1.22v-15.2c0-0.66,0.56-1.22,1.22-1.22h41.96
						c0.66,0,1.22,0.56,1.22,1.22v15.2C139.57,210.05,139.01,210.61,138.35,210.61z M96.39,193.97c-0.11,0-0.22,0.11-0.22,0.22v15.2
						c0,0.11,0.11,0.22,0.22,0.22h41.96c0.11,0,0.22-0.11,0.22-0.22v-15.2c0-0.11-0.11-0.22-0.22-0.22H96.39z"/>
				</g>
			</g>
		</g>
		<g>
			<g>
				<path class="st2" d="M268.04,199.31c0.24-0.56,0.46-1.14,0.65-1.73c16.78-52.08,25.3-79.63,70.5-71.77
					c19.74,3.44,28.37,23.91,31.55,45.26l0,0c0,0,3.02-63.73-46.9-63.73C261.09,107.35,279.81,136.97,268.04,199.31z"/>
			</g>
		</g>
		<g>
			<g>
				<path class="st2" d="M548.72,109.57c-56.79,0-45.99,29.8-58.06,92.15c0.25-0.56,3.59-1.17,3.79-1.76
					c17.21-52.08,23.25-79.88,69.61-72.02c17.66,3,27.3,18.71,31.47,36.91l0.32-0.14C592.79,149.28,585.35,109.57,548.72,109.57z"/>
			</g>
		</g>
		<g>
			<g>
				<g>
					<path class="st7" d="M462.47,102.72h-16.16c-2.03,0-3.67-1.64-3.67-3.67l0,0c0-2.03,1.64-3.67,3.67-3.67h16.16
						c2.03,0,3.67,1.64,3.67,3.67l0,0C466.14,101.08,464.5,102.72,462.47,102.72z"/>
				</g>
			</g>
			<g>
				<g>
					<path class="st8" d="M462.67,95.38h-4.5c1.92,0,3.48,1.64,3.48,3.67c0,2.03-1.56,3.67-3.48,3.67h4.5
						c1.92,0,3.48-1.64,3.48-3.67C466.14,97.02,464.59,95.38,462.67,95.38z"/>
				</g>
			</g>
			<g>
				<g>
					<path class="st0" d="M463.14,99.73h-17.89c-0.73,0-1.32-0.59-1.32-1.32l0,0c0-0.73,0.59-1.32,1.32-1.32h17.89
						c0.73,0,1.32,0.59,1.32,1.32l0,0C464.46,99.14,463.87,99.73,463.14,99.73z"/>
				</g>
			</g>
		</g>
		<g>
			<g>
				<path class="st10" d="M235.77,185.57H12.88c-2.71,0-4.9-2.19-4.9-4.9v-10.8c0-2.71,2.19-4.9,4.9-4.9h222.89
					c2.71,0,4.9,2.19,4.9,4.9v10.8C240.67,183.38,238.47,185.57,235.77,185.57z"/>
			</g>
			<g>
				<path class="st11" d="M233.32,185.57h-41.36c-2.71,0-4.9-2.19-4.9-4.9v-10.8c0-2.71,2.19-4.9,4.9-4.9h41.36
					c2.71,0,4.9,2.19,4.9,4.9v10.8C238.22,183.38,236.03,185.57,233.32,185.57z"/>
			</g>
			<g>
				<path class="st16" d="M8.1,168.83h232.45c-0.48-2.2-2.43-3.85-4.78-3.85H12.88C10.53,164.98,8.58,166.63,8.1,168.83z"/>
			</g>
			<g>
				<path class="st11" d="M12.16,168.83c4.71-0.15,9.41-0.25,14.12-0.35l14.12-0.28l28.23-0.36c18.82-0.15,37.64-0.23,56.47-0.17
					l28.23,0.09c9.41,0.03,18.82,0.12,28.23,0.23l28.23,0.32c9.41,0.17,18.82,0.29,28.23,0.53c-9.41,0.24-18.82,0.35-28.23,0.53
					l-28.23,0.32c-9.41,0.11-18.82,0.19-28.23,0.23l-28.23,0.09c-18.82,0.05-37.64-0.03-56.47-0.17l-28.23-0.36l-14.12-0.28
					C21.57,169.09,16.86,168.98,12.16,168.83z"/>
			</g>
		</g>
		<g>
			<g>
				<path class="st10" d="M623.49,167.27h-26.68c-2.71,0-4.9-2.19-4.9-4.9v-10.8c0-2.71,2.19-4.9,4.9-4.9h26.68
					c2.71,0,4.9,2.19,4.9,4.9v10.8C628.39,165.08,626.2,167.27,623.49,167.27z"/>
			</g>
			<g>
				<path class="st11" d="M621.04,167.27h-8.55c-2.71,0-4.9-2.19-4.9-4.9v-10.8c0-2.71,2.19-4.9,4.9-4.9h8.55
					c2.71,0,4.9,2.19,4.9,4.9v10.8C625.94,165.08,623.75,167.27,621.04,167.27z"/>
			</g>
			<g>
				<path class="st16" d="M592.03,150.53h36.24c-0.48-2.2-2.43-3.85-4.78-3.85h-26.68C594.46,146.68,592.51,148.33,592.03,150.53z"
					/>
			</g>
			<g>
				<path class="st11" d="M596.09,150.53c2.47-0.55,4.94-0.8,7.41-0.99c2.47-0.15,4.94-0.24,7.41-0.17
					c1.24,0.01,2.47,0.03,3.71,0.09c1.24,0.04,2.47,0.11,3.71,0.2c2.47,0.18,4.94,0.42,7.41,0.87c-2.47,0.45-4.94,0.68-7.41,0.87
					c-1.24,0.09-2.47,0.16-3.71,0.2c-1.24,0.06-2.47,0.08-3.71,0.09c-2.47,0.06-4.94-0.02-7.41-0.17
					C601.03,151.33,598.56,151.09,596.09,150.53z"/>
			</g>
		</g>
		<g>
			<g>
				<g>
					<ellipse class="st11" cx="171.75" cy="140.34" rx="12.66" ry="13.36"/>
				</g>
			</g>
			<g>
				<g>
					<ellipse class="st2" cx="168.64" cy="140.34" rx="12.66" ry="13.36"/>
				</g>
			</g>
			<g>
				<g>
					<path class="st17" d="M177.43,140.34c0,5.13-3.94,9.29-8.79,9.29c-4.86,0-8.79-4.16-8.79-9.29s3.94-9.29,8.79-9.29
						C173.5,131.05,177.43,135.21,177.43,140.34z"/>
				</g>
			</g>
			<g>
				<g>
					<path class="st10" d="M178.66,140.34c0,5.84-4.49,10.58-10.02,10.58c-5.53,0-10.02-4.74-10.02-10.58
						c0-5.84,4.49-10.58,10.02-10.58C174.17,129.75,178.66,134.49,178.66,140.34z"/>
				</g>
			</g>
			<g>
				<g>
					<path class="st11" d="M161.67,140.34c0-5.29,3.69-9.67,8.49-10.45c-0.5-0.08-1.01-0.14-1.53-0.14
						c-5.53,0-10.02,4.74-10.02,10.58c0,5.84,4.49,10.58,10.02,10.58c0.52,0,1.03-0.05,1.53-0.14
						C165.36,150,161.67,145.63,161.67,140.34z"/>
				</g>
			</g>
			<g>
				<g>
					<path class="st16" d="M176.92,140.34c0,4.83-3.71,8.74-8.28,8.74c-4.57,0-8.28-3.91-8.28-8.74c0-4.83,3.71-8.74,8.28-8.74
						C173.21,131.59,176.92,135.51,176.92,140.34z"/>
				</g>
			</g>
		</g>
		<g>
			<g>
				<g>
					<ellipse class="st11" cx="198.71" cy="140.34" rx="12.66" ry="13.36"/>
				</g>
			</g>
			<g>
				<g>
					<path class="st2" d="M208.26,140.34c0,7.38-5.67,13.36-12.66,13.36c-6.99,0-12.66-5.98-12.66-13.36
						c0-7.38,5.67-13.36,12.66-13.36C202.59,126.97,208.26,132.96,208.26,140.34z"/>
				</g>
			</g>
			<g>
				<g>
					<path class="st17" d="M204.4,140.34c0,5.13-3.94,9.29-8.8,9.29c-4.86,0-8.79-4.16-8.79-9.29s3.94-9.29,8.79-9.29
						C200.46,131.05,204.4,135.21,204.4,140.34z"/>
				</g>
			</g>
			<g>
				<g>
					<path class="st10" d="M205.62,140.34c0,5.84-4.49,10.58-10.02,10.58c-5.53,0-10.02-4.74-10.02-10.58
						c0-5.84,4.49-10.58,10.02-10.58C201.14,129.75,205.62,134.49,205.62,140.34z"/>
				</g>
			</g>
			<g>
				<g>
					<path class="st11" d="M188.64,140.34c0-5.29,3.69-9.67,8.49-10.45c-0.5-0.08-1.01-0.14-1.53-0.14
						c-5.53,0-10.02,4.74-10.02,10.58c0,5.84,4.49,10.58,10.02,10.58c0.52,0,1.03-0.05,1.53-0.14
						C192.32,150,188.64,145.63,188.64,140.34z"/>
				</g>
			</g>
			<g>
				<g>
					<path class="st16" d="M203.88,140.34c0,4.83-3.71,8.74-8.28,8.74c-4.57,0-8.28-3.91-8.28-8.74c0-4.83,3.71-8.74,8.28-8.74
						C200.17,131.59,203.88,135.51,203.88,140.34z"/>
				</g>
			</g>
		</g>
		<g>
			<g>
				<g>
					<ellipse class="st11" cx="31.31" cy="140.34" rx="12.66" ry="13.36"/>
				</g>
			</g>
			<g>
				<g>
					<path class="st2" d="M40.85,140.34c0,7.38-5.67,13.36-12.66,13.36c-6.99,0-12.66-5.98-12.66-13.36
						c0-7.38,5.67-13.36,12.66-13.36C35.18,126.97,40.85,132.96,40.85,140.34z"/>
				</g>
			</g>
			<g>
				<g>
					<path class="st17" d="M36.99,140.34c0,5.13-3.94,9.29-8.8,9.29c-4.86,0-8.79-4.16-8.79-9.29s3.94-9.29,8.79-9.29
						C33.05,131.05,36.99,135.21,36.99,140.34z"/>
				</g>
			</g>
			<g>
				<g>
					<path class="st10" d="M38.22,140.34c0,5.84-4.49,10.58-10.02,10.58c-5.53,0-10.02-4.74-10.02-10.58
						c0-5.84,4.49-10.58,10.02-10.58C33.73,129.75,38.22,134.49,38.22,140.34z"/>
				</g>
			</g>
			<g>
				<g>
					<path class="st11" d="M21.23,140.34c0-5.29,3.69-9.67,8.49-10.45c-0.5-0.08-1.01-0.14-1.53-0.14
						c-5.53,0-10.02,4.74-10.02,10.58c0,5.84,4.49,10.58,10.02,10.58c0.52,0,1.03-0.05,1.53-0.14
						C24.91,150,21.23,145.63,21.23,140.34z"/>
				</g>
			</g>
			<g>
				<g>
					<path class="st16" d="M36.47,140.34c0,4.83-3.71,8.74-8.28,8.74c-4.57,0-8.28-3.91-8.28-8.74c0-4.83,3.71-8.74,8.28-8.74
						C32.77,131.59,36.47,135.51,36.47,140.34z"/>
				</g>
			</g>
		</g>
		<g>
			<g>
				<g>
					<ellipse class="st11" cx="58.27" cy="140.34" rx="12.66" ry="13.36"/>
				</g>
			</g>
			<g>
				<g>
					<ellipse class="st2" cx="55.16" cy="140.34" rx="12.66" ry="13.36"/>
				</g>
			</g>
			<g>
				<g>
					<path class="st17" d="M63.95,140.34c0,5.13-3.94,9.29-8.8,9.29c-4.86,0-8.79-4.16-8.79-9.29s3.94-9.29,8.79-9.29
						C60.02,131.05,63.95,135.21,63.95,140.34z"/>
				</g>
			</g>
			<g>
				<g>
					<path class="st10" d="M65.18,140.34c0,5.84-4.49,10.58-10.02,10.58c-5.53,0-10.02-4.74-10.02-10.58
						c0-5.84,4.49-10.58,10.02-10.58C60.69,129.75,65.18,134.49,65.18,140.34z"/>
				</g>
			</g>
			<g>
				<g>
					<path class="st11" d="M48.19,140.34c0-5.29,3.69-9.67,8.49-10.45c-0.5-0.08-1.01-0.14-1.53-0.14
						c-5.53,0-10.02,4.74-10.02,10.58c0,5.84,4.49,10.58,10.02,10.58c0.52,0,1.03-0.05,1.53-0.14
						C51.88,150,48.19,145.63,48.19,140.34z"/>
				</g>
			</g>
			<g>
				<g>
					<path class="st16" d="M63.44,140.34c0,4.83-3.71,8.74-8.28,8.74c-4.57,0-8.28-3.91-8.28-8.74c0-4.83,3.71-8.74,8.28-8.74
						C59.73,131.59,63.44,135.51,63.44,140.34z"/>
				</g>
			</g>
		</g>
		<g>
			<path class="st10" d="M155.18,153.59H77.76c-0.76,0-1.43-0.65-1.62-1.57l-4.78-22.82c-0.13-0.61,0-1.2,0.37-1.65
				c0.26-0.31,0.56-0.47,0.89-0.47h77.31c0.35,0,0.65,0.25,0.73,0.59l5.24,25.03c0.06,0.3-0.07,0.52-0.15,0.62
				C155.67,153.42,155.48,153.59,155.18,153.59z M72.63,128.08c-0.01,0-0.06,0.03-0.12,0.1c-0.17,0.21-0.23,0.5-0.17,0.81
				l4.78,22.82c0.09,0.44,0.37,0.77,0.64,0.77h77.1l-5.13-24.52H72.63z"/>
		</g>
		<g>
			<path class="st0" d="M371.54,85.24c0,0,34.67,0,65.78,0s82.54-0.08,97.48-14.78c0,0-33.45-39.98-123.82-48.58
				c-6.51-0.62-12.69,2.95-15.33,8.92L371.54,85.24z"/>
		</g>
		<g>
			<path class="st3" d="M376.15,82.24l22.24-50.22c1.94-4.38,6.31-7.21,11.13-7.21c0.39,0,0.79,0.02,1.18,0.06
				c75.97,7.24,111.23,37.02,119.72,45.35c-16.84,12.03-66.06,12.03-93.1,12.03H376.15z"/>
		</g>
		<g>
			<path class="st4" d="M474.18,77.41c0-13.57-11-24.58-24.58-24.58h-60.43l-13.02,29.41h61.17c10.13,0,23.37,0,36.86-0.63V77.41z"
				/>
		</g>
		<g>
			<rect x="407.88" y="22.76" class="st0" width="3" height="60.74"/>
		</g>
		<g>
			<g>
				<rect x="144.83" y="29.38" class="st0" width="77.39" height="33.94"/>
			</g>
			<g>
				<path class="st11" d="M236.92,86.16h-49.39V61.74h43.36c3.33,0,6.03,2.7,6.03,6.03V86.16z"/>
			</g>
			<g>
				<defs>
					<path id="SVGID_1_" d="M236.92,86.16h-49.39V61.74h43.36c3.33,0,6.03,2.7,6.03,6.03V86.16z"/>
				</defs>
				<clipPath id="SVGID_00000054240605779096346860000008448380258234892712_">
					<use xlink:href="#SVGID_1_"  style="overflow:visible;"/>
				</clipPath>
				<g style="clip-path:url(#SVGID_00000054240605779096346860000008448380258234892712_);">
					<g>
						<rect x="179.16" y="63.91" class="st3" width="69.23" height="1"/>
					</g>
					<g>
						<rect x="179.16" y="68.53" class="st3" width="69.23" height="1"/>
					</g>
					<g>
						<rect x="179.16" y="73.15" class="st3" width="69.23" height="1"/>
					</g>
					<g>
						<rect x="179.16" y="77.76" class="st3" width="69.23" height="1"/>
					</g>
					<g>
						<rect x="179.16" y="82.38" class="st3" width="69.23" height="1"/>
					</g>
				</g>
			</g>
			<g>
				<path class="st10" d="M193.91,86.16h-56.94V68.41c0-3.69,2.99-6.67,6.67-6.67h43.59c3.69,0,6.67,2.99,6.67,6.67V86.16z"/>
			</g>
			<g>
				<path class="st11" d="M140.18,82.96V68.61c0-2.03,1.64-3.67,3.67-3.67h43.19c2.03,0,3.67,1.64,3.67,3.67v14.35H140.18z"/>
			</g>
			<g>
				<path class="st3" d="M148.75,64.94h-4.65c-2.16,0-3.92,1.76-3.92,3.92v14.1h4.65v-14.1C144.83,66.7,146.59,64.94,148.75,64.94z"
					/>
			</g>
			<g>
				<path class="st10" d="M221.71,49.05h-95.2V6.69h95.2c10.39,0,18.82,8.43,18.82,18.82v4.73
					C240.53,40.63,232.1,49.05,221.71,49.05z"/>
			</g>
			<g>
				<polygon class="st11" points="176.62,49.05 218.67,49.05 209.89,6.69 176.62,6.69 				"/>
			</g>
			<g>
				<path class="st11" d="M196.85,28.86l5.85,7.9l37.44-3.87c0.25-1.27,0.39-2.58,0.39-3.92v-0.11H196.85z"/>
			</g>
			<g>
				<path class="st10" d="M239.75,30.74H129.2c-1.48,0-2.68-1.2-2.68-2.68v-0.36c0-1.48,1.2-2.68,2.68-2.68h110.55
					c1.48,0,2.68,1.2,2.68,2.68v0.36C242.43,29.53,241.23,30.74,239.75,30.74z"/>
			</g>
			<g>
				<path class="st16" d="M239.73,26.08h-30.84c-0.44,0-0.8,0.36-0.8,0.8c0,0.44,0.36,0.8,0.8,0.8h30.84c0.44,0,0.8-0.36,0.8-0.8
					C240.53,26.44,240.17,26.08,239.73,26.08z"/>
			</g>
			<g>
				<path class="st10" d="M199.6,52.55h-71.87c-4.06,0-7.35-3.29-7.35-7.35V10.54c0-4.06,3.29-7.35,7.35-7.35h71.87
					c4.06,0,7.35,3.29,7.35,7.35V45.2C206.95,49.26,203.66,52.55,199.6,52.55z"/>
			</g>
			<g>
				<path class="st0" d="M123.58,45V10.74c0-2.4,1.95-4.35,4.35-4.35h71.47c2.4,0,4.35,1.95,4.35,4.35V45c0,2.4-1.95,4.35-4.35,4.35
					h-71.47C125.53,49.35,123.58,47.4,123.58,45z"/>
			</g>
			<g>
				<path class="st11" d="M131.82,44.71V11.04c0-2.56,2.08-4.64,4.64-4.64h-8.24c-2.56,0-4.64,2.08-4.64,4.64v33.67
					c0,2.56,2.08,4.64,4.64,4.64h8.24C133.9,49.35,131.82,47.27,131.82,44.71z"/>
			</g>
			<g>
				<circle class="st3" cx="163.67" cy="80.35" r="11.73"/>
			</g>
			<g>
				<g>
					<ellipse class="st11" cx="146.82" cy="27.87" rx="9.24" ry="11.16"/>
				</g>
				<g>
					<path class="st16" d="M198.67,27.26h-63.17c-0.44,0-0.8,0.36-0.8,0.8c0,0.44,0.36,0.8,0.8,0.8h63.17c0.44,0,0.8-0.36,0.8-0.8
						C199.47,27.61,199.11,27.26,198.67,27.26z"/>
				</g>
				<g>
					<ellipse class="st11" cx="167.61" cy="27.87" rx="9.24" ry="11.16"/>
				</g>
				<g>
					<ellipse class="st11" cx="188.4" cy="27.87" rx="9.24" ry="11.16"/>
				</g>
			</g>
		</g>
		<g>
			<g>
				<path class="st8" d="M185.25,78.28l-41.98,2.1v35.31h8.83c9.63-20.98,34.9-29.16,34.9-29.16v-8.37L185.25,78.28z"/>
			</g>
			<g>
				<path class="st2" d="M79.5,117.24c0,0,9.01-39.08,62.67-39.08h44.82c0,0-40.84,8.53-40.84,39.08H79.5z"/>
			</g>
		</g>
		<g>
			<rect x="479.15" y="39.13" class="st0" width="3" height="43.46"/>
		</g>
		<g>
			<g>
				<g>
					<ellipse class="st10" cx="410.77" cy="78.21" rx="13.64" ry="15.26"/>
				</g>
				<g>
					<path class="st3" d="M413.65,80.88l-7.7,11.6c1.5,0.63,3.12,1,4.81,1c6.72,0,12.29-5.44,13.41-12.59H413.65z"/>
				</g>
				<g>
					<ellipse class="st19" cx="409.2" cy="78.21" rx="12.07" ry="15.26"/>
				</g>
				<g>
					<path class="st10" d="M400.68,89.02l6.38-8.13l-8.25,5.07C399.33,87.07,399.95,88.1,400.68,89.02z"/>
				</g>
			</g>
			<g>
				<path class="st19" d="M406.72,81.77L385,97.43c-0.9,0.65-2.15,0.44-2.79-0.45l0,0c-0.65-0.9-0.44-2.15,0.45-2.79l21.72-15.67
					c0.9-0.65,2.15-0.44,2.79,0.45l0,0C407.81,79.87,407.61,81.12,406.72,81.77z"/>
			</g>
		</g>
		<g>
			<path class="st8" d="M522.65,82.18c15.41-1.54,20.08-5.69,23.72-4.06c3.83,1.72,8.61,15.06,6.72,17.36
				c-1.14,1.39-25.93,1.2-25.93,1.2s21.56-2.25,20.44-5.85c-1.11-3.6-2.44-8.86-3.48-8.93C543.09,81.84,522.65,82.18,522.65,82.18z"
				/>
		</g>
		<g>
			<g>
				<rect x="72.57" y="131.46" class="st10" width="78.61" height="1"/>
			</g>
			<g>
				<rect x="73.23" y="135.65" class="st10" width="78.61" height="1"/>
			</g>
			<g>
				<rect x="73.9" y="139.84" class="st10" width="78.61" height="1"/>
			</g>
			<g>
				<rect x="75.15" y="144.02" class="st10" width="78.64" height="1"/>
			</g>
			<g>
				<rect x="76.04" y="148.21" class="st10" width="78.63" height="1"/>
			</g>
		</g>
	</g>
</g>
</svg>
