<svg width="998" height="800" viewBox="0 0 998 800" fill="none" xmlns="http://www.w3.org/2000/svg">
<path fill-rule="evenodd" clip-rule="evenodd" d="M351.631 548.966C383.92 527.742 419.772 485.979 448.286 432.642C470.516 391.06 484.419 349.676 489.332 315.145C494.791 350.386 510.325 393.084 534.93 435.702C564.728 487.314 601.281 527.462 633.885 547.912L634.728 549.373L636.23 549.373L527.047 738.484L493.5 648L460.492 737.031L352.522 550.023H351.021L351.631 548.966Z" fill="url(#paint0_linear_7_4)"/>
<path fill-rule="evenodd" clip-rule="evenodd" d="M431.389 461.611C437.235 452.409 442.892 442.733 448.286 432.642C470.516 391.06 484.419 349.676 489.332 315.145C494.792 350.386 510.324 393.084 534.93 435.702C540.527 445.397 546.363 454.688 552.366 463.519C534.991 473.374 514.902 479 493.5 479C470.752 479 449.488 472.644 431.389 461.611Z" fill="#0075FF" fill-opacity="0.38"/>
<path fill-rule="evenodd" clip-rule="evenodd" d="M512.913 316.659C539.494 324.851 575.877 362.037 604.554 413.325C627.909 455.093 640.621 496.317 640.787 524.73C614.207 516.538 577.824 479.352 549.146 428.064C525.791 386.296 513.079 345.072 512.913 316.659Z" fill="#362B78"/>
<path fill-rule="evenodd" clip-rule="evenodd" d="M464.015 316.064C469.862 343.256 455.204 393.173 424.479 443.261C399.456 484.052 369.706 515.292 345 529.325C339.153 502.132 353.811 452.215 384.536 402.127C409.559 361.337 439.309 330.096 464.015 316.064Z" fill="#362B78"/>
<path fill-rule="evenodd" clip-rule="evenodd" d="M717.653 395.421C727.051 439.136 703.487 519.383 654.094 599.904C613.868 665.48 566.04 715.702 526.323 738.261C516.924 694.546 540.488 614.299 589.882 533.778C630.108 468.202 677.935 417.981 717.653 395.421Z" fill="#362B78" fill-opacity="0.42"/>
<path fill-rule="evenodd" clip-rule="evenodd" d="M792.337 451C791.291 495.702 749.678 568.25 682.882 635.046C628.484 689.444 570.271 727.139 526.391 739.824C527.437 695.122 569.05 622.574 635.846 555.778C690.243 501.38 748.456 463.684 792.337 451Z" fill="#362B78" fill-opacity="0.42"/>
<path fill-rule="evenodd" clip-rule="evenodd" d="M194.031 446C195.089 491.228 237.191 564.629 304.773 632.211C359.811 687.249 418.709 725.388 463.106 738.222C462.048 692.994 419.945 619.593 352.363 552.011C297.325 496.973 238.428 458.833 194.031 446Z" fill="#362B78" fill-opacity="0.42"/>
<path fill-rule="evenodd" clip-rule="evenodd" d="M275.93 395C317.866 410.516 372.952 473.448 414.415 558.326C448.181 627.449 464.912 694.753 462.647 740.374C420.712 724.857 365.626 661.926 324.163 577.048C290.397 507.924 273.665 440.621 275.93 395Z" fill="#362B78" fill-opacity="0.42"/>
<path fill-rule="evenodd" clip-rule="evenodd" d="M344 349C362.942 349 379.763 358.08 390.348 372.125C386.085 378.347 381.898 384.798 377.813 391.458C367.773 407.825 359.133 424.177 351.996 439.99C330.572 415.387 309.174 396.986 289.694 386.587C297.953 364.626 319.152 349 344 349Z" fill="url(#paint1_linear_7_4)"/>
<path fill-rule="evenodd" clip-rule="evenodd" d="M645.649 353C625.767 353 608.111 362.531 597 377.273C601.474 383.804 605.87 390.576 610.158 397.566C620.696 414.746 629.765 431.91 637.256 448.508C659.744 422.684 682.205 403.369 702.652 392.453C693.983 369.402 671.732 353 645.649 353Z" fill="url(#paint2_linear_7_4)"/>
<ellipse cx="490" cy="276.5" rx="11" ry="21.5" fill="#FFF5F5"/>
<ellipse cx="488.5" cy="104" rx="4.5" ry="9" fill="#362B78"/>
<path fill-rule="evenodd" clip-rule="evenodd" d="M497.911 731.744C501.521 728.217 504 720.925 504 712.5C504 700.626 499.075 691 493 691C486.925 691 482 700.626 482 712.5C482 720.317 484.134 727.16 487.326 730.923L492.5 713L497.911 731.744Z" fill="#FFF5F5"/>
<path fill-rule="evenodd" clip-rule="evenodd" d="M242.469 444.336C253.455 425.282 256.028 394.481 247.406 362.303C238.784 330.126 221.155 304.738 202.114 293.729C191.128 312.783 188.555 343.584 197.177 375.762C205.799 407.939 223.428 433.327 242.469 444.336Z" fill="#362B78" fill-opacity="0.42"/>
<path fill-rule="evenodd" clip-rule="evenodd" d="M193.502 392.55C203.702 392.527 216.686 398.599 227.641 409.492C238.596 420.385 244.742 433.335 244.777 443.535C234.577 443.558 221.592 437.486 210.637 426.593C199.682 415.7 193.537 402.75 193.502 392.55Z" fill="#362B78" fill-opacity="0.42"/>
<path fill-rule="evenodd" clip-rule="evenodd" d="M803.656 392.526C803.65 402.726 797.541 415.693 786.617 426.617C775.693 437.541 762.726 443.65 752.526 443.656C752.532 433.456 758.641 420.489 769.565 409.565C780.489 398.641 793.456 392.532 803.656 392.526Z" fill="#362B78" fill-opacity="0.5"/>
<path fill-rule="evenodd" clip-rule="evenodd" d="M750.273 444.812C769.035 433.336 786.03 407.519 793.853 375.138C801.676 342.757 798.341 312.029 786.887 293.253C768.125 304.729 751.13 330.546 743.307 362.927C735.484 395.308 738.819 426.036 750.273 444.812Z" fill="#362B78" fill-opacity="0.42"/>
<path fill-rule="evenodd" clip-rule="evenodd" d="M176.485 672.663C195.796 485.683 264.083 270.506 336.09 176.196C408.936 80.7873 459.588 143.137 454.473 314.244C467.662 188.533 452.754 96.2106 411.277 85.7465C352.727 70.9748 263.403 224.919 211.766 429.591C189.038 519.678 177.4 604.578 176.485 672.663Z" fill="url(#paint3_linear_7_4)" fill-opacity="0.5"/>
<path fill-rule="evenodd" clip-rule="evenodd" d="M772.644 673.234C769.913 490.273 718.167 277.071 651.09 181.206C583.231 84.2237 523.903 141.947 513.153 308.653C511.1 185.633 535.542 96.7024 580.293 88.9121C643.465 77.915 723.187 232.775 758.356 434.801C773.836 523.725 778.104 606.964 772.644 673.234Z" fill="url(#paint4_linear_7_4)" fill-opacity="0.5"/>
<path fill-rule="evenodd" clip-rule="evenodd" d="M509.709 308.628C581.574 222.455 725.07 176.295 841.352 204.671C956.294 232.721 1004.09 323.703 956.21 414.013C987.309 379.409 1002.64 339.21 995.72 299.471C980.004 209.189 855.408 155.472 717.427 179.492C619.683 196.507 541.442 247.968 509.709 308.628Z" fill="url(#paint5_linear_7_4)" fill-opacity="0.5"/>
<path fill-rule="evenodd" clip-rule="evenodd" d="M455.57 311.151C395.635 225 265.693 170.29 155.033 187.251C45.6472 204.015 -6.30446 284.893 30.9452 372.943C4.78963 338.166 -6.2165 299.46 3.46894 262.997C25.4734 180.156 145.947 140.262 272.554 173.892C362.242 197.716 430.948 252.043 455.57 311.151Z" fill="url(#paint6_linear_7_4)" fill-opacity="0.5"/>
<defs>
<linearGradient id="paint0_linear_7_4" x1="493.625" y1="304" x2="493.625" y2="738.484" gradientUnits="userSpaceOnUse">
<stop stop-color="#FF8B8B"/>
<stop offset="1" stop-color="white"/>
</linearGradient>
<linearGradient id="paint1_linear_7_4" x1="340.021" y1="349" x2="340.021" y2="439.99" gradientUnits="userSpaceOnUse">
<stop stop-color="#362B78"/>
<stop offset="1" stop-color="#F9C1BC"/>
</linearGradient>
<linearGradient id="paint2_linear_7_4" x1="649.826" y1="353" x2="649.826" y2="448.508" gradientUnits="userSpaceOnUse">
<stop stop-color="#362B78"/>
<stop offset="1" stop-color="#FFBBBB"/>
</linearGradient>
<linearGradient id="paint3_linear_7_4" x1="405.674" y1="84.3329" x2="252.412" y2="691.818" gradientUnits="userSpaceOnUse">
<stop stop-color="#F9C1BC"/>
<stop offset="1" stop-color="#F9C1BC" stop-opacity="0"/>
</linearGradient>
<linearGradient id="paint4_linear_7_4" x1="586.338" y1="87.8597" x2="690.724" y2="687.495" gradientUnits="userSpaceOnUse">
<stop stop-color="#CFA9C4"/>
<stop offset="1" stop-color="#F9C1BC" stop-opacity="0"/>
</linearGradient>
<linearGradient id="paint5_linear_7_4" x1="730.632" y1="177.193" x2="777.28" y2="445.161" gradientUnits="userSpaceOnUse">
<stop stop-color="#F9C1BC"/>
<stop offset="1" stop-color="#F9C1BC" stop-opacity="0"/>
</linearGradient>
<linearGradient id="paint6_linear_7_4" x1="260.438" y1="170.674" x2="195.127" y2="416.554" gradientUnits="userSpaceOnUse">
<stop stop-color="#F9C1BC"/>
<stop offset="1" stop-color="#F9C1BC" stop-opacity="0"/>
</linearGradient>
</defs>
</svg>
