<svg width="422" height="427" viewBox="0 0 422 427" fill="none" xmlns="http://www.w3.org/2000/svg">
<g id="petal-a">
<path id="petal-1" d="M105.056 181L316.944 181L421.444 3.67952e-05L0.555908 0L105.056 181Z" fill="url(#paint0_linear_904_6448)"/>
<path id="petal-2" d="M105.056 259L316.944 259L421.444 78L0.555908 78L105.056 259Z" fill="url(#paint1_linear_904_6448)"/>
<path id="petal-3" d="M105.5 339L317.388 339L421.888 158L1 158L105.5 339Z" fill="url(#paint2_linear_904_6448)"/>
<path id="Vector" d="M211.85 57.4274V27.0962M211.85 57.4274L359.875 95.8534M211.85 57.4274L63.133 96.0301M211.85 57.4274V87.7587M211.85 27.0962V6M211.85 27.0962L48 69.6258M211.85 27.0962L375 69.4491M211.85 87.7587V126M211.85 87.7587L78.258 122.434M211.85 87.7587L344.75 122.25" stroke="url(#paint3_radial_904_6448)" stroke-opacity="0.33" stroke-miterlimit="10"/>
<path id="tri-1" d="M211.5 296L225.789 320.75H197.211L211.5 296Z" fill="#59FFFF"/>
<path id="tri-1_2" d="M211 361L239.579 410.5H182.421L211 361Z" fill="#C38C3A"/>
<path id="tri-2" d="M211.5 216L225.789 240.75H197.211L211.5 216Z" fill="#59FFFF"/>
<path id="tri-3" d="M211.5 136L225.789 160.75H197.211L211.5 136Z" fill="#59FFFF"/>
</g>
<defs>
<linearGradient id="paint0_linear_904_6448" x1="211" y1="181" x2="211" y2="9" gradientUnits="userSpaceOnUse">
<stop stop-color="#D9D9D9"/>
<stop offset="1" stop-color="#D9D9D9" stop-opacity="0"/>
</linearGradient>
<linearGradient id="paint1_linear_904_6448" x1="211" y1="259" x2="211" y2="87" gradientUnits="userSpaceOnUse">
<stop stop-color="#D9D9D9"/>
<stop offset="1" stop-color="#D9D9D9" stop-opacity="0"/>
</linearGradient>
<linearGradient id="paint2_linear_904_6448" x1="211.444" y1="339" x2="211.444" y2="167" gradientUnits="userSpaceOnUse">
<stop stop-color="#D9D9D9"/>
<stop offset="1" stop-color="#D9D9D9" stop-opacity="0"/>
</linearGradient>
<radialGradient id="paint3_radial_904_6448" cx="0" cy="0" r="1" gradientUnits="userSpaceOnUse" gradientTransform="translate(211.5 86.5) rotate(90) scale(60 163.5)">
<stop stop-color="white"/>
<stop offset="1" stop-color="white" stop-opacity="0"/>
</radialGradient>
</defs>
</svg>
