<svg width="381" height="385" viewBox="0 0 381 385" fill="none" xmlns="http://www.w3.org/2000/svg">
<path d="M149.551 73.504C167.59 41.9092 213.144 41.9092 231.183 73.504L313.367 217.446C331.256 248.779 308.631 287.75 272.551 287.75H108.183C72.1027 287.75 49.4774 248.779 67.367 217.446L149.551 73.504Z" stroke="white" stroke-width="2"/>
<path d="M237.366 248.182C218.295 287.237 162.565 287.037 143.758 247.846L119.501 197.297C102.901 162.705 128.192 122.67 166.557 122.808L215.411 122.983C253.776 123.121 278.797 163.336 261.964 197.808L237.366 248.182Z" stroke="white" stroke-width="2"/>
<path d="M144.462 172.591C158 126.7 223 126.7 236.538 172.591L241.576 189.668C250.648 220.42 227.599 251.25 195.538 251.25H185.462C153.401 251.25 130.352 220.42 139.424 189.668L144.462 172.591Z" fill="url(#paint0_linear_1_14)" stroke="url(#paint1_linear_1_14)" stroke-width="2"/>
<defs>
<linearGradient id="paint0_linear_1_14" x1="190.5" y1="13" x2="190.5" y2="332" gradientUnits="userSpaceOnUse">
<stop stop-color="white"/>
<stop offset="0.75" stop-color="#21213D" stop-opacity="0"/>
</linearGradient>
<linearGradient id="paint1_linear_1_14" x1="190.5" y1="13" x2="190.5" y2="332" gradientUnits="userSpaceOnUse">
<stop stop-color="white"/>
<stop offset="1" stop-color="#21213D" stop-opacity="0"/>
</linearGradient>
</defs>
</svg>
