<svg width="276" height="254" viewBox="0 0 276 254" fill="none" xmlns="http://www.w3.org/2000/svg">
<path d="M158.35 52.5615C197.874 55.595 224.991 93.6958 214.911 132.033V132.033C210.042 150.551 197.078 165.885 179.627 173.765L122.778 199.435C100.47 209.508 74.1522 202.393 59.9593 182.451V182.451C45.7663 162.509 47.6637 135.313 64.4882 117.535L107.363 72.2304C120.525 58.3229 139.259 51.0962 158.35 52.5615V52.5615Z" fill="url(#paint0_linear_4_44)"/>
<path d="M158.351 52.5616C197.875 55.5954 224.992 93.6964 214.912 132.033C210.043 150.552 197.078 165.885 179.627 173.765L122.778 199.435C100.47 209.508 74.1522 202.393 59.9594 182.451C45.7666 162.509 47.6641 135.312 64.4887 117.534L107.364 72.2302C120.526 58.3228 139.259 51.0962 158.351 52.5616Z" fill="url(#paint1_linear_4_44)"/>
<path d="M155.997 173.603L111.306 192.118C93.9897 199.292 74.0173 193.214 63.6331 177.61C53.2489 162.005 55.3545 141.235 68.659 128.032L102.996 93.9568C113.429 83.6028 127.978 78.509 142.591 80.0931C172.844 83.3725 192.733 113.26 184.076 142.432C179.894 156.524 169.577 167.977 155.997 173.603Z" fill="url(#paint2_linear_4_44)" stroke="url(#paint3_linear_4_44)"/>
<defs>
<linearGradient id="paint0_linear_4_44" x1="234.274" y1="58.3887" x2="41.5563" y2="195.549" gradientUnits="userSpaceOnUse">
<stop stop-color="white"/>
<stop offset="0.71" stop-color="#21213D" stop-opacity="0"/>
</linearGradient>
<linearGradient id="paint1_linear_4_44" x1="234.275" y1="58.3894" x2="41.5564" y2="195.548" gradientUnits="userSpaceOnUse">
<stop stop-color="white"/>
<stop offset="0.71" stop-color="#21213D" stop-opacity="0"/>
</linearGradient>
<linearGradient id="paint2_linear_4_44" x1="201.356" y1="85.9602" x2="48.6331" y2="187.591" gradientUnits="userSpaceOnUse">
<stop stop-color="white"/>
<stop offset="0.71" stop-color="#21213D" stop-opacity="0"/>
</linearGradient>
<linearGradient id="paint3_linear_4_44" x1="201.356" y1="85.9602" x2="48.6331" y2="187.591" gradientUnits="userSpaceOnUse">
<stop stop-color="white"/>
<stop offset="0.54" stop-color="white" stop-opacity="0"/>
</linearGradient>
</defs>
</svg>
